<?xml version="1.0" encoding="UTF-8"?>
<svg xmlns="http://www.w3.org/2000/svg" width="865.76" height="682.89" viewBox="0 0 865.76 682.89">
  <path d="M131.88,470.87l-22.63.49-11.47.19c-3.83.08-7.69,0-11.53.1h-.78v-.78l-.08-19.28v-.86h.86l22.86.14c7.6,0,15.2.21,22.82.29h.46v.47c0,3.27-.15,6.53-.22,9.73Zm0,0-.24-9.66c0-3.22-.21-6.39-.25-9.55l.49.47c-7.62.08-15.22.27-22.82.29l-22.81.1.86-.86L87,470.94l-.76-.77c3.76,0,7.49,0,11.27.1l11.34.19Z" fill="#ebebeb"></path>
  <path d="M106.43,495.19l-22.63.48-11.47.19c-3.85.09-7.69,0-11.53.1H60V475h.85l22.81.11c7.6,0,15.2.2,22.82.29H107v.46c0,3.28-.15,6.53-.22,9.74Zm0,0-.26-9.74c0-3.22-.19-6.39-.23-9.54l.49.46c-7.62.09-15.22.28-22.82.29l-22.74.06.84-.87-.08,19.29-.76-.78c3.75,0,7.49,0,11.27.1l11.33.19Z" fill="#ebebeb"></path>
  <path d="M157.36,495.19l-22.66.48-11.47.19c-3.83.09-7.69,0-11.53.1h-.76V475h.86l22.82.11c7.6,0,15.21.2,22.81.29h.47v.46c0,3.28-.14,6.53-.23,9.74Zm0,0-.24-9.74c0-3.22-.21-6.39-.22-9.54l.46.46c-7.6.09-15.21.28-22.81.29l-22.85.06.86-.87-.1,19.29-.76-.78c3.76,0,7.51,0,11.27.1l11.34.19Z" fill="#ebebeb"></path>
  <path d="M779.87,495.19l-22.6.48-11.48.19c-3.84.09-7.7,0-11.55.1h-.75v-.77l-.11-19.28V475h.86l22.82.11c7.62,0,15.21.2,22.81.29h.49v.46c0,3.28-.16,6.53-.23,9.74Zm0,0-.24-9.74c0-3.22-.19-6.39-.22-9.54l.46.46c-7.6.09-15.19.28-22.81.29l-22.82.11.87-.86L735,495.19l-.78-.78c3.76,0,7.52,0,11.29.11l11.34.19Z" fill="#ebebeb"></path>
  <path d="M779.87,94.51l-22.6.47-11.48.2c-3.84,0-7.7,0-11.55.09h-.75v-.78l-.11-19.26v-.88h.86l22.82.1c7.62,0,15.21.19,22.81.28h.49v.5c0,3.27-.16,6.51-.23,9.73Zm0,0-.24-9.75c0-3.21-.19-6.38-.22-9.53l.46.46c-7.6,0-15.19.28-22.81.28l-22.82.12.87-.86L735,94.51l-.78-.77c3.76,0,7.52,0,11.29.1l11.34.19Z" fill="#ebebeb"></path>
  <path d="M805.25,118.82l-22.6.47-11.48.21h-12.3v-.68l-.11-19.28v-.88h.87l22.81.11c7.62,0,15.22.19,22.81.27h.49v.47c0,3.25-.16,6.51-.23,9.73Zm0,0-.24-9.75c0-3.2-.19-6.37-.22-9.53l.46.47c-7.59,0-15.19.27-22.81.27l-22.81.12.86-.86,0,19.28-.77-.77c3.77,0,7.51,0,11.28.1l11.34.19Z" fill="#ebebeb"></path>
  <path d="M106.43,94.53,83.8,95l-11.47.19H60V74.38h.85l22.81.11c7.6,0,15.2.19,22.82.29H107v.45c0,3.27-.15,6.53-.22,9.73Zm0,0-.26-9.75c0-3.21-.19-6.38-.23-9.53l.49.46c-7.62,0-15.22.28-22.82.28l-22.74.12.84-.86-.15,19.28-.69-.78c3.75,0,7.49,0,11.27.11l11.33.19Z" fill="#ebebeb"></path>
  <path d="M431.13,602.92l22.61-.42,11.47-.19c3.83-.08,7.69,0,11.53-.08h.78V603l.08,19.29v.86h-.86L453.93,623c-7.6,0-15.2-.19-22.82-.29h-.46v-.46c0-3.28.15-6.54.22-9.74Zm0,0,.24,9.73c0,3.22.21,6.4.24,9.55l-.48-.47c7.62-.08,15.22-.27,22.82-.29l22.81-.1-.86.86.1-19.28.76.77c-3.76,0-7.5,0-11.27-.1l-11.34-.19Z" fill="#ebebeb"></path>
  <path d="M456.58,578.6l22.63-.48,11.47-.19c3.84-.08,7.69,0,11.53-.08H503v.77l.08,19.28v.86h-.88l-22.81-.1c-7.6,0-15.2-.19-22.82-.29h-.46v-.47c0-3.27.15-6.53.22-9.73Zm0,0,.26,9.76c0,3.2.19,6.37.22,9.53l-.48-.47c7.62-.09,15.22-.28,22.82-.29l22.81-.11-.84.87.08-19.29.76.78c-3.76,0-7.5,0-11.27-.1l-11.34-.19Z" fill="#ebebeb"></path>
  <rect x="670.46" y="124.61" width="84.14" height="146.86" fill="#ebebeb"></rect>
  <rect x="677.64" y="132.38" width="69.77" height="131.3" fill="#fff"></rect>
  <rect x="754.61" y="124.61" width="3.89" height="146.86" fill="#dbdbdb"></rect>
  <rect x="696.42" y="157.77" width="32.22" height="80.52" fill="#dbdbdb"></rect>
  <rect x="703.19" y="312" width="84.14" height="89.65" fill="#ebebeb"></rect>
  <rect x="710.38" y="319.77" width="69.77" height="74.11" fill="#fff"></rect>
  <rect x="787.33" y="312" width="3.89" height="89.65" fill="#dbdbdb"></rect>
  <rect x="729.16" y="345.16" width="32.22" height="23.33" fill="#dbdbdb"></rect>
  <path d="M771.69,345.16a10.34,10.34,0,1,1-10.34-10.34A10.33,10.33,0,0,1,771.69,345.16Z" fill="#ebebeb"></path>
  <circle cx="138.39" cy="130.27" r="45.4" fill="#ebebeb"></circle>
  <circle cx="140.47" cy="131.27" r="43.32" fill="#dbdbdb"></circle>
  <circle cx="140.47" cy="131.27" r="40.58" fill="#fff"></circle>
  <g opacity="0.5" style="isolation:isolate">
    <path d="M180.14,122.67c-18.49,11.15-48.87,29.55-65.86,39.63a40.6,40.6,0,0,1-11.08-14.92l56.16-52A40.59,40.59,0,0,1,180.14,122.67Z" fill="#ebebeb"></path>
  </g>
  <g opacity="0.5" style="isolation:isolate">
    <path d="M181,132.7a40.51,40.51,0,0,1-2.67,13.18l-50.63,23.93a39.53,39.53,0,0,1-6.39-2.74C136.68,158.23,164.56,142.16,181,132.7Z" fill="#ebebeb"></path>
  </g>
  <rect x="140.08" y="93.63" width="0.78" height="6.15" fill="#c7c7c7"></rect>
  <rect x="122.79" y="98.26" width="0.79" height="6.15" transform="translate(-34.16 75.17) rotate(-30)" fill="#c7c7c7"></rect>
  <rect x="110.14" y="110.9" width="0.79" height="6.15" transform="translate(-43.43 152.72) rotate(-60)" fill="#c7c7c7"></rect>
  <rect x="102.84" y="130.89" width="6.15" height="0.79" fill="#c7c7c7"></rect>
  <rect x="107.47" y="148.18" width="6.15" height="0.79" transform="translate(-59.48 75.18) rotate(-30)" fill="#c7c7c7"></rect>
  <rect x="120.12" y="160.82" width="6.15" height="0.79" transform="translate(-78.01 187.4) rotate(-60.03)" fill="#c7c7c7"></rect>
  <rect x="140.08" y="162.76" width="0.78" height="6.15" fill="#c7c7c7"></rect>
  <rect x="157.36" y="158.11" width="0.79" height="6.15" transform="translate(-59.46 100.47) rotate(-30)" fill="#c7c7c7"></rect>
  <rect x="170.01" y="145.45" width="0.79" height="6.15" transform="translate(-43.43 221.84) rotate(-60)" fill="#c7c7c7"></rect>
  <rect x="171.96" y="130.89" width="6.15" height="0.79" fill="#c7c7c7"></rect>
  <rect x="167.32" y="113.59" width="6.15" height="0.79" transform="matrix(0.87, -0.5, 0.5, 0.87, -34.17, 100.51)" fill="#c7c7c7"></rect>
  <rect x="154.69" y="100.97" width="6.15" height="0.79" transform="translate(-8.87 187.37) rotate(-60.02)" fill="#c7c7c7"></rect>
  <polygon points="139.89 166.12 138.54 128.54 142.39 128.58 140.92 166.14 139.89 166.12" fill="#c7c7c7"></polygon>
  <polygon points="116.47 144.38 141.75 128.23 143.59 131.63 116.97 145.31 116.47 144.38" fill="#a6a6a6"></polygon>
  <circle cx="140.48" cy="131.26" r="1.31" fill="#c7c7c7"></circle>
  <rect x="228.72" y="84.86" width="190.96" height="377.98" fill="#dbdbdb"></rect>
  <rect x="241.62" y="98.8" width="76.61" height="109.97" fill="#fff"></rect>
  <rect x="330.16" y="98.8" width="76.61" height="109.97" fill="#fff"></rect>
  <rect x="241.62" y="218.87" width="76.61" height="109.97" fill="#fff"></rect>
  <rect x="330.16" y="218.87" width="76.61" height="109.97" fill="#fff"></rect>
  <rect x="241.62" y="338.94" width="76.61" height="109.97" fill="#fff"></rect>
  <rect x="330.16" y="338.94" width="76.61" height="109.97" fill="#fff"></rect>
  <rect x="446.45" y="84.86" width="190.96" height="377.98" fill="#dbdbdb"></rect>
  <rect x="459.36" y="98.8" width="76.61" height="109.97" fill="#fff"></rect>
  <rect x="547.89" y="98.8" width="76.61" height="109.97" fill="#fff"></rect>
  <rect x="459.36" y="218.87" width="76.61" height="109.97" fill="#fff"></rect>
  <rect x="547.89" y="218.87" width="76.61" height="109.97" fill="#fff"></rect>
  <rect x="459.36" y="338.94" width="76.61" height="109.97" fill="#fff"></rect>
  <rect x="547.89" y="338.94" width="76.61" height="109.97" fill="#fff"></rect>
  <g opacity="0.5" style="isolation:isolate">
    <circle cx="586.19" cy="165.83" r="33.53" fill="#ebebeb"></circle>
  </g>
  <path d="M610.35,165.83a24.12,24.12,0,1,1-24.12-24.12A24.12,24.12,0,0,1,610.35,165.83Z" fill="#ebebeb"></path>
  <path d="M318,175.05l.26-.26v8.81H272S282.06,156,297.59,156,318,175.05,318,175.05Z" fill="#ebebeb"></path>
  <path d="M373.7,183.6H330.16v-17a17.17,17.17,0,0,1,6.89-1.72c8.61,0,16.08,13.65,16.08,13.65S365.27,171,373.7,183.6Z" fill="#ebebeb"></path>
  <g opacity="0.5" style="isolation:isolate">
    <path d="M526,251.3H478.45s10.63-15.39,18.95-15.39,10.84,10.25,10.84,10.25,5.91-4.79,11.39-3.93S526,251.3,526,251.3Z" fill="#ebebeb"></path>
  </g>
  <path d="M318.23,308.56v12.06H247.79s12.68-28.31,26.24-30.09,20.06,21,20.06,21,8.75-8.06,15.63-8.06C313.08,303.44,316.06,306,318.23,308.56Z" fill="#ebebeb"></path>
  <path d="M340.39,320.55H330.16v-8.39C334,312.28,338.19,314.11,340.39,320.55Z" fill="#ebebeb"></path>
  <path d="M536,358.39v28.07H501.61s12.66-28.31,26.24-30.09A11.72,11.72,0,0,1,536,358.39Z" fill="#ebebeb"></path>
  <path d="M594.19,386.46h-46.3v-9s8.75-8.06,15.63-8.06S575.7,380,575.7,380,589.47,372.69,594.19,386.46Z" fill="#ebebeb"></path>
  <g opacity="0.5" style="isolation:isolate">
    <path d="M614,318.38H551.44s10.73-20.51,22.4-20.8,17.78,15.51,17.78,15.51S609.82,298.55,614,318.38Z" fill="#ebebeb"></path>
  </g>
  <g opacity="0.5" style="isolation:isolate">
    <path d="M399.93,243.6H337.39s10.74-20.51,22.4-20.8,17.79,15.51,17.79,15.51S395.7,223.76,399.93,243.6Z" fill="#ebebeb"></path>
  </g>
  <polygon points="450.12 129.98 445.92 139.2 350.11 139.2 345.92 129.98 386.73 101.76 409.32 101.76 450.12 129.98" fill="#ffffff"></polygon>
  <path d="M446.24,139.7H349.79l-4.5-9.89,41.28-28.55h22.9l.13.09,41.15,28.46Zm-95.81-1h95.16l3.9-8.55-40.33-27.89H386.88l-40.33,27.9Z"></path>
  <polygon points="412.16 74.55 409.32 101.76 386.73 101.76 383.88 74.55 412.16 74.55" fill="#c7e8c9"></polygon>
  <path d="M409.77,102.26H386.28l-2.95-28.21h29.38Zm-22.59-1h21.69l2.73-26.21H384.44Z"></path>
  <g opacity="0.1" style="isolation:isolate">
    <polygon points="450.1 129.98 445.92 139.2 350.11 139.2 345.92 129.98 450.1 129.98"></polygon>
  </g>
  <polygon points="561.97 100.28 557.78 109.48 461.96 109.48 457.79 100.28 498.57 72.03 521.16 72.03 561.97 100.28" fill="#ffffff"></polygon>
  <path d="M558.1,110H461.64l-4.48-9.88.34-.24,40.92-28.33h22.9l.13.09L562.6,100.1Zm-95.82-1h95.18l3.88-8.53L521,72.53H498.73l-40.31,27.92Z"></path>
  <polygon points="524.01 44.83 521.16 72.03 498.57 72.03 495.75 44.83 524.01 44.83" fill="#c7e8c9"></polygon>
  <path d="M521.61,72.53H498.12l-2.93-28.21h29.37Zm-22.58-1h21.68l2.74-26.21H496.3Z"></path>
  <g opacity="0.1" style="isolation:isolate">
    <polygon points="561.97 100.28 557.76 109.48 461.96 109.48 457.77 100.28 561.97 100.28"></polygon>
  </g>
  <rect x="380.26" y="514.65" width="243.04" height="7.98" transform="translate(1020.42 16.86) rotate(90)" fill="#fff"></rect>
  <path d="M506.27,640.66h-9v-244h9Zm-8-1h7v-242h-7Z"></path>
  <path d="M280.58,654.87l-17.09-25.42L234,607.82a27.31,27.31,0,0,0-3.85,6.46,32.13,32.13,0,0,1-2.35,4.41c-1.1,1.8-1.83,4.68-.86,9.22a23,23,0,0,1-.94,6.92l-3.37,7.3,3.3,1.69,7.57-13.43.5.41,44.73,26.08A1.41,1.41,0,0,0,280.58,654.87Z" fill="#c7e8c9"></path>
  <path d="M279.42,657.58a2,2,0,0,1-1-.27l-44.72-26.08-.1-.08-7.52,13.33L222,642.36l3.57-7.74a23.13,23.13,0,0,0,.89-6.68c-.84-3.9-.53-7.13.93-9.51a31.79,31.79,0,0,0,2.32-4.34,27.19,27.19,0,0,1,3.93-6.59l.3-.36,30,22L281,654.59a1.89,1.89,0,0,1-.19,2.38A1.91,1.91,0,0,1,279.42,657.58Zm-46.1-28,.65.53.3.24L279,656.45a.88.88,0,0,0,1.13-.17.87.87,0,0,0,.09-1.13L263.12,629.8l-29.06-21.29a27.48,27.48,0,0,0-3.48,6A33.57,33.57,0,0,1,228.2,619c-1.33,2.15-1.6,5.13-.8,8.84a23.22,23.22,0,0,1-1,7.16l-3.19,6.95,2.44,1.24Z"></path>
  <path d="M517.37,621.13l-34.61.79-32.38,12.55a13.83,13.83,0,0,0,5.05,7,27.67,27.67,0,0,1,3.31,3c1.65,1.68,4.48,3.48,9.24,4a15,15,0,0,1,1.81.65,21.69,21.69,0,0,1,6.34,4.2l4,3.74,2.64-2.59-10.14-11.77.65-.27,44.41-19.93A.73.73,0,0,0,517.37,621.13Z" fill="#c7e8c9"></path>
  <path d="M480.12,657.78l-4.33-4.08a20.81,20.81,0,0,0-6.19-4.09,13,13,0,0,0-1.74-.63c-5-.56-7.92-2.56-9.47-4.14a26,26,0,0,0-3.26-3,14.38,14.38,0,0,1-5.24-7.3l-.11-.43,33-12.74,34.6-.79a1.24,1.24,0,0,1,1.23,1,1.2,1.2,0,0,1-.69,1.39L473.47,642.9l0,0,10,11.6Zm-29.12-23a13.7,13.7,0,0,0,4.72,6.32,27.31,27.31,0,0,1,3.38,3c1.44,1.47,4.16,3.33,8.94,3.87a13.3,13.3,0,0,1,1.95.68,22.12,22.12,0,0,1,6.49,4.29l3.63,3.42,2-1.93-10.28-11.94.81-.33.46-.2,44.42-19.92a.22.22,0,0,0,.13-.26.21.21,0,0,0-.23-.18l-34.52.79Z"></path>
  <rect x="214.19" y="522.41" width="67.71" height="5.93"></rect>
  <rect x="188.64" y="457.18" width="118.51" height="15.51" rx="5.68"></rect>
  <rect x="207.8" y="472.69" width="6.39" height="167.47" fill="#fff"></rect>
  <path d="M214.69,640.66H207.3V472.19h7.39Zm-6.39-1h5.39V473.19H208.3Z"></path>
  <rect x="281.89" y="472.69" width="6.39" height="167.47" fill="#fff"></rect>
  <path d="M288.78,640.66h-7.39V472.19h7.39Zm-6.39-1h5.39V473.19h-5.39Z"></path>
  <path d="M304.57,336.22S307,369.51,341,372.71l31.22,1.75-4.66,9.27-46.1,5.4-45.49-2s-4.61-26.55-1.78-49.88Z" fill="#fff"></path>
  <path d="M321.49,389.63l-46-2-.07-.39c-.05-.27-4.59-26.9-1.79-50l.06-.42L305,335.7l0,.48c0,.33,2.79,32.91,35.95,36l32,1.8-5.12,10.18-.27,0Zm-45.12-3,45.08,2,45.76-5.37,4.19-8.34-30.46-1.72c-31.79-3-36.34-32.34-36.82-36.47l-29.51,1C272.1,359.08,275.82,383.28,276.37,386.65Z"></path>
  <rect x="38.34" y="514.65" width="243.04" height="7.98" transform="translate(678.5 358.77) rotate(90)" fill="#fff"></rect>
  <path d="M164.36,640.66h-9v-244h9Zm-8-1h7v-242h-7Z"></path>
  <path d="M321.43,389.13v-5.4h46.1l30.33-60.34H502a3.3,3.3,0,0,1,2.79,5.05L470.57,382.8v6.33Z" fill="#c7e8c9"></path>
  <path d="M471.07,389.63H320.93v-6.4h46.29l30.33-60.34H502a3.8,3.8,0,0,1,3.21,5.82l-34.18,54.23Zm-149.14-1H470.07v-6l.08-.12,34.25-54.36a2.78,2.78,0,0,0-2.36-4.28H398.16l-30.32,60.34H321.93Z"></path>
  <path d="M379.29,379a.59.59,0,0,1-.22-.05.5.5,0,0,1-.23-.67l22.9-47a.52.52,0,0,1,.67-.23.51.51,0,0,1,.23.67l-22.9,47A.51.51,0,0,1,379.29,379Z"></path>
  <path d="M175.73,324.18c8.13,1.48,23.12,5.55,32.84,16.21,0,0-13.9,32-13.45,48.74h81.15s-5.56-31.93-2.11-51.88l32.14-1.09a.62.62,0,0,0,.56-.83l-14.45-39.1s-3.53-23.26-26.68-25.11c0,0-1.3,11.74-10.07,9.35,0,0-5.1-.37-15-13.83,0,0-3.91,30.12-15.09,21.22,0,0-.92-.4-3.75-4.25,0,0-7.18-14.62-19.85-5.37,0,0-9.31,4.61-29.07,39.9A4.1,4.1,0,0,0,175.73,324.18Z" fill="#c7e8c9"></path>
  <path d="M276.86,389.63H194.63v-.48c-.42-15.77,12-45.36,13.36-48.66-9.63-10.39-24.37-14.36-32.34-15.82a4.58,4.58,0,0,1-3.17-6.77c19.61-35,28.89-39.92,29.27-40.11,3.71-2.72,7.41-3.68,10.91-2.81,6.18,1.52,9.49,8.13,9.62,8.41,2.56,3.49,3.48,4,3.52,4l.09.06c1.86,1.48,3.53,1.89,5.12,1.25,6.56-2.66,9.14-22,9.16-22.14l.16-1.24.74,1c9.56,13,14.6,13.61,14.65,13.62a6.26,6.26,0,0,0,5.38-.63c3.44-2.34,4.14-8.21,4.14-8.27l.06-.49.48,0c22.73,1.82,26.91,24.22,27.12,25.48l14.44,39.06a1.11,1.11,0,0,1-1,1.5l-31.73,1.08c-3.26,19.66,2.11,51,2.17,51.31Zm-81.25-1h80.07c-.73-4.45-5.18-33.14-2-51.46l.07-.41,32.54-1.1a.14.14,0,0,0,.1-.05.13.13,0,0,0,0-.11l-14.48-39.2c0-.22-3.7-22.57-25.75-24.64-.25,1.54-1.26,6.29-4.51,8.5a7.1,7.1,0,0,1-6.12.79h0c-.12,0-5.11-.51-14.55-13-.69,4.4-3.45,19.24-9.61,21.73-1.91.78-4,.32-6.07-1.36-.32-.18-1.39-1-3.88-4.38-.08-.14-3.29-6.54-9-7.95-3.2-.79-6.62.11-10.15,2.69-.16.09-9.55,5.14-28.92,39.75a3.59,3.59,0,0,0,2.48,5.3h0c8.15,1.48,23.29,5.58,33.12,16.36l.22.24-.13.3C208.89,340.91,195.44,372.09,195.61,388.63Z"></path>
  <path d="M208.57,340.89a.47.47,0,0,1-.3-.1.5.5,0,0,1-.1-.7l15.47-20.4a.51.51,0,0,1,.7-.1.5.5,0,0,1,.09.7L209,340.69A.51.51,0,0,1,208.57,340.89Z"></path>
  <path d="M232.56,370h-.08a.51.51,0,0,1-.42-.57c7.73-51.92-6.79-81.08-6.93-81.37a.49.49,0,0,1,.21-.67.51.51,0,0,1,.68.22c.14.29,14.81,29.73,7,82A.5.5,0,0,1,232.56,370Z" fill="#ffffff"></path>
  <path d="M273.57,366.88a.5.5,0,0,1-.5-.47c0-.09-.67-9.57-.34-18.87a56,56,0,0,1,2.9-15.75c4.28-12.81,12.29-44.25-5.71-59.62a.49.49,0,0,1-.06-.7.52.52,0,0,1,.71-.06c18.47,15.76,10.35,47.7,6,60.69a54.83,54.83,0,0,0-2.85,15.48c-.33,9.24.33,18.67.34,18.76a.51.51,0,0,1-.47.54Z" fill="#ffffff"></path>
  <path d="M291.51,350.93h40.2a2.75,2.75,0,0,1,2.76,2.63c.31,7,.59,26.23-4.85,35.57H292.41Z" fill="#ffffff"></path>
  <path d="M329.91,389.63h-38l-.92-39.2h40.71a3.24,3.24,0,0,1,3.26,3.11c.34,7.66.53,26.49-4.92,35.84Zm-37-1h36.43c5.16-9.21,5-27.54,4.64-35.05a2.24,2.24,0,0,0-2.26-2.15H292Z"></path>
  <path d="M292.06,375h-1.78a10.26,10.26,0,0,1,0-20.51h1.33a.5.5,0,0,1,0,1h-1.33a9.26,9.26,0,0,0,0,18.51h1.78a.5.5,0,0,1,.5.5A.5.5,0,0,1,292.06,375Z"></path>
  <path d="M204.15,397.12s-33,61.22,76.61,81.45a4.53,4.53,0,0,1,3.38,6.17L258,548s48.36,70.25,177.91,1.82l-45.15-84.85s-15.28-30.44-45.63-47L310,397.12Z" fill="#ffffff"></path>
  <path d="M333.35,580.15A115.44,115.44,0,0,1,298.2,575c-28.12-9-40.51-26.59-40.63-26.77l-.16-.22.11-.25,26.16-63.22a4,4,0,0,0-3-5.49c-41.52-7.66-67.58-22-77.45-42.61-9.7-20.25.39-39.38.49-39.57l.14-.26H310.12l.12.07,35.13,20.83c30.12,16.42,45.66,46.88,45.82,47.19L436.57,550l-.44.24C393,573,359,580.15,333.35,580.15Zm-74.8-32.26c1.51,2,13.89,17.88,40,26.19,25.64,8.15,70.15,10.5,136.64-24.5L390.3,465.17c-.16-.32-15.57-30.51-45.43-46.79l-35-20.76H204.46c-1.16,2.34-9.21,19.91-.34,38.41,9.74,20.3,35.55,34.45,76.73,42a5,5,0,0,1,3.75,6.87Z"></path>
  <path d="M258,548l-24,59.86a13.84,13.84,0,0,0-.63,8.75c1.62,5.89,8,13.37,30.15,12.88,0,0-9.19-10.28-3.25-26l19.92-36.89A71.27,71.27,0,0,1,258,548Z" fill="#fff"></path>
  <path d="M261.42,630c-20.52,0-26.88-7.15-28.56-13.27a14.39,14.39,0,0,1,.65-9.07L257.84,547l.53.68a71.58,71.58,0,0,0,22,18.51l.47.22-20.17,37.35c-5.73,15.14,3.09,25.28,3.18,25.38l.72.81-1.08,0Zm-3.29-81L234.44,608a13.31,13.31,0,0,0-.61,8.43c1.61,5.88,7.92,12.75,28.65,12.52-2-2.77-7.74-12.36-2.71-25.64l19.71-36.5A73.65,73.65,0,0,1,258.13,548.94Z"></path>
  <path d="M402.73,565.09l47.65,69.38s5,8.16,16.63,4.08c0,0,7.58-1.75,15.75-16.63a24.88,24.88,0,0,1-12.61-3.58A27,27,0,0,1,460.32,608l-30.45-55.1S414.86,560.68,402.73,565.09Z" fill="#fff"></path>
  <path d="M460.83,640.19A13.08,13.08,0,0,1,450,634.73l-48-69.89.6-.22c12-4.35,26.93-12.09,27.08-12.17l.43-.22,30.69,55.53a26.52,26.52,0,0,0,9.64,10.15,24.57,24.57,0,0,0,12.33,3.51l.9,0-.43.78C475,637.07,467.44,639,467.12,639A19.09,19.09,0,0,1,460.83,640.19Zm-57.32-74.85,47.28,68.84c.21.35,4.92,7.79,16,3.9.12,0,7.29-1.88,15.07-15.66a26.32,26.32,0,0,1-12-3.65,27.38,27.38,0,0,1-10-10.52l-30.22-54.69A279.72,279.72,0,0,1,403.51,565.34Z"></path>
  <rect x="251.16" y="197.69" width="46.01" height="64.73" rx="23" transform="translate(80.25 -70.76) rotate(17.19)" fill="#fff"></rect>
  <path d="M271.42,262.51a23.55,23.55,0,0,1-7-1.07h0A23.49,23.49,0,0,1,248.94,232l5.53-17.88a23.5,23.5,0,1,1,44.91,13.89l-5.53,17.89a23.56,23.56,0,0,1-22.43,16.57Zm5.52-63.91a22.54,22.54,0,0,0-21.51,15.86l-5.53,17.88a22.5,22.5,0,0,0,14.84,28.15h0a22.49,22.49,0,0,0,28.15-14.85l5.54-17.88a22.52,22.52,0,0,0-21.49-29.16Z"></path>
  <path d="M272.68,203.65s5.42,16.53-8.75,26.4l-15.54,9.38a81.65,81.65,0,0,0-6.11,15.06,27.08,27.08,0,0,0-.76,4.67c-.67,7.94-4,37.21-16,28.7a13.67,13.67,0,0,1-3.75-4.25,21.84,21.84,0,0,0-5-5.95,11.57,11.57,0,0,0-14.83.58c-3.88,3.45-10.87,7.76-14.92-1.29,0,0-7-13,1.54-20.84a13.5,13.5,0,0,1,9.24-3.35c4.84,0,14-1.54,18.14-12.41l11.43-30.87s12.78-35,56.26-24.22c0,0,20.61,5.16,17.93,20,0,0,8.32,7.62.24,20.4,0,0-.17.37-.45,1.06A39.59,39.59,0,0,0,302.66,259c4.68,9.55,10.52,28.41-10.25,37.24,0,0-4.71-24-26.68-25.11l1.15-9.57s18,4.41,26.49-15.76l5.53-17.88a21.93,21.93,0,0,0-2.48-19S283.66,213.06,272.68,203.65Z"></path>
  <path d="M248.41,240a.14.14,0,0,0-.26-.06c-.69,1.47-2.86,6.28-5.87,14.56h0s-1.19,9.39-1.62,12.15c0,0,19.24,28.69,25.07,4.48l1.15-9.57S249.35,258,248.41,240Z" fill="#fff"></path>
  <path d="M257.86,281.33c-7.86,0-17.2-13.79-17.62-14.41l-.11-.16,0-.2c.44-2.76,1.62-12.05,1.63-12.13l0-.11c3-8.19,5.11-12.94,5.89-14.61a.64.64,0,0,1,.69-.35.65.65,0,0,1,.52.61h0c.91,17.44,17.9,21,18.07,21.09l.45.09-1.2,10c-1.46,6.09-3.9,9.45-7.26,10.05A6,6,0,0,1,257.86,281.33Zm-16.68-14.81c1.13,1.63,10.61,15,17.61,13.73,2.93-.53,5.1-3.64,6.45-9.25l1.09-9.07c-2.71-.7-16.72-5.08-18.31-20.51-1,2.19-2.86,6.59-5.25,13.19C242.67,255.43,241.62,263.66,241.18,266.52Zm6.74-26.5Z"></path>
  <path d="M266.88,261.55l-1.15,9.57s-14.79-5.88-14-20.05A23.57,23.57,0,0,0,266.88,261.55Z"></path>
  <circle cx="252.81" cy="229.19" r="11.15" fill="#fff"></circle>
  <path d="M252.81,240.84a11.65,11.65,0,1,1,11.66-11.65A11.66,11.66,0,0,1,252.81,240.84Zm0-22.3a10.65,10.65,0,1,0,10.66,10.65A10.67,10.67,0,0,0,252.81,218.54Z"></path>
  <path d="M179.37,324.94s-14.29,31.35-21.24,51.76c0,0-4.48,9.62,9.42,12.43H290.39s5.16-.32,3.59-5.92a5.33,5.33,0,0,0,1.79-7.63s4.61-2.07,1.89-10.52a2.33,2.33,0,0,0-3.15-1.44c-3.82,1.7-11.3,4.59-12,1.43,0,0-1.34-.9,2.92-5.61l3.32-2.48a.85.85,0,0,0-.12-1.44c-1.79-.89-5.77-1.44-11.27,6.17,0,0-7.34,9.19-23.62,7.84H198.28s6-20.85,10.29-29.14C208.57,340.39,197,327.64,179.37,324.94Z" fill="#fff"></path>
  <path d="M167.55,389.63c-5.06-1-8.32-3-9.77-5.87a8.89,8.89,0,0,1-.1-7.27c6.85-20.15,21.09-51.45,21.24-51.76l.15-.35.38.06c17.62,2.7,29.37,15.48,29.49,15.61l.23.26-.16.31C205.24,348,200,365.46,199,369h54.82c15.85,1.32,23.15-7.57,23.23-7.66,5.65-7.81,9.87-7.3,11.88-6.3a1.33,1.33,0,0,1,.74,1.08,1.36,1.36,0,0,1-.54,1.21l-3.32,2.48c-3.43,3.8-2.89,4.83-2.88,4.84l.17.11,0,.16a1.06,1.06,0,0,0,.59.76c1.47.75,5.37-.17,10.68-2.54a2.79,2.79,0,0,1,2.28,0,2.86,2.86,0,0,1,1.56,1.74c2.32,7.23-.51,10-1.7,10.86a5.77,5.77,0,0,1,.61,4.23,6.35,6.35,0,0,1-2.5,3.43,4.54,4.54,0,0,1-4.13,6.2Zm12.12-64.14c-1.58,3.49-14.6,32.37-21.07,51.38a8.11,8.11,0,0,0,.07,6.45c1.32,2.59,4.34,4.38,9,5.32H290.39a4.19,4.19,0,0,0,2.82-1.49,4.37,4.37,0,0,0,.28-3.8l-.1-.37.34-.2a5.52,5.52,0,0,0,2.36-3,5.06,5.06,0,0,0-.75-3.9l-.29-.48.51-.23c.17-.08,4.16-2,1.62-9.92a1.88,1.88,0,0,0-1-1.13,1.77,1.77,0,0,0-1.46,0c-4,1.79-9.28,3.67-11.54,2.52a2.05,2.05,0,0,1-1.08-1.3,1.16,1.16,0,0,1-.23-.61c-.15-1.17.94-3.05,3.23-5.58l3.39-2.55a.33.33,0,0,0,.14-.32.31.31,0,0,0-.18-.27c-1.73-.86-5.41-1.23-10.65,6-.09.11-7.7,9.41-24.06,8H197.62l.18-.64c.06-.2,5.94-20.47,10.16-28.91C206.25,338.71,195.38,328,179.67,325.49Z"></path>
  <path d="M295.77,376.08H283a.5.5,0,0,1-.5-.5.51.51,0,0,1,.5-.5h12.82a.5.5,0,0,1,.5.5A.5.5,0,0,1,295.77,376.08Z"></path>
  <path d="M294,383.71H283a.51.51,0,0,1-.5-.5.5.5,0,0,1,.5-.5h11a.5.5,0,0,1,.5.5A.51.51,0,0,1,294,383.71Z"></path>
  <rect x="129.7" y="389.13" width="396.28" height="7.98"></rect>
  <rect x="163.86" y="489.55" width="333.93" height="7.98" transform="translate(661.64 987.09) rotate(180)"></rect>
  <path d="M398,74.85a.5.5,0,0,1-.5-.5V-.24a.5.5,0,0,1,.5-.5.5.5,0,0,1,.5.5V74.35A.5.5,0,0,1,398,74.85Z"></path>
  <path d="M509.88,45.32a.5.5,0,0,1-.5-.5V-.24a.5.5,0,0,1,.5-.5.51.51,0,0,1,.5.5V44.82A.5.5,0,0,1,509.88,45.32Z"></path>
  <path d="M303,349.2a.52.52,0,0,1-.33-.12.51.51,0,0,1,0-.71c.14-.15,3.22-3.84-.07-10.17,0-.07-3.21-6.59,1.75-9.46a.5.5,0,1,1,.5.86c-4.14,2.41-1.47,7.91-1.35,8.15,3.6,7,.08,11.11-.07,11.28A.52.52,0,0,1,303,349.2Z"></path>
  <path d="M311.27,349.2a.49.49,0,0,1-.32-.12.51.51,0,0,1-.05-.71c.13-.15,3.21-3.84-.07-10.17,0-.07-3.22-6.59,1.75-9.46a.5.5,0,1,1,.5.86c-4.15,2.41-1.48,7.91-1.36,8.15,3.61,7,.08,11.11-.07,11.28A.52.52,0,0,1,311.27,349.2Z"></path>
  <path d="M319.8,349.2a.54.54,0,0,1-.33-.12.52.52,0,0,1-.05-.71c.14-.15,3.22-3.84-.06-10.17,0-.07-3.22-6.59,1.74-9.46a.51.51,0,0,1,.69.18.5.5,0,0,1-.18.68c-4.15,2.41-1.48,7.91-1.36,8.15,3.61,7,.08,11.11-.07,11.28A.52.52,0,0,1,319.8,349.2Z"></path>
  <path d="M568.37,467.16s45.93-13.69,81.25,39.3h4.86S626.66,432.27,568.37,467.16Z" fill="#c7e8c9"></path>
  <path d="M655.2,507h-5.85l-.14-.23c-18.14-27.2-39.11-36.38-53.51-39.29-15.6-3.16-27.07.16-27.18.2l-3.81,1.13,3.41-2c15.8-9.46,30.85-11.79,44.73-6.94,28.06,9.81,42,46.13,42.1,46.49Zm-5.31-1h3.85c-2-5-15.71-36.31-41.23-45.22-12.76-4.47-26.57-2.7-41.07,5.24a67,67,0,0,1,24.41.47C610.41,469.38,631.58,478.61,649.89,506Z"></path>
  <path d="M613.86,404.9s34.88,34.44,42.83,101.56h7.06S660.66,428.3,613.86,404.9Z" fill="#c7e8c9"></path>
  <path d="M664.27,507h-8l0-.45c-7.83-66.15-42.34-100.91-42.69-101.26l-2.23-2.2,2.81,1.4c24.34,12.17,36.68,39.27,42.75,59.86a195.14,195.14,0,0,1,7.42,42.13Zm-7.14-1h6.1c-.39-6.71-5.38-75.79-47-99.25C623.73,415.27,650.27,449,657.13,506Z"></path>
  <path d="M666.81,506.46s12-62.71,55.67-81.69c0,0-32.24,26.05-44.16,81.69Z" fill="#c7e8c9"></path>
  <path d="M678.73,507H666.21l.11-.6c.12-.63,12.51-63.18,56-82.05l3.37-1.47-2.86,2.32c-.32.26-32.23,26.6-44,81.4Zm-11.3-1h10.49c9.94-45.92,34-71.91,41.76-79.34C681.32,445.7,668.77,499.68,667.43,506Z"></path>
  <path d="M687.15,506.46s23.85-37.09,76-32.24c0,0-44.65-31.65-84.78,32.24Z" fill="#c7e8c9"></path>
  <path d="M687.15,507h-9.73l.48-.77c14.15-22.53,30.42-35.77,48.36-39.35a51.86,51.86,0,0,1,37.13,7l1.52,1.08-1.85-.17c-51.19-4.78-75.25,31.64-75.48,32l-.15.23Zm-7.92-1h7.66c2.12-3.1,25.92-35.9,74.18-32.41a51.1,51.1,0,0,0-34.64-5.72C709,471.31,693.11,484.14,679.23,506Z"></path>
  <path d="M659.78,506.46s3.09-60.94,32.23-104.65c0,0-15,59.61-19.87,104.65Z" fill="#c7e8c9"></path>
  <path d="M672.59,507H659.25l0-.53c0-.61,3.43-61.57,32.32-104.9l1.6-2.41-.7,2.81c-.15.59-15.06,60.09-19.86,104.58Zm-12.28-1h11.38c4.25-38.9,16.11-89,19.13-101.41C665,445.29,660.7,500,660.31,506Z"></path>
  <path d="M633.28,506.46H700.4S700,574.9,681,623.47H652.71S632,575.78,633.28,506.46Z" fill="#ffffff"></path>
  <path d="M681.31,624H652.38l-.13-.3c-.2-.48-20.78-48.58-19.47-117.22V506H700.9v.5c0,.68-.66,69.09-19.46,117.19ZM653,623h27.59c17.77-45.73,19.17-109.69,19.27-116H633.78C632.62,572.29,651.31,618.8,653,623Z"></path>
  <circle cx="278.25" cy="227.06" r="2.18"></circle>
  <circle cx="292.45" cy="227.93" r="2.18"></circle>
  <path d="M283.81,218.59a.52.52,0,0,1-.4-.21,7.41,7.41,0,0,0-9.38-2.75.49.49,0,0,1-.67-.23.5.5,0,0,1,.22-.67,8.53,8.53,0,0,1,10.64,3.06.51.51,0,0,1-.11.7A.54.54,0,0,1,283.81,218.59Z"></path>
  <path d="M299.63,218.59a.49.49,0,0,1-.35-.15c-2.37-2.37-6.71-1.69-6.75-1.68a.5.5,0,0,1-.16-1c.2,0,4.88-.78,7.62,1.95a.51.51,0,0,1,0,.71A.51.51,0,0,1,299.63,218.59Z"></path>
  <path d="M287.37,241.51a.5.5,0,0,1-.21-1l2.54-1.13-2.82-13.57a.5.5,0,1,1,1-.2l2.91,14a.49.49,0,0,1-.29.56l-2.9,1.29A.53.53,0,0,1,287.37,241.51Z"></path>
  <path d="M280.83,247.41a7.52,7.52,0,0,1-4.15-1.15,8.32,8.32,0,0,1-3.37-5.17.5.5,0,0,1,1-.17,7.36,7.36,0,0,0,2.93,4.5c1.65,1.07,3.83,1.27,6.46.59a.5.5,0,0,1,.25,1A12.75,12.75,0,0,1,280.83,247.41Z"></path>
  <path d="M258.31,230.61h-.05l-8.71-.87a.5.5,0,0,1-.45-.55.49.49,0,0,1,.55-.44l8.71.86a.5.5,0,0,1-.05,1Z"></path>
</svg>
