<?xml version="1.0" encoding="UTF-8"?>
<svg xmlns="http://www.w3.org/2000/svg" id="a" width="865.76" height="682.89" viewBox="0 0 865.76 682.89">
  <g>
    <g>
      <rect x="303.7" y="35.06" width="306.63" height="589.64" rx="27.32" ry="27.32" fill="#002346"></rect>
      <path d="M583.01,625.19h-252c-15.34,0-27.82-12.48-27.82-27.82V62.37c0-15.34,12.48-27.82,27.82-27.82h252c15.34,0,27.82,12.48,27.82,27.82V597.38c0,15.34-12.48,27.82-27.82,27.82ZM331.01,35.56c-14.79,0-26.82,12.03-26.82,26.82V597.38c0,14.79,12.03,26.82,26.82,26.82h252c14.79,0,26.82-12.03,26.82-26.82V62.37c0-14.79-12.03-26.82-26.82-26.82h-252Z" fill="#002346"></path>
    </g>
    <g>
      <path d="M576.68,42.34h-104.1c-2.08,6.51-8.17,11.22-15.37,11.22s-13.29-4.71-15.37-11.22h-104.49c-14.45,0-26.17,11.71-26.17,26.17V584.95c0,14.45,11.71,26.17,26.17,26.17h239.34c14.45,0,26.17-11.71,26.17-26.17V68.5c0-14.45-11.71-26.17-26.17-26.17Z" fill="#fff"></path>
      <path d="M576.68,611.61h-239.34c-14.7,0-26.67-11.96-26.67-26.67V68.5c0-14.7,11.96-26.67,26.67-26.67h104.86l.11,.35c2.08,6.5,8.07,10.87,14.9,10.87s12.82-4.37,14.9-10.87l.11-.35h104.47c14.7,0,26.67,11.96,26.67,26.67V584.95c0,14.7-11.96,26.67-26.67,26.67ZM337.34,42.84c-14.15,0-25.67,11.51-25.67,25.67V584.95c0,14.15,11.51,25.67,25.67,25.67h239.34c14.15,0,25.67-11.51,25.67-25.67V68.5c0-14.15-11.51-25.67-25.67-25.67h-103.74c-2.31,6.73-8.59,11.22-15.73,11.22s-13.42-4.49-15.73-11.22h-104.13Z" fill="#002346"></path>
    </g>
    <g>
      <rect x="352.51" y="168.1" width="208.62" height="29.52" fill="#ffffff"></rect>
      <path d="M561.62,198.12h-209.62v-30.52h209.62v30.52Zm-208.62-1h207.62v-28.52h-207.62v28.52Z" fill="#002346"></path>
    </g>
    <g>
      <rect x="367.86" y="176.76" width="177.13" height="11.41" fill="#fff"></rect>
      <path d="M545.48,188.67h-178.13v-12.42h178.13v12.42Zm-177.13-1h176.13v-10.42h-176.13v10.42Z" fill="#002346"></path>
    </g>
    <g>
      <path d="M520.58,205.1v249.36c0,34.46-27.93,62.39-62.39,62.39h-14.37v-162.31c0-33.18-26.9-60.08-60.08-60.08h-27.3v-90.19c0-12.14,9.84-21.99,21.99-21.99h157.54s-15.79,3.15-15.39,22.83Z" fill="#f1f2f2"></path>
      <path d="M458.19,517.34h-14.87v-162.81c0-32.85-26.73-59.58-59.58-59.58h-27.8v-90.69c0-12.4,10.09-22.49,22.49-22.49h157.54l.1,.99c-.63,.13-15.37,3.32-14.99,22.33v249.37c0,34.68-28.21,62.89-62.89,62.89Zm-13.87-1h13.87c34.13,0,61.89-27.76,61.89-61.89V205.1c-.29-14.59,8.27-20.31,12.91-22.34h-154.56c-11.85,0-21.49,9.64-21.49,21.49v89.69h26.8c33.4,0,60.58,27.18,60.58,60.58v161.81Z" fill="#002346"></path>
    </g>
    <g>
      <rect x="368.64" y="213.76" width="137.77" height="16.14" rx="8.07" ry="8.07" fill="#e6e7e8"></rect>
      <path d="M498.34,230.4h-121.63c-4.73,0-8.57-3.84-8.57-8.57s3.84-8.57,8.57-8.57h121.63c4.73,0,8.57,3.84,8.57,8.57s-3.84,8.57-8.57,8.57Zm-121.63-16.14c-4.17,0-7.57,3.4-7.57,7.57s3.4,7.57,7.57,7.57h121.63c4.17,0,7.57-3.4,7.57-7.57s-3.4-7.57-7.57-7.57h-121.63Z" fill="#002346"></path>
    </g>
    <g>
      <rect x="369.04" y="244.07" width="58.65" height="6.3" rx="3.15" ry="3.15" fill="#e6e7e8"></rect>
      <path d="M424.54,250.86h-52.35c-2.01,0-3.65-1.64-3.65-3.65s1.64-3.65,3.65-3.65h52.35c2.01,0,3.65,1.64,3.65,3.65s-1.64,3.65-3.65,3.65Zm-52.35-6.3c-1.46,0-2.65,1.19-2.65,2.65s1.19,2.65,2.65,2.65h52.35c1.46,0,2.65-1.19,2.65-2.65s-1.19-2.65-2.65-2.65h-52.35Z" fill="#002346"></path>
    </g>
    <g>
      <rect x="369.04" y="258.24" width="21.65" height="6.3" rx="3.15" ry="3.15" fill="#e6e7e8"></rect>
      <path d="M387.54,265.03h-15.35c-2.01,0-3.65-1.64-3.65-3.65s1.64-3.65,3.65-3.65h15.35c2.01,0,3.65,1.64,3.65,3.65s-1.64,3.65-3.65,3.65Zm-15.35-6.3c-1.46,0-2.65,1.19-2.65,2.65s1.19,2.65,2.65,2.65h15.35c1.46,0,2.65-1.19,2.65-2.65s-1.19-2.65-2.65-2.65h-15.35Z" fill="#002346"></path>
    </g>
    <g>
      <rect x="398.56" y="258.24" width="107.85" height="6.3" rx="3.15" ry="3.15" fill="#e6e7e8"></rect>
      <path d="M503.26,265.03h-101.55c-2.01,0-3.65-1.64-3.65-3.65s1.64-3.65,3.65-3.65h101.55c2.01,0,3.65,1.64,3.65,3.65s-1.64,3.65-3.65,3.65Zm-101.55-6.3c-1.46,0-2.65,1.19-2.65,2.65s1.19,2.65,2.65,2.65h101.55c1.46,0,2.65-1.19,2.65-2.65s-1.19-2.65-2.65-2.65h-101.55Z" fill="#002346"></path>
    </g>
    <g>
      <rect x="369.04" y="272.8" width="138.16" height="6.3" rx="3.15" ry="3.15" fill="#e6e7e8"></rect>
      <path d="M504.05,279.6h-131.86c-2.01,0-3.65-1.64-3.65-3.65s1.64-3.65,3.65-3.65h131.86c2.01,0,3.65,1.64,3.65,3.65s-1.64,3.65-3.65,3.65Zm-131.86-6.3c-1.46,0-2.65,1.19-2.65,2.65s1.19,2.65,2.65,2.65h131.86c1.46,0,2.65-1.19,2.65-2.65s-1.19-2.65-2.65-2.65h-131.86Z" fill="#002346"></path>
    </g>
    <g>
      <rect x="369.04" y="286.58" width="138.16" height="6.3" rx="3.15" ry="3.15" fill="#e6e7e8"></rect>
      <path d="M504.05,293.37h-131.86c-2.01,0-3.65-1.64-3.65-3.65s1.64-3.65,3.65-3.65h131.86c2.01,0,3.65,1.64,3.65,3.65s-1.64,3.65-3.65,3.65Zm-131.86-6.3c-1.46,0-2.65,1.19-2.65,2.65s1.19,2.65,2.65,2.65h131.86c1.46,0,2.65-1.19,2.65-2.65s-1.19-2.65-2.65-2.65h-131.86Z" fill="#002346"></path>
    </g>
    <g>
      <rect x="369.04" y="301.53" width="138.16" height="6.3" rx="3.15" ry="3.15" fill="#e6e7e8"></rect>
      <path d="M504.05,308.33h-131.86c-2.01,0-3.65-1.64-3.65-3.65s1.64-3.65,3.65-3.65h131.86c2.01,0,3.65,1.64,3.65,3.65s-1.64,3.65-3.65,3.65Zm-131.86-6.3c-1.46,0-2.65,1.19-2.65,2.65s1.19,2.65,2.65,2.65h131.86c1.46,0,2.65-1.19,2.65-2.65s-1.19-2.65-2.65-2.65h-131.86Z" fill="#002346"></path>
    </g>
    <g>
      <rect x="437.92" y="244.07" width="68.88" height="6.3" rx="3.15" ry="3.15" fill="#e6e7e8"></rect>
      <path d="M503.65,250.86h-62.58c-2.01,0-3.65-1.64-3.65-3.65s1.64-3.65,3.65-3.65h62.58c2.01,0,3.65,1.64,3.65,3.65s-1.64,3.65-3.65,3.65Zm-62.58-6.3c-1.46,0-2.65,1.19-2.65,2.65s1.19,2.65,2.65,2.65h62.58c1.46,0,2.65-1.19,2.65-2.65s-1.19-2.65-2.65-2.65h-62.58Z" fill="#002346"></path>
    </g>
    <g>
      <circle cx="226.55" cy="188.96" r="62.58" fill="#002346"></circle>
      <path d="M226.55,252.04c-34.78,0-63.08-28.3-63.08-63.08s28.3-63.08,63.08-63.08,63.08,28.3,63.08,63.08-28.3,63.08-63.08,63.08Zm0-125.17c-34.23,0-62.08,27.85-62.08,62.08s27.85,62.08,62.08,62.08,62.08-27.85,62.08-62.08-27.85-62.08-62.08-62.08Z" fill="#002346"></path>
    </g>
    <g>
      <circle cx="222.22" cy="192.11" r="62.58" fill="#ffffff"></circle>
      <path d="M222.22,255.19c-34.79,0-63.08-28.3-63.08-63.08s28.3-63.08,63.08-63.08,63.08,28.3,63.08,63.08-28.3,63.08-63.08,63.08Zm0-125.17c-34.23,0-62.08,27.85-62.08,62.08s27.85,62.08,62.08,62.08,62.08-27.85,62.08-62.08-27.85-62.08-62.08-62.08Z" fill="#002346"></path>
    </g>
    <g>
      <polygon points="177.74 187.19 192.31 174.99 211.2 197.03 254.1 160.03 266.7 174.2 210.41 224.19 177.74 187.19" fill="#f1f2f2"></polygon>
      <path d="M210.37,224.89l-33.34-37.76,15.34-12.85,18.89,22.04,42.9-36.99,13.26,14.91-57.04,50.65Zm-31.91-37.65l32,36.24,55.54-49.32-11.94-13.43-42.91,37.01-18.9-22.05-13.79,11.56Z" fill="#002346"></path>
    </g>
    <g>
      <path d="M339.52,354.67v115.33H143.1l-.27-120.74c-.07-30.25,24.44-54.81,54.69-54.81h186.22c-48.67,9.45-44.23,60.22-44.23,60.22Z" fill="#f1f2f2"></path>
      <path d="M340.02,470.5H142.6l-.27-121.24c-.03-14.76,5.69-28.65,16.12-39.1,10.43-10.45,24.3-16.21,39.07-16.21h186.22l.1,.99c-24.91,4.84-35.5,20.79-39.99,33.33-4.88,13.61-3.85,26.23-3.83,26.36v.04s0,115.83,0,115.83Zm-196.42-1h195.42v-114.81c-.05-.62-.96-13.22,3.89-26.76,4.31-12.02,14.11-27.14,36.39-32.99H197.52c-14.5,0-28.12,5.65-38.36,15.91-10.24,10.26-15.86,23.9-15.83,38.4l.27,120.24Z" fill="#002346"></path>
    </g>
    <g>
      <path d="M443.83,354.53v162.31h-121.07c-27.58,0-50.4-20.34-54.29-46.84h71.06v-115.33s-4.44-50.78,44.23-60.22c33.18,0,60.08,26.9,60.08,60.08Z" fill="#e6e7e8"></path>
      <path d="M444.33,517.34h-121.57c-27.28,0-50.83-20.32-54.79-47.27l-.08-.57h71.13v-114.83c0-.08-1.06-12.92,3.89-26.74,4.58-12.78,15.37-29.05,40.74-33.98h.02c33.49,0,60.66,27.17,60.66,60.57v162.81Zm-175.28-46.84c4.13,26.18,27.12,45.84,53.71,45.84h120.57v-161.81c0-32.85-26.73-59.58-59.58-59.58-24.8,4.82-35.39,20.77-39.88,33.29-4.89,13.62-3.86,26.26-3.85,26.39v115.87s-70.97,0-70.97,0Z" fill="#002346"></path>
    </g>
    <g>
      <rect x="167.11" y="337.35" width="149.57" height="16.93" rx="8.46" ry="8.46" fill="#e6e7e8"></rect>
      <path d="M308.22,354.78H175.58c-4.94,0-8.96-4.02-8.96-8.96s4.02-8.96,8.96-8.96h132.65c4.94,0,8.96,4.02,8.96,8.96s-4.02,8.96-8.96,8.96Zm-132.65-16.93c-4.39,0-7.96,3.57-7.96,7.96s3.57,7.96,7.96,7.96h132.65c4.39,0,7.96-3.57,7.96-7.96s-3.57-7.96-7.96-7.96H175.58Z" fill="#002346"></path>
    </g>
    <g>
      <rect x="167.11" y="369.23" width="41.72" height="7.48" rx="3.74" ry="3.74" fill="#e6e7e8"></rect>
      <path d="M205.1,377.21h-34.24c-2.34,0-4.24-1.9-4.24-4.24s1.9-4.24,4.24-4.24h34.24c2.34,0,4.24,1.9,4.24,4.24s-1.9,4.24-4.24,4.24Zm-34.24-7.48c-1.79,0-3.24,1.45-3.24,3.24s1.45,3.24,3.24,3.24h34.24c1.79,0,3.24-1.45,3.24-3.24s-1.45-3.24-3.24-3.24h-34.24Z" fill="#002346"></path>
    </g>
    <g>
      <rect x="167.11" y="402.3" width="21.65" height="7.48" rx="3.74" ry="3.74" fill="#e6e7e8"></rect>
      <path d="M185.02,410.28h-14.17c-2.34,0-4.24-1.9-4.24-4.24s1.9-4.24,4.24-4.24h14.17c2.34,0,4.24,1.9,4.24,4.24s-1.9,4.24-4.24,4.24Zm-14.17-7.48c-1.79,0-3.24,1.45-3.24,3.24s1.45,3.24,3.24,3.24h14.17c1.79,0,3.24-1.45,3.24-3.24s-1.45-3.24-3.24-3.24h-14.17Z" fill="#002346"></path>
    </g>
    <g>
      <rect x="216.71" y="369.23" width="100.37" height="7.48" rx="3.74" ry="3.74" fill="#e6e7e8"></rect>
      <path d="M313.34,377.21h-92.89c-2.34,0-4.24-1.9-4.24-4.24s1.9-4.24,4.24-4.24h92.89c2.34,0,4.24,1.9,4.24,4.24s-1.9,4.24-4.24,4.24Zm-92.89-7.48c-1.79,0-3.24,1.45-3.24,3.24s1.45,3.24,3.24,3.24h92.89c1.79,0,3.24-1.45,3.24-3.24s-1.45-3.24-3.24-3.24h-92.89Z" fill="#002346"></path>
    </g>
    <g>
      <rect x="195.85" y="402.3" width="121.23" height="7.48" rx="3.74" ry="3.74" fill="#e6e7e8"></rect>
      <path d="M313.34,410.28h-113.75c-2.34,0-4.24-1.9-4.24-4.24s1.9-4.24,4.24-4.24h113.75c2.34,0,4.24,1.9,4.24,4.24s-1.9,4.24-4.24,4.24Zm-113.75-7.48c-1.79,0-3.24,1.45-3.24,3.24s1.45,3.24,3.24,3.24h113.75c1.79,0,3.24-1.45,3.24-3.24s-1.45-3.24-3.24-3.24h-113.75Z" fill="#002346"></path>
    </g>
    <g>
      <rect x="167.11" y="419.22" width="121.23" height="7.48" rx="3.74" ry="3.74" fill="#e6e7e8"></rect>
      <path d="M284.61,427.2h-113.75c-2.34,0-4.24-1.9-4.24-4.24s1.9-4.24,4.24-4.24h113.75c2.34,0,4.24,1.9,4.24,4.24s-1.9,4.24-4.24,4.24Zm-113.75-7.48c-1.79,0-3.24,1.45-3.24,3.24s1.45,3.24,3.24,3.24h113.75c1.79,0,3.24-1.45,3.24-3.24s-1.45-3.24-3.24-3.24h-113.75Z" fill="#002346"></path>
    </g>
    <g>
      <rect x="167.11" y="386.16" width="81.08" height="7.48" rx="3.74" ry="3.74" fill="#e6e7e8"></rect>
      <path d="M244.46,394.14h-73.61c-2.34,0-4.24-1.9-4.24-4.24s1.9-4.24,4.24-4.24h73.61c2.34,0,4.24,1.9,4.24,4.24s-1.9,4.24-4.24,4.24Zm-73.61-7.48c-1.79,0-3.24,1.45-3.24,3.24s1.45,3.24,3.24,3.24h73.61c1.79,0,3.24-1.45,3.24-3.24s-1.45-3.24-3.24-3.24h-73.61Z" fill="#002346"></path>
    </g>
    <g>
      <rect x="256.86" y="386.16" width="60.62" height="7.48" rx="3.74" ry="3.74" fill="#e6e7e8"></rect>
      <path d="M313.74,394.14h-53.14c-2.34,0-4.24-1.9-4.24-4.24s1.9-4.24,4.24-4.24h53.14c2.34,0,4.24,1.9,4.24,4.24s-1.9,4.24-4.24,4.24Zm-53.14-7.48c-1.79,0-3.24,1.45-3.24,3.24s1.45,3.24,3.24,3.24h53.14c1.79,0,3.24-1.45,3.24-3.24s-1.45-3.24-3.24-3.24h-53.14Z" fill="#002346"></path>
    </g>
    <g>
      <polygon points="600.6 318.03 599.78 429.12 700.96 427.88 688.15 328.77 685.68 315.14 667.51 309.36 627.03 307.7 600.6 318.03" fill="#ddeae0"></polygon>
      <path d="M599.27,429.63l.83-111.94,26.84-10.49,40.71,1.68,18.46,5.87,2.53,13.92,12.88,99.7-102.25,1.25Zm1.83-111.25l-.82,110.24,100.11-1.23-12.73-98.56-2.42-13.31-17.82-5.67-40.3-1.65-26.02,10.16Z" fill="#002346"></path>
    </g>
    <g>
      <path d="M628.27,191.66c-16.52,5.78-23.95,23.54-23.95,23.54l-15.44,40.3c-2.41,6.29-2.23,13.37,.85,19.37,4.77,9.3,13.77,15.91,13.77,15.91l-2.89,27.26c6.61,6.19,30.15,7.85,30.15,7.85l6.19-6.61,7.43,8.26,42.12-12.8c-1.65-11.98-7.02-24.78-7.02-24.78,19.41-11.15,22.71-30.56,22.71-30.56,5.18-16.76-3.36-39.6-8.19-50.42-1.74-3.91-4.7-7.14-8.42-9.25l-13.54-7.65-14.04-.83-22.3,.83-7.43-.41Z" fill="#ffffff"></path>
      <path d="M644.22,328.1l-7.28-8.09-5.99,6.38-.24-.02c-.97-.07-23.79-1.74-30.45-7.98l-.18-.17,2.89-27.22c-1.45-1.12-9.34-7.44-13.68-15.91-3.07-5.99-3.39-13.2-.87-19.77l15.44-40.3c.08-.19,7.72-18.04,24.25-23.83l.09-.03,7.53,.42,22.25-.83,14.2,.83,13.64,7.71c3.85,2.18,6.83,5.45,8.63,9.48,5.28,11.81,13.36,34.12,8.21,50.77-.02,.13-3.51,19.45-22.56,30.63,.92,2.29,5.41,13.78,6.89,24.5l.06,.42-42.84,13.02Zm-7.27-9.57l7.58,8.43,41.41-12.59c-1.69-11.65-6.87-24.1-6.93-24.23l-.17-.41,.38-.22c18.99-10.91,22.44-30.02,22.47-30.21,5.07-16.4-2.94-38.44-8.15-50.13-1.71-3.83-4.55-6.95-8.21-9.02l-13.43-7.59-13.93-.82-22.25,.83-7.38-.41c-16.06,5.68-23.49,23.05-23.56,23.23l-15.44,40.29c-2.42,6.31-2.12,13.22,.83,18.96,4.66,9.09,13.53,15.67,13.62,15.73l.23,.17-2.89,27.29c6.28,5.54,26.97,7.33,29.42,7.53l6.4-6.83Z" fill="#002346"></path>
    </g>
    <g>
      <path d="M665.53,185.52c-13.95,7.49-28.17,2.42-28.17,2.42l2.16-1.85c.46-.4,.71-.97,.69-1.58l-.07-2.03-.17-4.8,12.5-10.57,2.23-1.88,4.53,1.89,4.15,15.45c.12,.41,.36,1.02,.83,1.65,.47,.64,.97,1.05,1.33,1.29Z" fill="#f2b3c1"></path>
      <path d="M648.73,190.09c-6.68,0-11.45-1.65-11.53-1.68l-.81-.29,2.82-2.42c.34-.3,.53-.73,.52-1.18l-.25-7.07,15.15-12.81,5.04,2.1,4.21,15.69c.16,.52,.42,1.04,.75,1.49,.34,.46,.75,.86,1.21,1.18l.68,.46-.72,.39c-5.98,3.21-12.05,4.13-17.04,4.13Zm-10.35-2.36c3.18,.9,14.79,3.51,26.24-2.3-.3-.27-.57-.58-.82-.91-.4-.55-.71-1.15-.9-1.8l-4.09-15.23-4.02-1.68-14.31,12.1,.23,6.58c.03,.75-.29,1.47-.87,1.97l-1.48,1.26Z" fill="#002346"></path>
    </g>
    <g>
      <path d="M637.36,187.94l-9.09,3.72,9.09,23.13,17.34,14.04,17.34-36.75-6.52-6.55s-12.07,6.97-28.17,2.42Z" fill="#f1f2f2"></path>
      <path d="M654.88,229.62l-17.94-14.52-9.31-23.71,9.7-3.97,.17,.05c15.7,4.43,27.67-2.31,27.79-2.37l.33-.19,7.03,7.07-17.77,37.65Zm-17.11-15.14l16.75,13.56,16.92-35.86-6.01-6.04c-2.09,1.08-13.51,6.37-28.05,2.33l-8.47,3.46,8.86,22.54Z" fill="#002346"></path>
    </g>
    <g>
      <polygon points="580.78 137.56 584.91 178.44 610.52 190.01 612.99 185.05 605.56 134.67 601.43 132.19 580.78 137.56" fill="#ffffff"></polygon>
      <path d="M610.75,190.66l-26.31-11.88-4.2-41.6,21.27-5.53,4.51,2.71,7.49,50.77-2.76,5.53Zm-25.37-12.55l24.9,11.25,2.19-4.39-7.38-49.99-3.75-2.25-20.03,5.21,4.06,40.17Z" fill="#002346"></path>
    </g>
    <g>
      <path d="M642.31,554.25c-2.48,20.65-1.24,47.49-1.24,47.49-4.56,8.32-8.78,7.74-11.17,6.32-1.02-.61-1.84-1.49-2.44-2.51-3.06-5.09-9.1-5.47-9.1-5.47l.92-3.08c.21-.69,.27-1.42,.17-2.13l-15.55-120.33c-4.54-30.15-3.13-45.34-3.13-45.34l40.79-.57-3.38,21.96c-2.48,15.69-.83,23.95-.83,23.95l4.96,23.13c4.13,21.06,0,56.58,0,56.58Z" fill="#f2b3c1"></path>
      <path d="M632.81,609.4c-1.07,0-2.14-.31-3.15-.91-1.03-.62-1.94-1.54-2.62-2.68-2.88-4.8-8.65-5.22-8.7-5.23l-.63-.04,1.11-3.69c.19-.63,.24-1.27,.16-1.92l-15.55-120.33c-4.5-29.85-3.15-45.3-3.13-45.45l.04-.45,41.83-.58-3.47,22.55c-2.43,15.4-.85,23.7-.83,23.78l4.95,23.12c4.1,20.91,.05,56.38,0,56.74h0c-2.44,20.37-1.25,47.14-1.24,47.41v.14s-.06,.12-.06,.12c-2.25,4.1-4.67,6.53-7.21,7.22-.5,.14-1,.2-1.5,.2Zm-13.79-9.74c1.67,.24,6.27,1.3,8.88,5.64,.6,1,1.38,1.8,2.27,2.33,1.27,.75,2.57,.96,3.88,.6,2.24-.61,4.44-2.84,6.53-6.61-.09-2.14-1.11-27.75,1.25-47.43,.05-.44,4.07-35.7,0-56.42l-4.95-23.12c-.07-.35-1.64-8.53,.82-24.14l3.29-21.38-39.74,.56c-.18,2.73-.9,17.86,3.16,44.78l15.55,120.34c.1,.79,.04,1.57-.19,2.34l-.75,2.51Z" fill="#002346"></path>
    </g>
    <g>
      <path d="M641.9,607.52c-9.5,2.48-11.15,8.26-11.15,8.26l-7.02,14.45c-3.3,10.32-12.8,9.5-12.8,9.5l-19.82,.83c-.25-3.51,1.33-4.58,2.6-4.89,2.02-.48,3.94-1.32,5.5-2.69,5.56-4.88,10.13-13.79,12.2-18.24,.69-1.48,1.25-3.02,1.72-4.58,2.7-8.98,5.24-10.07,5.24-10.07,0,0,6.05,.38,9.1,5.47,.61,1.02,1.42,1.9,2.44,2.51,2.39,1.42,6.6,2,11.17-6.32l.83,5.78Z" fill="#ffffff"></path>
      <path d="M590.64,641.08l-.03-.48c-.29-4.02,1.75-5.12,2.99-5.41,2.13-.51,3.91-1.37,5.28-2.58,5.43-4.76,9.89-13.37,12.07-18.08,.64-1.38,1.2-2.86,1.7-4.52,2.69-8.95,5.24-10.27,5.52-10.39l.11-.05h.12c.26,.02,6.34,.46,9.5,5.72,.6,1,1.38,1.8,2.27,2.33,1.27,.75,2.57,.96,3.88,.6,2.26-.62,4.48-2.88,6.6-6.73l.72-1.32,1.1,7.71-.43,.11c-9.07,2.37-10.78,7.86-10.8,7.91l-7.05,14.53c-3.36,10.51-13.2,9.79-13.3,9.78l-20.24,.85Zm27.83-40.48c-.45,.31-2.6,2.13-4.87,9.7-.51,1.7-1.08,3.22-1.75,4.65-2.21,4.78-6.75,13.52-12.32,18.41-1.49,1.31-3.42,2.25-5.71,2.8-1.54,.36-2.3,1.67-2.24,3.88l19.33-.81c.44,.03,9.21,.66,12.35-9.15l7.05-14.52c.04-.16,1.76-5.83,11.04-8.41l-.56-3.91c-2.04,3.34-4.22,5.34-6.48,5.96-1.55,.42-3.16,.18-4.65-.71-1.03-.61-1.94-1.54-2.62-2.68-2.62-4.37-7.65-5.11-8.56-5.21Z" fill="#002346"></path>
    </g>
    <g>
      <path d="M639.63,641.8h-48.52v-1.24l19.82-.83s9.5,.83,12.8-9.5l7.02-14.45s1.65-5.78,11.15-8.26l1.8,29.95c.14,2.35-1.72,4.33-4.08,4.33Z" fill="#002346"></path>
      <path d="M639.63,642.3h-49.02v-2.22l20.3-.85c.44,.03,9.21,.66,12.35-9.15l7.05-14.52c.04-.17,1.81-6,11.47-8.52l.59-.15,1.84,30.55c.08,1.27-.36,2.49-1.24,3.42-.88,.93-2.06,1.44-3.34,1.44Zm-48.02-1h48.02c1,0,1.93-.4,2.61-1.13,.68-.73,1.03-1.68,.97-2.67l-1.77-29.33c-8.56,2.44-10.19,7.7-10.21,7.75l-7.05,14.53c-3.36,10.51-13.2,9.79-13.3,9.78l-19.28,.81v.26Z" fill="#002346"></path>
    </g>
    <g>
      <path d="M659.95,428.22l9.62,36s2.69,11.93,10.31,26.12c.63,1.17,1.2,2.37,1.71,3.59,4.37,10.46,24.08,58.98,31.06,99.38,.47,2.73,.55,5.51,.2,8.26l-.74,5.95,21.47,3.3-2.89-39.65s-2.63-58.15-17.53-94c-.94-2.26-1.99-4.48-3.13-6.64-1.75-3.31-5.73-11.64-7-21.19,0,0-2.36-15.34-3.45-21.5l-39.62,.37Z" fill="#f2b3c1"></path>
      <path d="M734.13,611.42l-22.58-3.47,.8-6.43c.33-2.68,.27-5.41-.2-8.11-7.01-40.58-27.08-89.81-31.03-99.27-.5-1.21-1.07-2.4-1.69-3.55-7.56-14.09-10.33-26.13-10.35-26.25l-9.79-36.6,40.69-.38,.07,.42c1.08,6.1,3.43,21.36,3.45,21.51,1.27,9.54,5.28,17.88,6.95,21.03,1.16,2.19,2.22,4.44,3.15,6.68,14.77,35.52,17.55,93.59,17.57,94.17l2.94,40.26Zm-21.46-4.31l20.37,3.13-2.85-39.02c-.03-.59-2.79-58.49-17.5-93.84-.92-2.21-1.97-4.43-3.12-6.6-1.69-3.19-5.76-11.67-7.05-21.35-.02-.14-2.27-14.73-3.37-21.07l-38.56,.36,9.46,35.37c.03,.14,2.77,12.05,10.26,26.01,.63,1.18,1.21,2.4,1.73,3.64,3.96,9.48,24.06,58.8,31.09,99.49,.48,2.8,.55,5.63,.21,8.41l-.68,5.46Z" fill="#002346"></path>
    </g>
    <g>
      <path d="M733.99,615.78v23.54s-11.98,5.37-24.78,6.61l-7.85-5.37s7.85-41.3,20.65-42.54c0,0,8.26-.83,9.09,7.85,0,0,2.48,.83,2.89,9.91Z" fill="#ffffff"></path>
      <path d="M709.08,646.44l-8.27-5.66,.06-.32c.32-1.7,8.07-41.68,21.09-42.94,.15-.02,3.79-.35,6.6,1.96,1.69,1.39,2.71,3.44,3.01,6.08,.76,.53,2.57,2.57,2.92,10.2v.02s0,23.86,0,23.86l-.3,.13c-.12,.05-12.2,5.42-24.94,6.65l-.18,.02Zm-7.16-6.11l7.42,5.08c11.41-1.14,22.24-5.6,24.15-6.42v-23.2c-.38-8.41-2.55-9.45-2.57-9.46l-.27-.12-.05-.3c-.24-2.49-1.13-4.39-2.67-5.66-2.48-2.04-5.84-1.74-5.87-1.74-11.7,1.13-19.38,37.97-20.14,41.81Z" fill="#002346"></path>
    </g>
    <g>
      <path d="M733.99,639.32v.9c0,.93-.63,1.74-1.53,1.96l-22.36,5.59c-.56,.14-1.16,.03-1.63-.29l-6.22-4.25c-.55-.38-.88-1-.88-1.67v-1l7.85,5.37c12.8-1.24,24.78-6.61,24.78-6.61Z" fill="#002346"></path>
      <path d="M709.61,648.33c-.5,0-1-.15-1.42-.44l-6.22-4.25c-.69-.47-1.1-1.25-1.1-2.08v-1.95l8.48,5.8c12.51-1.25,24.32-6.5,24.44-6.55l.7-.32v1.67c0,1.16-.79,2.17-1.91,2.45l-22.36,5.59c-.2,.05-.41,.08-.61,.08Zm-7.74-6.83v.05c0,.5,.25,.97,.66,1.26l6.22,4.25c.36,.25,.81,.33,1.23,.22l22.36-5.59c.68-.17,1.15-.78,1.15-1.48v-.14c-2.77,1.15-13.25,5.29-24.23,6.35l-.18,.02-7.21-4.94Z" fill="#002346"></path>
    </g>
    <g>
      <rect x="622.91" y="121.04" width="38.2" height="56.99" rx="19.1" ry="19.1" fill="#f2b3c1"></rect>
      <path d="M642.01,178.53c-10.81,0-19.6-8.79-19.6-19.6v-18.79c0-10.81,8.79-19.6,19.6-19.6s19.6,8.79,19.6,19.6v18.79c0,10.81-8.79,19.6-19.6,19.6Zm0-56.99c-10.26,0-18.6,8.34-18.6,18.6v18.79c0,10.26,8.34,18.6,18.6,18.6h0c10.26,0,18.6-8.34,18.6-18.6v-18.79c0-10.26-8.34-18.6-18.6-18.6Z" fill="#002346"></path>
    </g>
    <g>
      <path d="M673.7,131.37s15.02,10.8,11.56,38.41c0,0,8.33,29.54,2.54,31.6,0,0-10.18-3.18-15.44-9.17-2.2-2.5-4.52-4.92-7.11-7.01-.81-.65-1.51-1.51-1.88-2.62l-4.15-15.45s2.08-3.75,1.88-8.19v-12.25s-2.54,1.33-8.25-5.8c-1.36-1.7-3.19-2.97-5.24-3.72l-3.33-1.21c-1.64-.6-2.66-1.34-3.4-2.33-.83-1.12-2.11-2.69-3.63-4.02-2.43-2.12-6.16-2.09-8.43,.2-2.8,2.83-5.91,8.72-5.89,20.96,0,0-17.38-23.12,1.61-29.31,0,0,2.89-11.15,17.34-9.5,0,0,24.69-10.6,31.8,19.41Z" fill="#002346"></path>
      <path d="M687.82,201.9l-.16-.05c-.42-.13-10.38-3.29-15.66-9.31-2.63-3-4.81-5.14-7.05-6.95-.99-.8-1.68-1.76-2.04-2.85l-4.21-15.68,.1-.18s2.01-3.69,1.81-7.92v-11.68c-1.17,.02-3.83-.71-8.14-6.09-1.28-1.6-3.02-2.83-5.02-3.56l-3.33-1.21c-1.68-.61-2.8-1.38-3.63-2.5-.8-1.08-2.07-2.63-3.56-3.94-2.27-1.99-5.67-1.91-7.74,.18-2.63,2.65-5.76,8.38-5.74,20.6v1.5s-.9-1.2-.9-1.2c-.4-.53-9.72-13.08-6.81-22.32,1.13-3.59,3.96-6.17,8.42-7.68,.57-1.72,4.34-11.08,17.67-9.62,1.24-.5,10.6-4.04,19.36,.36,6.29,3.17,10.65,9.65,12.96,19.27,1.59,1.26,14.84,12.66,11.63,38.66,.98,3.5,8.19,29.97,2.2,32.11l-.16,.06Zm-28.06-34.72l4.1,15.26c.29,.88,.87,1.68,1.72,2.36,2.26,1.82,4.54,4.07,7.17,7.07,4.73,5.39,13.69,8.52,15.04,8.97,3.65-1.8,.12-19.83-3-30.93l-.03-.1v-.1c3.39-26.95-11.2-37.83-11.35-37.94l-.15-.11-.04-.18c-2.23-9.42-6.43-15.73-12.48-18.78-8.78-4.42-18.54-.33-18.64-.29l-.12,.05-.13-.02c-13.83-1.57-16.69,8.69-16.8,9.13l-.07,.26-.26,.09c-4.28,1.39-6.98,3.79-8.03,7.11-2.24,7.11,3.49,16.73,5.77,20.15,.24-11.5,3.37-17.07,6.02-19.74,2.44-2.46,6.44-2.56,9.11-.23,1.56,1.36,2.88,2.98,3.71,4.09,.71,.95,1.68,1.62,3.17,2.16l3.33,1.21c2.18,.79,4.07,2.13,5.46,3.88,5.25,6.57,7.62,5.67,7.64,5.66l.7-.29,.02,.75v12.25c.19,4-1.42,7.43-1.84,8.25Z" fill="#002346"></path>
    </g>
    <g>
      <ellipse cx="664.13" cy="148.69" rx="8.68" ry="6.61" transform="translate(405.66 778.28) rotate(-80.3)" fill="#f2b3c1"></ellipse>
      <path d="M663.54,157.83c-.32,0-.64-.03-.95-.08-1.9-.32-3.51-1.59-4.54-3.56-1-1.92-1.33-4.3-.92-6.69,.85-4.99,4.68-8.52,8.55-7.85,3.86,.66,6.31,5.26,5.46,10.25h0c-.41,2.39-1.51,4.53-3.09,6.01-1.35,1.26-2.92,1.93-4.51,1.93Zm1.2-17.26c-3.05,0-5.92,3-6.62,7.1-.37,2.18-.08,4.33,.82,6.06,.88,1.69,2.24,2.76,3.82,3.03,1.58,.27,3.22-.29,4.61-1.59,1.43-1.33,2.42-3.27,2.79-5.44,.76-4.45-1.32-8.53-4.64-9.1-.26-.04-.52-.07-.78-.07Z" fill="#002346"></path>
    </g>
    <g>
      <g>
        <rect x="177.62" y="438.63" width="163.35" height="255.06" rx="12.65" ry="12.65" transform="translate(-306.86 825.46) rotate(-90)" fill="#ffffff"></rect>
        <path d="M374.18,648.33H144.42c-7.25,0-13.15-5.9-13.15-13.15v-138.05c0-7.25,5.9-13.15,13.15-13.15h229.76c7.25,0,13.15,5.9,13.15,13.15v138.05c0,7.25-5.9,13.15-13.15,13.15Zm-229.76-163.35c-6.7,0-12.15,5.45-12.15,12.15v138.05c0,6.7,5.45,12.15,12.15,12.15h229.76c6.7,0,12.15-5.45,12.15-12.15v-138.05c0-6.7-5.45-12.15-12.15-12.15H144.42Z" fill="#002346"></path>
      </g>
      <g>
        <rect x="195.53" y="563.38" width="6.18" height="102.83" rx="3.07" ry="3.07" transform="translate(-416.18 813.41) rotate(-90)" fill="#f1f2f2"></rect>
        <path d="M246.96,618.38h-96.68c-1.97,0-3.57-1.6-3.57-3.57s1.6-3.6,3.57-3.6h96.68c1.97,0,3.57,1.6,3.57,3.57v.03c0,1.97-1.6,3.57-3.57,3.57Zm-96.68-6.18c-1.42,0-2.57,1.15-2.57,2.57s1.15,2.6,2.57,2.6h96.68c1.42,0,2.57-1.15,2.57-2.57v-.03c0-1.42-1.15-2.57-2.57-2.57h-96.68Z" fill="#002346"></path>
      </g>
      <g>
        <rect x="331.86" y="578.36" width="6.18" height="72.87" rx="3.07" ry="3.07" transform="translate(-279.84 949.74) rotate(-90)" fill="#f1f2f2"></rect>
        <path d="M368.31,618.38h-66.73c-1.97,0-3.57-1.6-3.57-3.57s1.6-3.6,3.57-3.6h66.73c1.97,0,3.57,1.6,3.57,3.57v.03c0,1.97-1.6,3.57-3.57,3.57Zm-66.73-6.18c-1.42,0-2.57,1.15-2.57,2.57s1.15,2.6,2.57,2.6h66.73c1.42,0,2.57-1.15,2.57-2.57v-.03c0-1.42-1.15-2.57-2.57-2.57h-66.73Z" fill="#002346"></path>
      </g>
      <g>
        <rect x="164.34" y="573.88" width="11.12" height="45.39" rx="5.56" ry="5.56" transform="translate(-426.67 766.48) rotate(-90)" fill="#f1f2f2"></rect>
        <path d="M187.04,602.63h-34.28c-3.34,0-6.06-2.72-6.06-6.06s2.72-6.06,6.06-6.06h34.28c3.34,0,6.06,2.72,6.06,6.06s-2.72,6.06-6.06,6.06Zm-34.28-11.12c-2.79,0-5.06,2.27-5.06,5.06s2.27,5.06,5.06,5.06h34.28c2.79,0,5.06-2.27,5.06-5.06s-2.27-5.06-5.06-5.06h-34.28Z" fill="#002346"></path>
      </g>
      <g>
        <rect x="221.78" y="573.57" width="11.12" height="45.39" rx="5.56" ry="5.56" transform="translate(-368.93 823.6) rotate(-90)" fill="#f1f2f2"></rect>
        <path d="M244.47,602.32h-34.28c-3.34,0-6.06-2.72-6.06-6.06s2.72-6.06,6.06-6.06h34.28c3.34,0,6.06,2.72,6.06,6.06s-2.72,6.06-6.06,6.06Zm-34.28-11.12c-2.79,0-5.06,2.27-5.06,5.06s2.27,5.06,5.06,5.06h34.28c2.79,0,5.06-2.27,5.06-5.06s-2.27-5.06-5.06-5.06h-34.28Z" fill="#002346"></path>
      </g>
      <g>
        <rect x="284.77" y="573.57" width="11.12" height="45.39" rx="5.56" ry="5.56" transform="translate(-305.94 886.6) rotate(-90)" fill="#f1f2f2"></rect>
        <path d="M307.47,602.32h-34.28c-3.34,0-6.06-2.72-6.06-6.06s2.72-6.06,6.06-6.06h34.28c3.34,0,6.06,2.72,6.06,6.06s-2.72,6.06-6.06,6.06Zm-34.28-11.12c-2.79,0-5.06,2.27-5.06,5.06s2.27,5.06,5.06,5.06h34.28c2.79,0,5.06-2.27,5.06-5.06s-2.27-5.06-5.06-5.06h-34.28Z" fill="#002346"></path>
      </g>
      <g>
        <rect x="343.13" y="573.57" width="11.12" height="45.39" rx="5.56" ry="5.56" transform="translate(-247.58 944.96) rotate(-90)" fill="#f1f2f2"></rect>
        <path d="M365.83,602.32h-34.28c-3.34,0-6.06-2.72-6.06-6.06s2.72-6.06,6.06-6.06h34.28c3.34,0,6.06,2.72,6.06,6.06s-2.72,6.06-6.06,6.06Zm-34.28-11.12c-2.79,0-5.06,2.27-5.06,5.06s2.27,5.06,5.06,5.06h34.28c2.79,0,5.06-2.27,5.06-5.06s-2.27-5.06-5.06-5.06h-34.28Z" fill="#002346"></path>
      </g>
      <g>
        <rect x="161.1" y="522.16" width="34.89" height="54.04" rx="3.68" ry="3.68" transform="translate(-370.63 727.72) rotate(-90)" fill="#002346"></rect>
        <path d="M201.88,567.12h-46.67c-2.31,0-4.18-1.88-4.18-4.18v-27.53c0-2.31,1.88-4.18,4.18-4.18h46.67c2.31,0,4.18,1.88,4.18,4.18v27.53c0,2.31-1.88,4.18-4.18,4.18Zm-46.67-34.89c-1.76,0-3.18,1.43-3.18,3.18v27.53c0,1.76,1.43,3.18,3.18,3.18h46.67c1.76,0,3.18-1.43,3.18-3.18v-27.53c0-1.76-1.43-3.18-3.18-3.18h-46.67Z" fill="#002346"></path>
      </g>
      <g>
        <rect x="321.52" y="498.53" width="35.2" height="46.01" rx="17.6" ry="17.6" transform="translate(-182.42 860.66) rotate(-90)" fill="#f1f2f2"></rect>
        <path d="M344.52,539.64h-10.81c-9.98,0-18.1-8.12-18.1-18.1s8.12-18.1,18.1-18.1h10.81c9.98,0,18.1,8.12,18.1,18.1s-8.12,18.1-18.1,18.1Zm-10.81-35.2c-9.43,0-17.1,7.67-17.1,17.1s7.67,17.1,17.1,17.1h10.81c9.43,0,17.1-7.67,17.1-17.1s-7.67-17.1-17.1-17.1h-10.81Z" fill="#002346"></path>
      </g>
    </g>
    <g>
      <g>
        <path d="M357.03,98.87v6.36h10.25v5.91h-10.25v6.89h11.59v6.13h-19.25v-31.42h19.25v6.13h-11.59Z" fill="#002346"></path>
        <path d="M369.13,124.66h-20.25v-32.42h20.25v7.13h-11.59v5.36h10.25v6.91h-10.25v5.89h11.59v7.13Zm-19.25-1h18.25v-5.13h-11.59v-7.89h10.25v-4.91h-10.25v-7.36h11.59v-5.13h-18.25v30.42Z" fill="#002346"></path>
      </g>
      <g>
        <path d="M392.84,105.28v6.36h-19.69v-6.36h19.69Z" fill="#002346"></path>
        <path d="M393.34,112.13h-20.69v-7.36h20.69v7.36Zm-19.69-1h18.69v-5.36h-18.69v5.36Z" fill="#002346"></path>
      </g>
      <g>
        <path d="M400.11,95.41c-.85-.79-1.28-1.77-1.28-2.93s.43-2.19,1.28-2.98c.85-.79,1.95-1.19,3.29-1.19s2.39,.4,3.25,1.19c.85,.79,1.28,1.78,1.28,2.98s-.43,2.14-1.28,2.93c-.85,.79-1.93,1.19-3.25,1.19s-2.44-.4-3.29-1.19Zm7.09,3.78v24.98h-7.65v-24.98h7.65Z" fill="#002346"></path>
        <path d="M407.71,124.66h-8.65v-25.98h8.65v25.98Zm-7.65-1h6.65v-23.98h-6.65v23.98Zm3.35-26.57c-1.47,0-2.69-.44-3.63-1.32-.95-.89-1.44-2-1.44-3.3s.48-2.46,1.44-3.34c.94-.88,2.16-1.32,3.63-1.32s2.64,.44,3.59,1.32c.95,.89,1.44,2.01,1.44,3.34s-.48,2.41-1.44,3.3c-.94,.88-2.15,1.32-3.59,1.32Zm0-8.28c-1.22,0-2.19,.34-2.95,1.05-.75,.7-1.12,1.55-1.12,2.61s.37,1.87,1.12,2.57c.76,.71,1.73,1.05,2.95,1.05s2.14-.34,2.9-1.05c.75-.7,1.12-1.54,1.12-2.57s-.37-1.91-1.12-2.61c-.76-.71-1.71-1.05-2.9-1.05Z" fill="#002346"></path>
      </g>
      <g>
        <path d="M434.98,101.76c1.75,1.9,2.62,4.5,2.62,7.81v14.59h-7.61v-13.56c0-1.67-.43-2.97-1.3-3.89-.87-.92-2.03-1.39-3.49-1.39s-2.63,.46-3.49,1.39c-.87,.93-1.3,2.22-1.3,3.89v13.56h-7.65v-24.98h7.65v3.31c.78-1.1,1.82-1.98,3.13-2.62,1.31-.64,2.79-.96,4.43-.96,2.92,0,5.26,.95,7.01,2.84Z" fill="#002346"></path>
        <path d="M438.1,124.66h-8.61v-14.06c0-1.53-.39-2.73-1.16-3.55-.77-.83-1.8-1.23-3.13-1.23s-2.35,.4-3.13,1.23c-.77,.82-1.16,2.02-1.16,3.55v14.06h-8.65v-25.98h8.65v2.44c.68-.68,1.49-1.25,2.41-1.7,1.38-.67,2.94-1.01,4.65-1.01,3.06,0,5.54,1.01,7.37,3h0c1.83,1.98,2.75,4.72,2.75,8.15v15.09Zm-7.61-1h6.61v-14.09c0-3.17-.84-5.68-2.49-7.47h0c-1.64-1.78-3.87-2.68-6.64-2.68-1.56,0-2.97,.31-4.21,.91-1.23,.6-2.22,1.43-2.94,2.46l-.91,1.29v-4.39h-6.65v23.98h6.65v-13.06c0-1.79,.48-3.22,1.43-4.24,.96-1.03,2.26-1.55,3.86-1.55s2.9,.52,3.86,1.55c.95,1.02,1.43,2.44,1.43,4.24v13.06Z" fill="#002346"></path>
      </g>
      <g>
        <path d="M454.16,117l5.42-17.81h8.15l-8.86,24.98h-9.44l-8.86-24.98h8.19l5.42,17.81Z" fill="#002346"></path>
        <path d="M459.22,124.66h-10.15l-9.22-25.98h9.27l5.05,16.6,5.05-16.6h9.23l-9.22,25.98Zm-9.44-1h8.74l8.51-23.98h-7.07l-5.79,19.03-5.79-19.03h-7.11l8.51,23.98Z" fill="#002346"></path>
      </g>
      <g>
        <path d="M475.71,122.96c-1.95-1.04-3.49-2.54-4.61-4.48-1.12-1.94-1.68-4.21-1.68-6.8s.57-4.83,1.7-6.78c1.13-1.95,2.69-3.45,4.66-4.5,1.97-1.04,4.18-1.57,6.62-1.57s4.66,.52,6.62,1.57c1.97,1.04,3.52,2.54,4.66,4.5,1.13,1.95,1.7,4.22,1.7,6.78s-.57,4.83-1.72,6.78c-1.15,1.95-2.72,3.45-4.7,4.5-1.98,1.04-4.2,1.57-6.65,1.57s-4.65-.52-6.6-1.57Zm10.34-6.67c1.03-1.07,1.54-2.61,1.54-4.61s-.5-3.54-1.5-4.61c-1-1.07-2.23-1.61-3.69-1.61s-2.73,.53-3.72,1.59c-.98,1.06-1.48,2.6-1.48,4.63s.48,3.54,1.45,4.61c.97,1.07,2.19,1.61,3.65,1.61s2.71-.54,3.74-1.61Z" fill="#002346"></path>
        <path d="M482.32,125.02c-2.52,0-4.82-.55-6.84-1.63h0c-2.03-1.08-3.65-2.65-4.81-4.67-1.16-2.01-1.75-4.38-1.75-7.05s.59-5.01,1.77-7.03c1.18-2.03,2.81-3.6,4.85-4.69,2.03-1.08,4.34-1.62,6.86-1.62s4.83,.55,6.86,1.62c2.04,1.08,3.68,2.66,4.85,4.69,1.17,2.02,1.77,4.39,1.77,7.03s-.6,5.01-1.79,7.03c-1.19,2.03-2.84,3.6-4.9,4.69-2.05,1.08-4.36,1.62-6.88,1.62Zm.09-25.69c-2.35,0-4.5,.51-6.39,1.51-1.88,1-3.38,2.44-4.46,4.31-1.08,1.87-1.63,4.06-1.63,6.53s.54,4.7,1.61,6.55c1.07,1.85,2.55,3.29,4.41,4.29h0c1.87,1,4.01,1.51,6.37,1.51s4.51-.51,6.41-1.51c1.89-1,3.41-2.45,4.5-4.31,1.1-1.87,1.65-4.06,1.65-6.53s-.55-4.66-1.63-6.53c-1.08-1.86-2.58-3.31-4.46-4.31-1.89-1-4.04-1.51-6.39-1.51Zm-.09,19.07c-1.6,0-2.96-.6-4.02-1.78-1.05-1.16-1.58-2.83-1.58-4.95s.54-3.82,1.61-4.97c1.08-1.16,2.45-1.75,4.08-1.75s2.96,.6,4.06,1.77c1.08,1.17,1.63,2.83,1.63,4.95s-.57,3.79-1.68,4.96h0c-1.12,1.17-2.5,1.77-4.1,1.77Zm.09-12.44c-1.36,0-2.45,.47-3.35,1.43-.89,.96-1.34,2.4-1.34,4.29s.45,3.3,1.33,4.28c.88,.97,1.95,1.45,3.28,1.45s2.44-.48,3.38-1.46h0c.93-.97,1.41-2.41,1.41-4.26s-.46-3.3-1.37-4.27c-.91-.98-2-1.45-3.33-1.45Z" fill="#002346"></path>
      </g>
      <g>
        <path d="M500.02,95.41c-.85-.79-1.28-1.77-1.28-2.93s.43-2.19,1.28-2.98c.85-.79,1.95-1.19,3.29-1.19s2.39,.4,3.25,1.19c.85,.79,1.28,1.78,1.28,2.98s-.43,2.14-1.28,2.93c-.85,.79-1.93,1.19-3.25,1.19s-2.44-.4-3.29-1.19Zm7.09,3.78v24.98h-7.65v-24.98h7.65Z" fill="#002346"></path>
        <path d="M507.61,124.66h-8.65v-25.98h8.65v25.98Zm-7.65-1h6.65v-23.98h-6.65v23.98Zm3.35-26.57c-1.47,0-2.69-.44-3.63-1.32h0c-.95-.89-1.44-2-1.44-3.3s.48-2.46,1.44-3.34c.94-.88,2.16-1.32,3.63-1.32s2.64,.44,3.59,1.32c.95,.89,1.44,2.01,1.44,3.34s-.48,2.41-1.44,3.3c-.94,.88-2.15,1.32-3.59,1.32Zm0-8.28c-1.22,0-2.19,.34-2.95,1.05-.75,.7-1.12,1.55-1.12,2.61s.37,1.87,1.12,2.57h0c.76,.71,1.73,1.05,2.95,1.05s2.14-.34,2.9-1.05c.75-.7,1.12-1.54,1.12-2.57s-.37-1.91-1.12-2.61c-.76-.71-1.71-1.05-2.9-1.05Z" fill="#002346"></path>
      </g>
      <g>
        <path d="M512.73,104.87c1.06-1.94,2.54-3.43,4.43-4.48,1.89-1.04,4.07-1.57,6.51-1.57,3.13,0,5.75,.82,7.86,2.46,2.1,1.64,3.48,3.95,4.14,6.94h-8.15c-.69-1.91-2.01-2.86-3.98-2.86-1.4,0-2.52,.54-3.36,1.63-.84,1.09-1.25,2.65-1.25,4.68s.42,3.59,1.25,4.68c.84,1.09,1.95,1.63,3.36,1.63,1.97,0,3.3-.95,3.98-2.86h8.15c-.66,2.92-2.04,5.22-4.16,6.89-2.12,1.67-4.73,2.51-7.83,2.51-2.45,0-4.62-.52-6.51-1.57-1.9-1.04-3.37-2.54-4.43-4.48-1.06-1.94-1.59-4.21-1.59-6.8s.53-4.86,1.59-6.8Z" fill="#002346"></path>
        <path d="M523.67,125.02c-2.52,0-4.79-.55-6.75-1.63-1.97-1.09-3.53-2.66-4.63-4.67-1.1-2-1.65-4.37-1.65-7.04s.56-5.04,1.65-7.04c1.1-2.01,2.66-3.59,4.63-4.67,1.96-1.08,4.23-1.63,6.75-1.63,3.23,0,5.98,.86,8.16,2.57,2.19,1.71,3.64,4.14,4.32,7.23l.13,.61h-9.12l-.12-.33c-.61-1.71-1.76-2.53-3.51-2.53-1.25,0-2.22,.47-2.96,1.44-.76,1-1.15,2.47-1.15,4.37s.39,3.38,1.15,4.37c.74,.97,1.71,1.44,2.96,1.44,1.75,0,2.9-.83,3.51-2.53l.12-.33h9.12l-.14,.61c-.68,3.03-2.14,5.44-4.34,7.18-2.2,1.73-4.94,2.61-8.14,2.61Zm0-25.69c-2.35,0-4.46,.51-6.27,1.5-1.8,.99-3.23,2.43-4.23,4.28h0c-1.01,1.86-1.53,4.06-1.53,6.56s.51,4.71,1.53,6.56c1.01,1.85,2.43,3.29,4.23,4.28,1.81,1,3.92,1.5,6.27,1.5,2.97,0,5.5-.81,7.52-2.4,1.87-1.47,3.15-3.49,3.83-6h-7.17c-.8,1.9-2.25,2.86-4.33,2.86-1.56,0-2.82-.62-3.75-1.83-.9-1.17-1.36-2.85-1.36-4.98s.46-3.81,1.36-4.98c.93-1.21,2.19-1.83,3.75-1.83,2.08,0,3.53,.96,4.33,2.86h7.17c-.68-2.56-1.96-4.6-3.81-6.04-2-1.56-4.54-2.36-7.55-2.36Z" fill="#002346"></path>
      </g>
      <g>
        <path d="M563.15,113.51h-17.32c.12,1.55,.62,2.74,1.5,3.56,.88,.82,1.96,1.23,3.25,1.23,1.91,0,3.24-.81,3.98-2.42h8.15c-.42,1.64-1.17,3.12-2.26,4.43-1.09,1.31-2.45,2.34-4.1,3.09-1.64,.75-3.48,1.12-5.51,1.12-2.45,0-4.63-.52-6.54-1.57-1.91-1.04-3.4-2.54-4.48-4.48-1.07-1.94-1.61-4.21-1.61-6.8s.53-4.86,1.59-6.8c1.06-1.94,2.54-3.43,4.45-4.48,1.91-1.04,4.1-1.57,6.58-1.57s4.57,.51,6.45,1.52c1.88,1.01,3.35,2.46,4.41,4.34,1.06,1.88,1.59,4.07,1.59,6.58,0,.72-.04,1.46-.13,2.24Zm-7.7-4.25c0-1.31-.45-2.36-1.34-3.13-.9-.78-2.01-1.16-3.36-1.16s-2.37,.37-3.25,1.12c-.88,.75-1.43,1.81-1.63,3.18h9.58Z" fill="#002346"></path>
        <path d="M550.84,125.02c-2.52,0-4.8-.55-6.78-1.63-1.98-1.08-3.56-2.66-4.67-4.67-1.11-2.01-1.67-4.38-1.67-7.05s.56-5.04,1.65-7.04c1.1-2.02,2.67-3.59,4.65-4.67,1.98-1.08,4.27-1.63,6.82-1.63s4.74,.53,6.68,1.58c1.96,1.06,3.51,2.58,4.61,4.54,1.1,1.95,1.65,4.24,1.65,6.83,0,.73-.05,1.5-.14,2.3l-.05,.44h-17.21c.17,1.16,.6,2.06,1.28,2.69,.79,.74,1.74,1.1,2.9,1.1,1.71,0,2.87-.7,3.53-2.13l.13-.29h9.11l-.16,.62c-.43,1.71-1.23,3.26-2.36,4.63-1.13,1.37-2.57,2.45-4.27,3.22-1.7,.77-3.62,1.16-5.71,1.16Zm0-25.69c-2.38,0-4.51,.51-6.34,1.51-1.82,.99-3.25,2.43-4.25,4.28-1.01,1.86-1.53,4.06-1.53,6.56s.52,4.71,1.55,6.56c1.02,1.85,2.46,3.29,4.28,4.28,1.83,1,3.94,1.51,6.3,1.51,1.95,0,3.73-.36,5.3-1.07,1.56-.71,2.88-1.7,3.92-2.95,.9-1.08,1.56-2.29,1.98-3.61h-7.17c-.85,1.6-2.3,2.42-4.29,2.42-1.41,0-2.62-.46-3.59-1.37-.97-.9-1.53-2.21-1.66-3.89l-.04-.54h17.41c.06-.6,.08-1.18,.08-1.74,0-2.41-.51-4.54-1.52-6.33-1.01-1.79-2.42-3.18-4.21-4.15-1.8-.97-3.89-1.46-6.21-1.46Zm5.11,10.43h-10.66l.09-.58c.23-1.49,.83-2.66,1.8-3.48,.97-.82,2.17-1.24,3.57-1.24s2.7,.43,3.68,1.29c1.01,.87,1.52,2.05,1.52,3.51v.5Zm-9.47-1h8.45c-.1-.93-.47-1.67-1.15-2.25-.81-.7-1.8-1.04-3.03-1.04s-2.13,.33-2.92,1c-.66,.56-1.11,1.33-1.35,2.3Z" fill="#002346"></path>
      </g>
    </g>
    <path d="M637.34,203.6s-.03,0-.04,0c-.14-.01-.27-.08-.35-.19l-8.91-11.57c-.17-.22-.13-.53,.09-.7,.22-.17,.53-.13,.7,.09l8.58,11.14,10.9-10.1c.2-.19,.52-.18,.71,.03,.19,.2,.18,.52-.03,.71l-11.31,10.47c-.09,.09-.21,.13-.34,.13Z" fill="#002346"></path>
    <path d="M645.32,221.86c-.09,0-.18-.02-.26-.07-.24-.14-.31-.45-.16-.69,2.6-4.23,.23-13.71,.2-13.8-2.02-6.73-.06-11.46,.02-11.66,.06-.15,.19-.25,.35-.29,.16-.04,.32,0,.44,.11l10.06,8.66,13.37-7.71c.24-.14,.54-.06,.68,.18,.14,.24,.06,.54-.18,.68l-13.67,7.89c-.19,.11-.42,.08-.58-.05l-9.77-8.4c-.44,1.49-1.25,5.37,.24,10.34,.11,.43,2.51,10-.31,14.59-.09,.15-.26,.24-.43,.24Z" fill="#002346"></path>
    <path d="M689.19,257.04c-.11,0-.22-.04-.31-.11l-59.84-47.66c-.22-.17-.25-.49-.08-.7s.49-.25,.7-.08l59.84,47.66c.22,.17,.25,.49,.08,.7-.1,.12-.24,.19-.39,.19Z" fill="#002346"></path>
    <path d="M670.02,292.52c-5.59,0-11-2.38-14.93-6.68l-47.21-51.67c-.19-.2-.17-.52,.03-.71,.2-.19,.52-.17,.71,.03l47.21,51.67c4.48,4.91,10.97,7.18,17.36,6.09,1.96-.34,4.05-.87,6.2-1.58,.26-.09,.55,.06,.63,.32,.09,.26-.06,.54-.32,.63-2.2,.73-4.34,1.27-6.35,1.62-1.11,.19-2.23,.28-3.34,.28Z" fill="#002346"></path>
    <g>
      <path d="M608.04,222.22l7.02,7.43s-2.85,4.12-6.62,2.92c-1.12-.36-1.94-1.35-2.14-2.51-.3-1.73-.28-3.55,1.74-7.84Z" fill="#ffffff"></path>
      <path d="M609.85,233.3c-.5,0-1.02-.07-1.56-.25-1.28-.41-2.25-1.55-2.48-2.9-.35-2.03-.17-4.01,1.78-8.14l.31-.66,7.8,8.26-.23,.33c-.11,.16-2.37,3.36-5.62,3.36Zm-1.67-10.2c-1.71,3.82-1.64,5.44-1.39,6.88,.17,.99,.88,1.82,1.8,2.12,2.78,.89,5.07-1.52,5.81-2.41l-6.22-6.58Z" fill="#002346"></path>
    </g>
    <path d="M609.29,184.17c-.24,0-.46-.18-.49-.42l-7.86-51.48c-.04-.27,.15-.53,.42-.57,.28-.04,.53,.15,.57,.42l7.86,51.48c.04,.27-.15,.53-.42,.57-.03,0-.05,0-.08,0Z" fill="#002346"></path>
    <g>
      <path d="M615.06,229.65l-32.21-35.1s-2.06-1.65-.41-6.19c0,0-4.96-4.96-1.65-9.91,0,0-3.3-7.85,2.89-11.98l.65,5.56c.11,.93,.6,1.77,1.36,2.32l5.78,4.17c.13,.09,.3-.04,.23-.19l-5.15-11.58c-.69-1.56-.07-3.39,1.43-4.2h0c1.52-.82,3.41-.31,4.32,1.16l10.65,17.28c1.68,2.72,5.22,3.62,7.99,2.04h0c.45-.26,.64-.82,.42-1.3l-4.12-9.12c-.74-1.64-.17-3.57,1.34-4.54h0c1.72-1.11,4.02-.57,5.07,1.2l5.6,9.42c1.03,1.73,1.65,3.68,1.8,5.69l1.29,16.72c.08,1.1,.52,2.15,1.25,2.99l4.25,4.91s.41,6.61-12.8,20.65Z" fill="#f2b3c1"></path>
      <path d="M615.05,230.39l-32.58-35.5s-2.18-1.81-.62-6.42c-.94-1.07-4.45-5.56-1.64-10.09-.51-1.42-2.65-8.45,3.17-12.33l.68-.45,.75,6.37c.09,.79,.52,1.51,1.16,1.97l4.74,3.42-4.63-10.41c-.79-1.79-.07-3.91,1.65-4.84,1.75-.94,3.94-.36,4.98,1.34l10.65,17.28c1.55,2.51,4.76,3.33,7.32,1.87,.23-.13,.32-.41,.21-.66l-4.12-9.12c-.83-1.85-.18-4.07,1.53-5.16,.95-.61,2.08-.8,3.17-.54,1.1,.26,2.02,.94,2.6,1.91l5.6,9.42c1.06,1.79,1.71,3.83,1.87,5.9l1.29,16.72c.08,.99,.48,1.95,1.13,2.7l4.36,5.03v.17c.03,.28,.29,6.98-12.93,21.02l-.37,.39Zm-31.78-63.01c-4.86,3.94-2.16,10.58-2.03,10.87l.1,.25-.15,.22c-3.03,4.55,1.4,9.09,1.59,9.28l.22,.23-.11,.3c-1.49,4.1,.19,5.58,.26,5.64l31.9,34.75c11.48-12.31,12.25-18.68,12.3-19.73l-4.13-4.76c-.79-.91-1.27-2.07-1.37-3.28l-1.29-16.72c-.15-1.92-.75-3.81-1.73-5.47l-5.6-9.42c-.44-.73-1.13-1.25-1.97-1.44-.83-.2-1.69-.05-2.4,.41-1.29,.83-1.79,2.51-1.16,3.91l4.12,9.12c.32,.71,.05,1.55-.63,1.94-3.03,1.73-6.83,.76-8.67-2.21l-10.65-17.28c-.77-1.24-2.37-1.67-3.66-.98-1.26,.68-1.8,2.24-1.21,3.55l5.15,11.58c.12,.27,.05,.59-.19,.77-.23,.19-.55,.2-.8,.02l-5.78-4.17c-.87-.63-1.44-1.6-1.57-2.67l-.55-4.71Z" fill="#002346"></path>
    </g>
    <path d="M590.44,187.62c-.12,0-.24-.04-.33-.13l-9.66-8.67c-.21-.18-.22-.5-.04-.71,.19-.21,.5-.22,.71-.04l9.66,8.67c.21,.18,.22,.5,.04,.71-.1,.11-.24,.17-.37,.17Z" fill="#002346"></path>
    <path d="M589.37,196.33c-.13,0-.27-.05-.37-.16l-6.93-7.47c-.19-.2-.18-.52,.03-.71,.2-.19,.52-.18,.71,.03l6.93,7.47c.19,.2,.18,.52-.03,.71-.1,.09-.22,.13-.34,.13Z" fill="#002346"></path>
    <path d="M667.72,229.12s-.09,0-.14-.02c-.27-.08-.42-.35-.34-.62,5.63-19.68,19.69-28,19.83-28.08,.24-.14,.55-.06,.68,.18,.14,.24,.06,.54-.18,.68-.14,.08-13.86,8.22-19.37,27.49-.06,.22-.26,.36-.48,.36Z" fill="#002346"></path>
    <path d="M669.58,241.43c-.07,0-.15-.02-.21-.05-.25-.12-.36-.42-.24-.67l5.37-11.28c.12-.25,.42-.35,.67-.24,.25,.12,.36,.42,.24,.67l-5.37,11.28c-.09,.18-.27,.29-.45,.29Z" fill="#002346"></path>
    <path d="M602.58,247.75c-.71,0-1.13-.03-1.19-.04-.27-.02-.48-.27-.45-.54,.02-.27,.26-.48,.54-.45,.06,0,6.7,.53,15.95-3.12,.26-.1,.55,.02,.65,.28,.1,.26-.02,.55-.28,.65-7.26,2.86-12.86,3.22-15.21,3.22Z" fill="#002346"></path>
    <path d="M608.12,291.52c-2.93,0-4.64-.25-4.7-.26-.27-.04-.46-.3-.42-.57,.04-.27,.3-.46,.57-.42,.2,.03,20.14,2.88,41.47-11.6,.23-.16,.54-.1,.69,.13,.16,.23,.1,.54-.13,.69-15.45,10.49-30.21,12.01-37.49,12.01Z" fill="#002346"></path>
    <path d="M619.57,305.18s-.05,0-.08,0l-13.4-2.14c-.27-.04-.46-.3-.42-.57,.04-.27,.3-.46,.57-.42l13.4,2.14c.27,.04,.46,.3,.42,.57-.04,.25-.25,.42-.49,.42Z" fill="#002346"></path>
    <path d="M636.08,312.83c-.26,0-.48-.21-.5-.47l-1.26-22.61c-.02-.28,.2-.51,.47-.53,.27-.01,.51,.2,.53,.47l1.26,22.61c.02,.28-.2,.51-.47,.53,0,0-.02,0-.03,0Z" fill="#002346"></path>
    <path d="M659.27,305.18c-.2,0-.4-.13-.47-.33-.09-.26,.04-.55,.3-.64l18.26-6.59c.26-.1,.55,.04,.64,.3,.09,.26-.04,.55-.3,.64l-18.26,6.59c-.06,.02-.11,.03-.17,.03Z" fill="#002346"></path>
    <path d="M689.19,413.99c-.25,0-.46-.18-.5-.43l-11.66-86.77c-.04-.27,.16-.53,.43-.56,.27-.04,.53,.15,.56,.43l11.66,86.77c.04,.27-.16,.53-.43,.56-.02,0-.04,0-.07,0Z" fill="#002346"></path>
  </g>
  <g>
    <ellipse cx="639.81" cy="132.37" rx="17" ry="10" fill="#002346"></ellipse>
    <path d="M639.81,142.87c-9.65,0-17.5-4.71-17.5-10.5s7.85-10.5,17.5-10.5,17.5,4.71,17.5,10.5-7.85,10.5-17.5,10.5Zm0-20c-9.1,0-16.5,4.26-16.5,9.5s7.4,9.5,16.5,9.5,16.5-4.26,16.5-9.5-7.4-9.5-16.5-9.5Z" fill="#002346"></path>
  </g>
  <g>
    <circle cx="660.81" cy="112.37" r="14" fill="#002346"></circle>
    <path d="M660.81,126.87c-8,0-14.5-6.5-14.5-14.5s6.5-14.5,14.5-14.5,14.5,6.5,14.5,14.5-6.5,14.5-14.5,14.5Zm0-28c-7.44,0-13.5,6.06-13.5,13.5s6.06,13.5,13.5,13.5,13.5-6.06,13.5-13.5-6.06-13.5-13.5-13.5Z" fill="#002346"></path>
  </g>
</svg>
