<?xml version="1.0" encoding="UTF-8"?>
<svg xmlns="http://www.w3.org/2000/svg" id="a" width="865.76" height="682.89" viewBox="0 0 865.76 682.89">
  <g>
    <rect x="237.27" y="49.2" width="309.08" height="582.15" fill="#eaeaea" stroke="#002346" stroke-miterlimit="10"></rect>
    <polygon points="531.6 62.85 531.6 613.49 254.02 613.49 254.02 62.85 325.67 62.85 329.05 80.86 453.57 80.86 459.21 62.85 531.6 62.85" fill="#fff" stroke="#002346" stroke-miterlimit="10"></polygon>
    <rect x="372.31" y="66.45" width="39.01" height="6" fill="#fff" stroke="#002346" stroke-miterlimit="10"></rect>
    <polygon points="531.6 62.85 531.6 149.96 254.02 149.96 254.02 62.85 325.67 62.85 329.05 80.86 453.57 80.86 459.21 62.85 531.6 62.85" fill="#ffffff" stroke="#002346" stroke-miterlimit="10"></polygon>
    <rect x="254.02" y="573.48" width="277.57" height="42.1" fill="#ffffff" stroke="#002346" stroke-miterlimit="10"></rect>
    <g>
      <rect x="367.56" y="590.4" width="8.27" height="8.27" rx=".88" ry=".88" fill="none" stroke="#002346" stroke-miterlimit="10"></rect>
      <g>
        <line x1="388.68" y1="594.54" x2="396.94" y2="594.54" fill="none" stroke="#002346" stroke-linecap="round" stroke-linejoin="round"></line>
        <line x1="392.81" y1="590.4" x2="392.81" y2="598.67" fill="none" stroke="#002346" stroke-linecap="round" stroke-linejoin="round"></line>
      </g>
      <g>
        <line x1="409.08" y1="590.4" x2="418.06" y2="590.4" fill="none" stroke="#002346" stroke-linecap="round" stroke-linejoin="round"></line>
        <line x1="409.08" y1="594.54" x2="418.06" y2="594.54" fill="none" stroke="#002346" stroke-linecap="round" stroke-linejoin="round"></line>
        <line x1="409.08" y1="598.67" x2="418.06" y2="598.67" fill="none" stroke="#002346" stroke-linecap="round" stroke-linejoin="round"></line>
      </g>
    </g>
    <g>
      <path d="M279.63,121.95c-.42-.22-.75-.52-.97-.91-.23-.39-.34-.85-.34-1.36v-2.74c0-.52,.11-.97,.34-1.36,.23-.39,.55-.69,.97-.91,.42-.21,.91-.32,1.46-.32s1.03,.1,1.45,.31c.42,.21,.75,.5,.98,.88,.23,.38,.34,.81,.34,1.31,0,.04-.01,.07-.04,.09-.03,.03-.06,.04-.09,.04l-1.02,.06c-.09,0-.13-.04-.13-.12,0-.44-.13-.79-.4-1.05-.27-.27-.63-.4-1.08-.4s-.81,.13-1.09,.4c-.27,.27-.41,.62-.41,1.05v2.82c0,.43,.14,.78,.41,1.04,.27,.27,.64,.4,1.09,.4s.81-.13,1.08-.39,.4-.61,.4-1.05c0-.08,.04-.12,.13-.12l1.02,.04s.07,.01,.09,.03c.03,.02,.04,.05,.04,.08,0,.5-.11,.94-.34,1.32-.23,.38-.55,.67-.98,.88-.42,.21-.9,.31-1.45,.31s-1.04-.11-1.46-.33Z" fill="#002346"></path>
      <path d="M288.46,116.68c.35,.16,.63,.39,.82,.67s.29,.61,.29,.97v3.73s-.01,.07-.04,.09c-.03,.03-.06,.04-.09,.04h-1.02s-.07-.01-.09-.04-.04-.06-.04-.09v-.35s0-.04-.02-.04c-.01,0-.03,0-.04,.02-.36,.4-.89,.6-1.57,.6-.55,0-1.01-.14-1.37-.42-.36-.28-.54-.7-.54-1.25s.2-1.02,.6-1.35,.97-.48,1.7-.48h1.19s.06-.02,.06-.06v-.27c0-.29-.08-.51-.25-.67-.17-.16-.42-.24-.76-.24-.28,0-.51,.05-.68,.15s-.28,.24-.33,.42c-.02,.09-.07,.13-.16,.11l-1.07-.13s-.07-.02-.09-.04-.04-.04-.03-.07c.06-.45,.3-.82,.73-1.11s.96-.43,1.6-.43c.47,0,.88,.08,1.23,.24Zm-.56,4.29c.26-.19,.39-.44,.39-.73v-.52s-.02-.06-.06-.06h-.93c-.39,0-.7,.07-.92,.22-.23,.15-.34,.36-.34,.63,0,.24,.09,.42,.26,.55,.17,.13,.4,.19,.67,.19,.36,0,.67-.1,.93-.29Z" fill="#002346"></path>
      <path d="M294.11,116.6c.06,.03,.08,.08,.07,.17l-.19,1c0,.09-.06,.11-.16,.08-.11-.04-.24-.06-.39-.06-.1,0-.17,0-.22,.01-.31,.02-.57,.12-.78,.33s-.31,.47-.31,.79v3.13s-.01,.07-.04,.09c-.03,.03-.06,.04-.09,.04h-1.02s-.07-.01-.09-.04-.04-.06-.04-.09v-5.39s.01-.07,.04-.09,.06-.04,.09-.04h1.02s.07,.01,.09,.04c.03,.03,.04,.06,.04,.09v.5s0,.05,.02,.05,.02,0,.04-.03c.31-.48,.74-.72,1.3-.72,.24,0,.44,.05,.62,.14Z" fill="#002346"></path>
      <path d="M298.45,114.47s.06-.04,.09-.04h1.02s.07,.01,.09,.04c.03,.03,.04,.06,.04,.09v7.49s-.01,.07-.04,.09-.06,.04-.09,.04h-1.02s-.07-.01-.09-.04-.04-.06-.04-.09v-.33s0-.04-.02-.04c-.02,0-.03,0-.04,.02-.33,.38-.75,.58-1.27,.58s-.97-.14-1.33-.41c-.36-.27-.62-.65-.79-1.14-.13-.41-.2-.88-.2-1.38s.06-.98,.19-1.35c.16-.49,.42-.87,.79-1.14,.36-.27,.82-.41,1.36-.41,.51,0,.93,.18,1.25,.55,.01,.02,.03,.02,.04,.02,.01,0,.02-.02,.02-.04v-2.4s.01-.07,.04-.09Zm-.05,4.88c0-.58-.09-1.02-.28-1.32-.2-.32-.48-.49-.84-.49s-.67,.15-.89,.46c-.22,.33-.33,.78-.33,1.35,0,.52,.09,.94,.27,1.27,.21,.35,.52,.53,.94,.53,.38,0,.67-.18,.88-.53,.17-.3,.25-.73,.25-1.29Z" fill="#002346"></path>
      <path d="M301.98,122.05c-.35-.14-.62-.32-.81-.56-.19-.24-.29-.51-.29-.8v-.1s.01-.07,.04-.09,.06-.04,.09-.04h.97s.07,.01,.09,.04,.04,.06,.04,.09v.02c0,.18,.1,.35,.3,.48s.46,.2,.77,.2,.54-.06,.72-.18c.18-.12,.28-.27,.28-.46,0-.17-.08-.3-.23-.38s-.4-.18-.74-.27l-.42-.13c-.38-.11-.69-.23-.95-.35s-.48-.3-.65-.52-.27-.5-.27-.84c0-.52,.2-.93,.61-1.23,.41-.31,.94-.46,1.61-.46,.45,0,.85,.07,1.19,.22,.34,.14,.6,.34,.79,.6s.28,.54,.28,.87c0,.04-.01,.07-.04,.09s-.06,.04-.09,.04h-.94s-.07-.01-.09-.04-.04-.06-.04-.09c0-.19-.09-.35-.28-.48-.19-.13-.44-.19-.77-.19-.29,0-.52,.05-.7,.16s-.27,.26-.27,.45c0,.18,.09,.31,.26,.4,.17,.09,.46,.19,.87,.3l.24,.07c.39,.12,.72,.24,.99,.36,.27,.12,.49,.29,.68,.51,.18,.22,.28,.5,.28,.85,0,.52-.21,.94-.62,1.23-.41,.3-.96,.45-1.65,.45-.47,0-.87-.07-1.22-.21Z" fill="#002346"></path>
    </g>
    <g>
      <path d="M454.26,177.08l-.37-1.19s-.03-.04-.06-.04h-2.92s-.04,.02-.06,.04l-.37,1.19c-.02,.07-.07,.11-.14,.11h-1.11s-.08-.01-.1-.04c-.02-.03-.03-.06-.01-.12l2.4-7.49c.02-.07,.07-.11,.14-.11h1.38c.07,0,.12,.04,.14,.11l2.41,7.49s.01,.03,.01,.06c0,.07-.04,.1-.12,.1h-1.11c-.07,0-.12-.04-.14-.11Zm-3.01-2.24h2.25s.06-.02,.04-.07l-1.14-3.71s-.02-.04-.03-.04c-.01,0-.03,.02-.03,.04l-1.13,3.71s0,.07,.04,.07Z" fill="#002346"></path>
      <path d="M456.82,177.15s-.04-.06-.04-.09v-7.49s.01-.07,.04-.09c.03-.03,.06-.04,.09-.04h2.7c.52,0,.99,.09,1.38,.28,.4,.18,.71,.45,.93,.79,.22,.34,.33,.74,.33,1.2v3.21c0,.46-.11,.86-.33,1.2-.22,.34-.53,.61-.93,.79-.4,.18-.86,.28-1.38,.28h-2.7s-.07-.01-.09-.04Zm1.3-1.07h1.55c.39,0,.7-.12,.94-.37,.23-.25,.35-.58,.36-.99v-2.8c0-.42-.12-.76-.35-1-.24-.25-.55-.37-.95-.37h-1.54s-.05,.02-.05,.06v5.43s.02,.06,.05,.06Z" fill="#002346"></path>
      <path d="M463.66,177.15s-.04-.06-.04-.09v-7.49s.01-.07,.04-.09c.03-.03,.06-.04,.09-.04h2.7c.52,0,.99,.09,1.38,.28,.4,.18,.71,.45,.93,.79,.22,.34,.33,.74,.33,1.2v3.21c0,.46-.11,.86-.33,1.2-.22,.34-.53,.61-.93,.79-.4,.18-.86,.28-1.38,.28h-2.7s-.07-.01-.09-.04Zm1.3-1.07h1.55c.39,0,.7-.12,.94-.37,.23-.25,.35-.58,.36-.99v-2.8c0-.42-.12-.76-.35-1-.24-.25-.55-.37-.95-.37h-1.54s-.05,.02-.05,.06v5.43s.02,.06,.05,.06Z" fill="#002346"></path>
      <path d="M477.83,169.43h1.02s.07,.01,.09,.04c.03,.03,.04,.06,.04,.09v7.49s-.01,.07-.04,.09c-.03,.03-.06,.04-.09,.04h-1.02s-.07-.01-.09-.04c-.03-.03-.04-.06-.04-.09v-5.28s0-.04-.03-.04-.03,0-.04,.02l-1.38,2.13c-.04,.06-.09,.09-.16,.09h-.51c-.07,0-.12-.03-.16-.09l-1.4-2.12s-.02-.03-.04-.02-.03,.02-.03,.04v5.27s-.01,.07-.04,.09c-.03,.03-.06,.04-.09,.04h-1.02s-.07-.01-.09-.04c-.03-.03-.04-.06-.04-.09v-7.49s.01-.07,.04-.09,.06-.04,.09-.04h1.02c.07,0,.12,.03,.16,.09l1.81,2.74s.03,.02,.04,.02,.03,0,.03-.02l1.81-2.74c.04-.06,.09-.09,.16-.09Z" fill="#002346"></path>
      <path d="M481.76,176.96c-.43-.23-.76-.54-.99-.96s-.35-.89-.35-1.43v-2.53c0-.53,.12-1,.35-1.41,.24-.41,.57-.73,.99-.95,.42-.23,.91-.34,1.47-.34s1.05,.11,1.48,.34c.42,.23,.75,.54,.99,.95,.24,.41,.35,.88,.35,1.41v2.53c0,.54-.12,1.02-.35,1.43s-.57,.73-.99,.96-.92,.34-1.48,.34-1.05-.11-1.47-.34Zm2.59-1.2c.28-.29,.42-.67,.42-1.14v-2.58c0-.48-.14-.86-.42-1.15s-.65-.43-1.12-.43-.83,.14-1.11,.43c-.28,.29-.42,.67-.42,1.15v2.58c0,.47,.14,.85,.42,1.14,.28,.29,.65,.43,1.11,.43s.84-.14,1.12-.43Z" fill="#002346"></path>
      <path d="M491.68,177.09l-1.46-3.19s-.04-.04-.07-.04h-1.33s-.05,.02-.05,.06v3.15s-.01,.07-.04,.09c-.03,.03-.06,.04-.09,.04h-1.02s-.07-.01-.09-.04c-.03-.03-.04-.06-.04-.09v-7.49s.01-.07,.04-.09c.03-.03,.06-.04,.09-.04h3.05c.45,0,.85,.09,1.2,.28,.35,.19,.62,.45,.81,.8,.19,.34,.29,.74,.29,1.18,0,.51-.13,.94-.39,1.3-.26,.36-.62,.61-1.09,.75-.01,0-.03,0-.03,.02,0,.02,0,.03,0,.04l1.56,3.22s.02,.05,.02,.07c0,.06-.04,.09-.12,.09h-1.06c-.07,0-.13-.03-.16-.1Zm-2.91-6.49v2.2s.02,.06,.05,.06h1.66c.35,0,.64-.11,.86-.32s.33-.49,.33-.84-.11-.63-.33-.84c-.22-.21-.5-.32-.86-.32h-1.66s-.05,.02-.05,.06Z" fill="#002346"></path>
      <path d="M499.48,170.5s-.06,.04-.09,.04h-3.78s-.05,.02-.05,.06v2.07s.02,.06,.05,.06h2.54s.07,.01,.09,.04c.03,.03,.04,.06,.04,.09v.84s-.01,.07-.04,.09c-.03,.03-.06,.04-.09,.04h-2.54s-.05,.02-.05,.06v2.14s.02,.06,.05,.06h3.78s.07,.01,.09,.04c.03,.03,.04,.06,.04,.09v.84s-.01,.07-.04,.09c-.03,.03-.06,.04-.09,.04h-4.98s-.07-.01-.09-.04c-.03-.03-.04-.06-.04-.09v-7.49s.01-.07,.04-.09c.03-.03,.06-.04,.09-.04h4.98s.07,.01,.09,.04c.03,.03,.04,.06,.04,.09v.84s-.01,.07-.04,.09Z" fill="#002346"></path>
      <path d="M507.27,173.29s.04,.06,.04,.09v.84s-.01,.07-.04,.09c-.03,.03-.06,.04-.09,.04h-1.62s-.06,.02-.06,.06v1.59s-.01,.07-.04,.09c-.03,.03-.06,.04-.09,.04h-.83s-.07-.01-.09-.04c-.03-.03-.04-.06-.04-.09v-1.59s-.02-.06-.05-.06h-1.63s-.07-.01-.09-.04c-.03-.03-.04-.06-.04-.09v-.84s.01-.07,.04-.09c.03-.03,.06-.04,.09-.04h1.63s.05-.02,.05-.06v-1.64s.01-.07,.04-.09c.03-.03,.06-.04,.09-.04h.83s.07,.01,.09,.04c.03,.03,.04,.06,.04,.09v1.64s.02,.06,.06,.06h1.62s.07,.01,.09,.04Z" fill="#002346"></path>
    </g>
    <path d="M507.3,202.08v123.96c0,6.09-4.93,11.02-11.01,11.02h-206.97c-6.08,0-11.02-4.93-11.02-11.02v-123.96c0-6.09,4.94-11.02,11.02-11.02h206.97c6.08,0,11.01,4.93,11.01,11.02Z" fill="#ffffff" stroke="#002346" stroke-miterlimit="10"></path>
    <path d="M507.3,202.08v34.98h-229v-34.98c0-6.09,4.94-11.02,11.02-11.02h206.97c6.08,0,11.01,4.93,11.01,11.02Z" fill="#ffffff" stroke="#002346" stroke-miterlimit="10"></path>
    <g>
      <path d="M302.6,213.93c.95,.45,1.43,1.22,1.43,2.31,0,.89-.3,1.56-.89,2.02-.59,.46-1.36,.69-2.32,.69h-3.53s-.09-.02-.12-.05-.05-.07-.05-.12v-9.46s.02-.09,.05-.12c.03-.03,.07-.05,.12-.05h3.41c1.02,0,1.8,.22,2.35,.66,.55,.44,.83,1.1,.83,1.99,0,.98-.43,1.66-1.29,2.04-.06,.03-.06,.06,0,.08Zm-3.85-3.3v2.59s.02,.07,.07,.07h1.89c.49,0,.88-.12,1.17-.36s.43-.57,.43-.99-.14-.77-.43-1.01-.67-.37-1.17-.37h-1.89s-.07,.02-.07,.07Zm3.23,6.52c.28-.26,.43-.62,.43-1.06s-.14-.81-.43-1.07c-.29-.26-.68-.38-1.18-.38h-1.97s-.07,.02-.07,.07v2.77s.02,.07,.07,.07h2c.48,0,.87-.13,1.15-.39Z" fill="#002346"></path>
      <path d="M311.26,218.82l-.46-1.5s-.04-.06-.07-.06h-3.69s-.05,.02-.07,.06l-.46,1.5c-.03,.09-.09,.14-.18,.14h-1.4c-.06,0-.1-.02-.13-.05s-.03-.08-.01-.15l3.04-9.46c.03-.09,.09-.14,.18-.14h1.75c.09,0,.15,.05,.18,.14l3.05,9.46s.01,.04,.01,.07c0,.08-.05,.13-.15,.13h-1.4c-.09,0-.15-.05-.18-.14Zm-3.81-2.83h2.84c.06,0,.07-.03,.06-.08l-1.44-4.69s-.02-.06-.04-.06-.03,.02-.04,.06l-1.43,4.69c0,.06,0,.08,.06,.08Z" fill="#002346"></path>
      <path d="M320.18,209.21s.07-.05,.12-.05h1.29s.09,.02,.12,.05c.03,.03,.05,.07,.05,.12v9.46s-.02,.09-.05,.12-.07,.05-.12,.05h-1.25c-.09,0-.16-.04-.2-.11l-4.03-6.6s-.04-.04-.06-.03c-.02,0-.03,.03-.03,.06l.03,6.52s-.02,.09-.05,.12c-.03,.03-.07,.05-.12,.05h-1.29s-.09-.02-.12-.05-.05-.07-.05-.12v-9.46s.02-.09,.05-.12c.03-.03,.07-.05,.12-.05h1.25c.09,0,.16,.04,.2,.11l4.02,6.6s.04,.04,.06,.03c.02,0,.03-.03,.03-.06v-6.52s0-.09,.04-.12Z" fill="#002346"></path>
      <path d="M323.85,218.91s-.05-.07-.05-.12v-9.46s.02-.09,.05-.12c.03-.03,.07-.05,.12-.05h1.29s.09,.02,.12,.05c.03,.03,.05,.07,.05,.12v4.18s0,.05,.03,.06,.04,0,.06-.01l3.64-4.3c.06-.07,.13-.1,.21-.1h1.46c.09,0,.14,.03,.14,.1,0,.03-.01,.07-.04,.11l-3.2,3.93s-.03,.07-.01,.1l3.44,5.36c.02,.06,.03,.09,.03,.1,0,.07-.05,.1-.14,.1h-1.47c-.08,0-.15-.04-.2-.11l-2.77-4.31c-.04-.06-.07-.06-.1-.01l-1.04,1.2s-.03,.07-.03,.1v2.97s-.02,.09-.05,.12c-.03,.03-.07,.05-.12,.05h-1.29s-.09-.02-.12-.05Z" fill="#002346"></path>
    </g>
    <g>
      <path d="M382.23,458.5s.04,.06,.04,.1v.9s-.01,.07-.04,.1c-.03,.03-.06,.04-.1,.04h-2.15s-.06,.02-.06,.06v6.79s-.01,.07-.04,.1c-.03,.03-.06,.04-.1,.04h-1.07s-.07-.01-.1-.04c-.03-.03-.04-.06-.04-.1v-6.79s-.02-.06-.06-.06h-2.06s-.07-.01-.1-.04c-.03-.03-.04-.06-.04-.1v-.9s.01-.07,.04-.1c.03-.03,.06-.04,.1-.04h5.68s.07,.01,.1,.04Z" fill="#002346"></path>
      <path d="M384.32,466.38c-.45-.24-.8-.57-1.04-1.01-.24-.44-.37-.94-.37-1.5v-2.66c0-.56,.12-1.05,.37-1.49,.25-.43,.6-.77,1.04-1,.45-.24,.96-.36,1.54-.36s1.11,.12,1.56,.36c.45,.24,.79,.57,1.04,1,.25,.43,.37,.93,.37,1.49v2.66c0,.57-.12,1.07-.37,1.5-.25,.44-.6,.77-1.04,1.01-.45,.24-.97,.36-1.56,.36s-1.1-.12-1.55-.36Zm2.73-1.26c.29-.3,.44-.7,.44-1.2v-2.72c0-.5-.15-.91-.44-1.21-.3-.3-.69-.45-1.18-.45s-.87,.15-1.17,.45c-.3,.3-.44,.71-.44,1.21v2.72c0,.5,.15,.9,.44,1.2s.68,.46,1.17,.46,.88-.15,1.18-.46Z" fill="#002346"></path>
      <path d="M395.72,458.5s.04,.06,.04,.1v.9s-.01,.07-.04,.1c-.03,.03-.06,.04-.1,.04h-2.15s-.06,.02-.06,.06v6.79s-.01,.07-.04,.1c-.03,.03-.06,.04-.1,.04h-1.07s-.07-.01-.1-.04c-.03-.03-.04-.06-.04-.1v-6.79s-.02-.06-.06-.06h-2.06s-.07-.01-.1-.04c-.03-.03-.04-.06-.04-.1v-.9s.01-.07,.04-.1c.03-.03,.06-.04,.1-.04h5.68s.07,.01,.1,.04Z" fill="#002346"></path>
      <path d="M401.21,466.51l-.38-1.25s-.04-.05-.06-.05h-3.08s-.04,.02-.06,.05l-.39,1.25c-.02,.08-.07,.12-.15,.12h-1.17s-.08-.01-.1-.04c-.02-.03-.03-.07-.01-.12l2.53-7.88c.02-.08,.07-.12,.15-.12h1.46c.08,0,.13,.04,.15,.12l2.54,7.88s.01,.04,.01,.06c0,.07-.04,.1-.13,.1h-1.17c-.08,0-.13-.04-.15-.12Zm-3.17-2.36h2.37s.06-.02,.05-.07l-1.2-3.91s-.02-.05-.04-.05-.03,.02-.04,.05l-1.19,3.91s0,.07,.05,.07Z" fill="#002346"></path>
      <path d="M403.89,466.58s-.04-.06-.04-.1v-7.88s.01-.07,.04-.1c.03-.03,.06-.04,.1-.04h1.07s.07,.01,.1,.04c.03,.03,.04,.06,.04,.1v6.8s.02,.06,.06,.06h3.91s.07,.01,.1,.04,.04,.06,.04,.1v.89s-.01,.07-.04,.1c-.03,.03-.06,.04-.1,.04h-5.18s-.07-.01-.1-.04Z" fill="#002346"></path>
    </g>
    <g>
      <path d="M374.43,483.85c-.5,.5-1.2,.79-2.1,.88-.04,0-.06,.02-.06,.06l.02,1.09c0,.1-.05,.15-.15,.15h-.67c-.1,0-.15-.05-.15-.15l.02-1.09s-.02-.06-.06-.06c-.92-.1-1.64-.4-2.15-.9-.52-.5-.77-1.14-.77-1.92v-.47c0-.1,.05-.15,.15-.15h.68c.1,0,.15,.05,.15,.15v.41c0,.59,.23,1.06,.69,1.42,.46,.36,1.09,.54,1.9,.54,.73,0,1.28-.16,1.67-.49,.38-.33,.58-.77,.58-1.31,0-.35-.09-.66-.27-.91-.18-.25-.45-.49-.81-.71-.36-.22-.88-.48-1.56-.77-.73-.3-1.29-.57-1.67-.8-.39-.23-.71-.52-.96-.88-.25-.36-.37-.81-.37-1.36,0-.78,.24-1.4,.71-1.86,.47-.46,1.13-.73,1.97-.81,.04,0,.06-.02,.06-.06l-.02-1.18c0-.1,.05-.15,.15-.15h.65c.1,0,.15,.05,.15,.15l-.02,1.2s.02,.06,.06,.06c.89,.1,1.59,.4,2.09,.91,.5,.51,.76,1.15,.76,1.94v.33c0,.1-.05,.15-.15,.15h-.71c-.1,0-.15-.05-.15-.15v-.27c0-.59-.22-1.07-.65-1.44-.43-.37-1.04-.56-1.8-.56-.68,0-1.2,.15-1.56,.44-.36,.29-.55,.72-.55,1.27,0,.36,.09,.67,.27,.9s.43,.44,.76,.62c.33,.18,.84,.41,1.52,.69,.7,.3,1.26,.59,1.69,.85,.43,.26,.77,.58,1.03,.96,.26,.38,.39,.84,.39,1.39,0,.77-.25,1.4-.75,1.9Z" fill="#002346"></path>
      <path d="M378.94,474.01h.82c.1,0,.15,.05,.15,.15v10.31c0,.1-.05,.15-.15,.15h-.77c-.1,0-.15-.05-.15-.15v-9.23s0-.04-.02-.04c-.02,0-.03,0-.05,0l-1.61,.65-.06,.02c-.06,0-.1-.04-.12-.12l-.08-.58v-.03c0-.05,.04-.1,.11-.15l1.74-.92c.06-.03,.13-.05,.2-.05Z" fill="#002346"></path>
      <path d="M383.65,483.68h4.76c.1,0,.15,.05,.15,.15v.64c0,.1-.05,.15-.15,.15h-6.05c-.1,0-.15-.05-.15-.15v-.64c0-.07,.02-.13,.08-.18,.34-.4,1.12-1.35,2.32-2.85l1.12-1.39c.95-1.2,1.42-2.14,1.42-2.8,0-.54-.18-.96-.55-1.29s-.84-.49-1.42-.49-1.04,.16-1.39,.49c-.35,.33-.53,.76-.52,1.3v.47c0,.1-.05,.15-.15,.15h-.79c-.1,0-.15-.05-.15-.15v-.61c.02-.78,.31-1.4,.87-1.88,.56-.47,1.27-.71,2.13-.71,.61,0,1.14,.12,1.61,.35,.46,.23,.82,.55,1.08,.96,.25,.41,.38,.87,.38,1.39,0,.86-.48,1.89-1.42,3.11-.5,.64-1.45,1.81-2.86,3.52l-.33,.39c-.03,.05-.02,.08,.03,.08Z" fill="#002346"></path>
      <path d="M391.78,483.68h4.76c.1,0,.15,.05,.15,.15v.64c0,.1-.05,.15-.15,.15h-6.05c-.1,0-.15-.05-.15-.15v-.64c0-.07,.02-.13,.08-.18,.34-.4,1.12-1.35,2.32-2.85l1.12-1.39c.95-1.2,1.42-2.14,1.42-2.8,0-.54-.18-.96-.55-1.29s-.84-.49-1.42-.49-1.04,.16-1.39,.49c-.35,.33-.53,.76-.52,1.3v.47c0,.1-.05,.15-.15,.15h-.79c-.1,0-.15-.05-.15-.15v-.61c.02-.78,.31-1.4,.87-1.88,.56-.47,1.27-.71,2.13-.71,.61,0,1.14,.12,1.61,.35,.46,.23,.82,.55,1.08,.96,.25,.41,.38,.87,.38,1.39,0,.86-.48,1.89-1.42,3.11-.5,.64-1.45,1.81-2.86,3.52l-.33,.39c-.03,.05-.02,.08,.03,.08Z" fill="#002346"></path>
      <path d="M398.61,485.77s-.03-.07-.02-.12l.67-3.24c.02-.09,.08-.14,.17-.14h.67c.05,0,.09,.02,.11,.05,.02,.03,.03,.07,.02,.12l-.85,3.24c-.02,.09-.08,.14-.17,.14h-.49c-.05,0-.09-.01-.11-.04Z" fill="#002346"></path>
      <path d="M408.54,481.65c0,.7-.15,1.29-.44,1.77-.24,.41-.59,.74-1.03,.97-.44,.23-.96,.35-1.55,.35s-1.14-.12-1.59-.36c-.46-.24-.8-.58-1.05-1.04-.28-.5-.42-1.08-.42-1.71,0-.54,.11-1.04,.32-1.52,.23-.5,.6-.88,1.11-1.14,.05-.02,.05-.04,0-.08-.33-.19-.61-.45-.82-.77-.3-.43-.45-.93-.45-1.49s.15-1.08,.45-1.55c.24-.39,.58-.7,1.01-.92,.43-.22,.91-.33,1.45-.33s1.04,.11,1.46,.33c.41,.22,.74,.52,.98,.92,.29,.47,.44,.99,.44,1.55s-.15,1.06-.46,1.52c-.18,.27-.45,.52-.8,.74-.05,.03-.05,.06,0,.08,.52,.25,.88,.65,1.11,1.18,.19,.41,.29,.91,.29,1.49Zm-1.08-.08c0-.47-.08-.88-.24-1.23-.3-.67-.87-1-1.71-1s-1.35,.31-1.67,.94c-.18,.32-.27,.76-.27,1.3s.11,1.03,.33,1.38c.34,.56,.88,.83,1.62,.83s1.24-.26,1.56-.79c.25-.38,.38-.86,.38-1.44Zm-3.79-4.93c0,.42,.11,.79,.32,1.11,.16,.25,.37,.44,.63,.58,.26,.13,.55,.2,.89,.2s.63-.07,.89-.2c.26-.14,.47-.33,.64-.58,.19-.27,.29-.64,.29-1.11,0-.33-.08-.64-.23-.91-.15-.28-.36-.51-.64-.67s-.6-.25-.97-.25c-.35,0-.67,.09-.94,.26-.27,.17-.49,.4-.64,.7-.16,.3-.24,.6-.24,.89Z" fill="#002346"></path>
      <path d="M411.41,483.94c-.58-.56-.86-1.3-.86-2.23v-4.79c0-.93,.29-1.67,.86-2.22,.58-.55,1.35-.83,2.32-.83s1.76,.28,2.35,.83c.59,.56,.88,1.29,.88,2.21v4.79c0,.93-.29,1.67-.88,2.23-.59,.56-1.37,.83-2.35,.83s-1.74-.28-2.32-.83Zm3.88-.67c.39-.37,.59-.87,.59-1.5v-4.9c0-.62-.19-1.11-.58-1.49-.39-.37-.91-.56-1.57-.56s-1.15,.19-1.53,.56c-.38,.37-.58,.87-.58,1.49v4.9c0,.63,.19,1.13,.58,1.5,.38,.37,.89,.56,1.53,.56s1.17-.19,1.56-.56Z" fill="#002346"></path>
    </g>
    <g>
      <g>
        <path d="M303.01,267.03s.04,.06,.04,.09v.89s-.01,.07-.04,.09c-.03,.03-.06,.04-.09,.04h-.47s-.06,.02-.06,.06v1.85s-.01,.07-.04,.09-.06,.04-.09,.04h-1.02s-.07-.01-.09-.04c-.03-.03-.04-.06-.04-.09v-1.85s-.02-.06-.06-.06h-3.37s-.07-.01-.09-.04c-.03-.03-.04-.06-.04-.09v-.71s.01-.1,.03-.17l2.09-4.61c.03-.07,.08-.1,.15-.1h1.09c.05,0,.09,.01,.1,.04,.02,.03,.02,.06,0,.12l-1.97,4.34s0,.03,0,.04c0,.02,.02,.02,.03,.02h1.97s.06-.02,.06-.06v-1.51s.01-.07,.04-.09c.03-.03,.06-.04,.09-.04h1.02s.07,.01,.09,.04,.04,.06,.04,.09v1.51s.02,.06,.06,.06h.47s.07,.01,.09,.04Z" fill="#002346"></path>
        <path d="M308.93,267.72c0,.41-.06,.78-.19,1.1-.17,.47-.45,.83-.84,1.08-.39,.25-.86,.38-1.42,.38s-1.02-.14-1.42-.42c-.4-.28-.69-.65-.86-1.12-.09-.23-.14-.53-.15-.9,0-.09,.04-.13,.13-.13h1.03c.09,0,.13,.04,.13,.13,.01,.24,.05,.42,.11,.56,.07,.24,.19,.42,.37,.56,.18,.14,.4,.21,.66,.21,.49,0,.82-.22,1.01-.66,.1-.21,.14-.49,.14-.83,0-.38-.06-.69-.17-.93-.19-.41-.52-.62-1-.62-.13,0-.3,.07-.51,.22-.03,.02-.06,.02-.08,.02-.04,0-.07-.02-.11-.07l-.51-.71s-.03-.07-.03-.09c0-.04,.01-.07,.04-.1l1.83-1.79s.02-.03,.01-.04c0-.01-.02-.02-.04-.02h-2.77s-.07-.01-.09-.04c-.03-.03-.04-.06-.04-.09v-.84s.01-.07,.04-.09c.03-.03,.06-.04,.09-.04h4.42s.07,.01,.09,.04c.03,.03,.04,.06,.04,.09v.96c0,.07-.02,.12-.07,.17l-1.58,1.6s-.01,.05,.04,.07c.69,.1,1.17,.48,1.46,1.14,.15,.35,.22,.76,.22,1.22Z" fill="#002346"></path>
        <path d="M314.93,267.74c0,.35-.05,.68-.14,.99-.16,.47-.44,.85-.85,1.12s-.9,.42-1.45,.42-1.02-.13-1.43-.4c-.41-.27-.69-.63-.85-1.09-.06-.16-.11-.35-.14-.55v-.02c0-.08,.04-.12,.13-.12h1.05c.07,0,.12,.04,.14,.12,0,.04,.03,.11,.06,.2,.08,.24,.21,.43,.39,.56s.39,.2,.64,.2,.48-.07,.67-.22c.18-.14,.31-.34,.39-.59,.07-.18,.1-.38,.1-.61,0-.21-.03-.42-.09-.63-.05-.24-.17-.43-.35-.56s-.41-.19-.68-.19c-.25,0-.48,.06-.68,.17-.2,.11-.33,.26-.39,.45-.03,.07-.08,.11-.16,.11h-1.07s-.07-.01-.09-.04-.04-.06-.04-.09v-4.39s.01-.07,.04-.09c.03-.03,.06-.04,.09-.04h4.31s.07,.01,.09,.04c.03,.03,.04,.06,.04,.09v.84s-.01,.07-.04,.09-.06,.04-.09,.04h-3.1s-.06,.02-.06,.06v1.99s0,.05,.01,.05c.01,0,.03,0,.04-.02,.35-.26,.76-.39,1.25-.39,.52,0,.97,.13,1.35,.39s.64,.62,.78,1.08c.1,.33,.14,.68,.14,1.03Z" fill="#002346"></path>
        <path d="M320.79,267.74c0,.45-.07,.85-.22,1.19-.18,.43-.46,.76-.84,.99-.38,.23-.84,.35-1.37,.35s-1.03-.13-1.42-.38c-.39-.25-.67-.61-.84-1.07-.12-.31-.18-.67-.18-1.09v-3.38c0-.4,.1-.75,.3-1.05,.2-.3,.48-.54,.84-.7,.36-.17,.77-.25,1.24-.25s.85,.08,1.2,.24c.35,.16,.62,.39,.82,.69,.2,.3,.29,.64,.29,1.02v.24s-.01,.07-.04,.09c-.03,.03-.06,.04-.09,.04h-1.02s-.07-.01-.09-.04-.04-.06-.04-.09v-.08c0-.29-.1-.54-.29-.73-.2-.19-.44-.28-.75-.28s-.57,.1-.77,.29c-.2,.2-.3,.45-.3,.76v1.21s0,.04,.02,.04c.01,0,.03,0,.04-.01,.31-.3,.74-.45,1.28-.45,.44,0,.82,.09,1.15,.28s.59,.45,.78,.8c.2,.38,.3,.83,.3,1.37Zm-1.29,.02c0-.33-.06-.62-.19-.85-.21-.35-.53-.53-.96-.53-.46,0-.78,.18-.97,.55-.11,.22-.17,.51-.17,.86,0,.3,.05,.55,.14,.74,.18,.41,.51,.61,1,.61s.79-.2,.99-.6c.11-.22,.17-.48,.17-.79Z" fill="#002346"></path>
      </g>
      <g>
        <path d="M338.79,262.43h1.06s.07,.01,.09,.04c.03,.03,.04,.06,.04,.09v7.49s-.01,.07-.04,.09c-.03,.03-.06,.04-.09,.04h-1.02s-.07-.01-.09-.04-.04-.06-.04-.09v-6.29s0-.03-.02-.04-.03-.01-.04,0l-1.11,.34s-.03,.01-.06,.01c-.03,0-.05-.01-.07-.03-.02-.02-.03-.05-.03-.09l-.03-.73c0-.07,.03-.13,.09-.16l1.2-.6c.06-.02,.11-.03,.17-.03Z" fill="#002346"></path>
        <path d="M343.02,269.06s.02,.02,.04,.02h3.16s.07,.01,.09,.04,.04,.06,.04,.09v.84s-.01,.07-.04,.09-.06,.04-.09,.04h-4.76s-.07-.01-.09-.04c-.03-.03-.04-.06-.04-.09v-.8c0-.07,.02-.12,.07-.17,.56-.6,1.21-1.33,1.95-2.2l.52-.61c.68-.79,1.02-1.39,1.02-1.79,0-.3-.11-.55-.32-.74-.21-.19-.49-.29-.83-.29s-.61,.1-.83,.29-.32,.45-.32,.76v.29s-.01,.07-.04,.09-.06,.04-.09,.04h-1.03s-.07-.01-.09-.04c-.03-.03-.04-.06-.04-.09v-.48c.01-.4,.13-.75,.34-1.04,.21-.3,.5-.52,.87-.69,.37-.16,.77-.24,1.22-.24,.49,0,.93,.09,1.3,.28s.65,.44,.85,.76,.3,.68,.3,1.08c0,.61-.32,1.3-.96,2.09-.35,.44-.94,1.11-1.75,1.99l-.42,.46s-.02,.03-.02,.04Z" fill="#002346"></path>
        <path d="M352.06,267.72c0,.41-.06,.78-.19,1.1-.17,.47-.45,.83-.84,1.08-.39,.25-.86,.38-1.42,.38s-1.02-.14-1.42-.42c-.4-.28-.69-.65-.86-1.12-.09-.23-.14-.53-.15-.9,0-.09,.04-.13,.13-.13h1.03c.09,0,.13,.04,.13,.13,.01,.24,.05,.42,.11,.56,.07,.24,.19,.42,.37,.56,.18,.14,.4,.21,.66,.21,.49,0,.82-.22,1.01-.66,.1-.21,.14-.49,.14-.83,0-.38-.06-.69-.17-.93-.19-.41-.52-.62-1-.62-.13,0-.3,.07-.51,.22-.03,.02-.06,.02-.08,.02-.04,0-.07-.02-.11-.07l-.51-.71s-.03-.07-.03-.09c0-.04,.01-.07,.04-.1l1.83-1.79s.02-.03,.01-.04c0-.01-.02-.02-.04-.02h-2.77s-.07-.01-.09-.04c-.03-.03-.04-.06-.04-.09v-.84s.01-.07,.04-.09c.03-.03,.06-.04,.09-.04h4.42s.07,.01,.09,.04c.03,.03,.04,.06,.04,.09v.96c0,.07-.02,.12-.07,.17l-1.58,1.6s-.01,.05,.04,.07c.69,.1,1.17,.48,1.46,1.14,.15,.35,.22,.76,.22,1.22Z" fill="#002346"></path>
        <path d="M358.5,267.03s.04,.06,.04,.09v.89s-.01,.07-.04,.09c-.03,.03-.06,.04-.09,.04h-.47s-.06,.02-.06,.06v1.85s-.01,.07-.04,.09-.06,.04-.09,.04h-1.02s-.07-.01-.09-.04c-.03-.03-.04-.06-.04-.09v-1.85s-.02-.06-.06-.06h-3.37s-.07-.01-.09-.04c-.03-.03-.04-.06-.04-.09v-.71s.01-.1,.03-.17l2.09-4.61c.03-.07,.08-.1,.15-.1h1.09c.05,0,.09,.01,.1,.04,.02,.03,.02,.06,0,.12l-1.97,4.34s0,.03,0,.04c0,.02,.02,.02,.03,.02h1.97s.06-.02,.06-.06v-1.51s.01-.07,.04-.09c.03-.03,.06-.04,.09-.04h1.02s.07,.01,.09,.04,.04,.06,.04,.09v1.51s.02,.06,.06,.06h.47s.07,.01,.09,.04Z" fill="#002346"></path>
      </g>
      <g>
        <path d="M379.96,267.74c0,.35-.05,.68-.14,.99-.16,.47-.44,.85-.85,1.12s-.9,.42-1.45,.42-1.02-.13-1.43-.4c-.41-.27-.69-.63-.85-1.09-.06-.16-.11-.35-.14-.55v-.02c0-.08,.04-.12,.13-.12h1.05c.07,0,.12,.04,.14,.12,0,.04,.03,.11,.06,.2,.08,.24,.21,.43,.39,.56s.39,.2,.64,.2,.48-.07,.67-.22c.18-.14,.31-.34,.39-.59,.07-.18,.1-.38,.1-.61,0-.21-.03-.42-.09-.63-.05-.24-.17-.43-.35-.56s-.41-.19-.68-.19c-.25,0-.48,.06-.68,.17-.2,.11-.33,.26-.39,.45-.03,.07-.08,.11-.16,.11h-1.07s-.07-.01-.09-.04-.04-.06-.04-.09v-4.39s.01-.07,.04-.09c.03-.03,.06-.04,.09-.04h4.31s.07,.01,.09,.04c.03,.03,.04,.06,.04,.09v.84s-.01,.07-.04,.09-.06,.04-.09,.04h-3.1s-.06,.02-.06,.06v1.99s0,.05,.01,.05c.01,0,.03,0,.04-.02,.35-.26,.76-.39,1.25-.39,.52,0,.97,.13,1.35,.39s.64,.62,.78,1.08c.1,.33,.14,.68,.14,1.03Z" fill="#002346"></path>
        <path d="M385.82,267.74c0,.45-.07,.85-.22,1.19-.18,.43-.46,.76-.84,.99-.38,.23-.84,.35-1.37,.35s-1.03-.13-1.42-.38c-.39-.25-.67-.61-.84-1.07-.12-.31-.18-.67-.18-1.09v-3.38c0-.4,.1-.75,.3-1.05,.2-.3,.48-.54,.84-.7,.36-.17,.77-.25,1.24-.25s.85,.08,1.2,.24c.35,.16,.62,.39,.82,.69,.2,.3,.29,.64,.29,1.02v.24s-.01,.07-.04,.09c-.03,.03-.06,.04-.09,.04h-1.02s-.07-.01-.09-.04-.04-.06-.04-.09v-.08c0-.29-.1-.54-.29-.73-.2-.19-.44-.28-.75-.28s-.57,.1-.77,.29c-.2,.2-.3,.45-.3,.76v1.21s0,.04,.02,.04c.01,0,.03,0,.04-.01,.31-.3,.74-.45,1.28-.45,.44,0,.82,.09,1.15,.28s.59,.45,.78,.8c.2,.38,.3,.83,.3,1.37Zm-1.29,.02c0-.33-.06-.62-.19-.85-.21-.35-.53-.53-.96-.53-.46,0-.78,.18-.97,.55-.11,.22-.17,.51-.17,.86,0,.3,.05,.55,.14,.74,.18,.41,.51,.61,1,.61s.79-.2,.99-.6c.11-.22,.17-.48,.17-.79Z" fill="#002346"></path>
        <path d="M387.64,270.03l2.45-6.42s0-.07-.04-.07h-2.38s-.06,.02-.06,.06v.5s-.01,.07-.04,.09-.06,.04-.09,.04h-.8s-.07-.01-.09-.04-.04-.06-.04-.09v-1.53s.01-.07,.04-.09c.03-.03,.06-.04,.09-.04h4.66s.07,.01,.09,.04c.03,.03,.04,.06,.04,.09v.89s-.01,.1-.03,.17l-2.44,6.46c-.02,.07-.07,.11-.16,.11h-1.1c-.11,0-.15-.05-.11-.16Z" fill="#002346"></path>
        <path d="M397.05,267.95c0,.44-.1,.85-.29,1.21-.19,.35-.47,.62-.84,.82s-.81,.3-1.31,.3-.93-.1-1.32-.29c-.38-.2-.67-.48-.86-.86-.19-.35-.29-.74-.29-1.19,0-.4,.08-.78,.25-1.13,.15-.3,.36-.53,.63-.69,.04-.02,.04-.05,.01-.08-.19-.13-.35-.32-.5-.55-.19-.31-.29-.65-.29-1.03,0-.46,.14-.88,.41-1.25,.2-.29,.47-.51,.81-.67,.34-.16,.72-.24,1.14-.24s.82,.08,1.15,.24c.33,.16,.59,.38,.79,.67,.26,.38,.39,.79,.39,1.25,0,.41-.1,.76-.3,1.06-.14,.21-.3,.38-.49,.51-.03,.03-.03,.06,0,.08,.28,.16,.5,.4,.65,.72,.16,.33,.24,.7,.24,1.12Zm-1.3-.11c0-.34-.06-.61-.18-.8-.18-.34-.51-.51-.98-.51-.44,0-.75,.16-.95,.49-.13,.2-.19,.48-.19,.83s.07,.62,.2,.83c.2,.32,.52,.49,.95,.49s.72-.15,.91-.45c.16-.21,.23-.51,.23-.88Zm-2.23-3.36c0,.25,.06,.48,.19,.68,.18,.3,.47,.45,.89,.45s.7-.16,.91-.47c.11-.16,.17-.39,.17-.68,0-.16-.04-.33-.12-.51-.1-.17-.23-.3-.39-.4-.16-.1-.35-.15-.58-.15-.21,0-.39,.05-.55,.15-.16,.1-.29,.24-.38,.42-.09,.19-.13,.36-.13,.51Z" fill="#002346"></path>
      </g>
      <g>
        <path d="M414.28,269.65c-.45-.44-.68-1.03-.68-1.78v-3.12c0-.74,.23-1.32,.68-1.76,.45-.43,1.07-.65,1.84-.65s1.39,.22,1.86,.65c.46,.43,.69,1.02,.69,1.76v3.12c0,.75-.23,1.34-.69,1.78s-1.08,.66-1.86,.66-1.39-.22-1.84-.66Zm2.76-.8c.23-.23,.34-.53,.34-.91v-3.23c0-.38-.11-.69-.34-.91-.23-.23-.54-.34-.92-.34s-.68,.11-.9,.34c-.23,.23-.34,.53-.34,.91v3.23c0,.38,.11,.69,.34,.91,.23,.23,.53,.34,.9,.34s.69-.11,.92-.34Z" fill="#002346"></path>
        <path d="M421.04,262.43h1.06s.07,.01,.09,.04c.03,.03,.04,.06,.04,.09v7.49s-.01,.07-.04,.09c-.03,.03-.06,.04-.09,.04h-1.02s-.07-.01-.09-.04-.04-.06-.04-.09v-6.29s0-.03-.02-.04-.03-.01-.04,0l-1.11,.34s-.03,.01-.06,.01c-.03,0-.05-.01-.07-.03-.02-.02-.03-.05-.03-.09l-.03-.73c0-.07,.03-.13,.09-.16l1.2-.6c.06-.02,.11-.03,.17-.03Z" fill="#002346"></path>
        <path d="M428.88,267.03s.04,.06,.04,.09v.89s-.01,.07-.04,.09c-.03,.03-.06,.04-.09,.04h-.47s-.06,.02-.06,.06v1.85s-.01,.07-.04,.09-.06,.04-.09,.04h-1.02s-.07-.01-.09-.04c-.03-.03-.04-.06-.04-.09v-1.85s-.02-.06-.06-.06h-3.37s-.07-.01-.09-.04c-.03-.03-.04-.06-.04-.09v-.71s.01-.1,.03-.17l2.09-4.61c.03-.07,.08-.1,.15-.1h1.09c.05,0,.09,.01,.1,.04,.02,.03,.02,.06,0,.12l-1.97,4.34s0,.03,0,.04c0,.02,.02,.02,.03,.02h1.97s.06-.02,.06-.06v-1.51s.01-.07,.04-.09c.03-.03,.06-.04,.09-.04h1.02s.07,.01,.09,.04,.04,.06,.04,.09v1.51s.02,.06,.06,.06h.47s.07,.01,.09,.04Z" fill="#002346"></path>
        <path d="M434.93,267.74c0,.35-.05,.68-.14,.99-.16,.47-.44,.85-.85,1.12-.41,.28-.9,.42-1.45,.42s-1.02-.13-1.43-.4c-.41-.27-.69-.63-.85-1.09-.06-.16-.11-.35-.14-.55v-.02c0-.08,.04-.12,.13-.12h1.05c.07,0,.12,.04,.14,.12,0,.04,.03,.11,.06,.2,.08,.24,.21,.43,.39,.56s.39,.2,.64,.2,.48-.07,.67-.22c.18-.14,.31-.34,.39-.59,.07-.18,.1-.38,.1-.61,0-.21-.03-.42-.09-.63-.05-.24-.17-.43-.35-.56s-.41-.19-.68-.19c-.25,0-.48,.06-.68,.17-.2,.11-.33,.26-.39,.45-.03,.07-.08,.11-.16,.11h-1.07s-.07-.01-.09-.04-.04-.06-.04-.09v-4.39s.01-.07,.04-.09c.03-.03,.06-.04,.09-.04h4.31s.07,.01,.09,.04c.03,.03,.04,.06,.04,.09v.84s-.01,.07-.04,.09c-.03,.03-.06,.04-.09,.04h-3.1s-.06,.02-.06,.06v1.99s0,.05,.01,.05c.01,0,.03,0,.04-.02,.35-.26,.76-.39,1.25-.39,.52,0,.97,.13,1.35,.39,.38,.26,.64,.62,.78,1.08,.1,.33,.14,.68,.14,1.03Z" fill="#002346"></path>
      </g>
    </g>
    <g>
      <path d="M302.1,308.5s-.06,.04-.09,.04h-3.78s-.06,.02-.06,.06v2.07s.02,.06,.06,.06h2.54s.07,.01,.09,.04,.04,.06,.04,.09v.84s-.01,.07-.04,.09-.06,.04-.09,.04h-2.54s-.06,.02-.06,.06v2.14s.02,.06,.06,.06h3.78s.07,.01,.09,.04c.03,.03,.04,.06,.04,.09v.84s-.01,.07-.04,.09c-.03,.03-.06,.04-.09,.04h-4.98s-.07-.01-.09-.04-.04-.06-.04-.09v-7.49s.01-.07,.04-.09c.03-.03,.06-.04,.09-.04h4.98s.07,.01,.09,.04c.03,.03,.04,.06,.04,.09v.84s-.01,.07-.04,.09Z" fill="#002346"></path>
      <path d="M306.88,307.47s.06-.04,.09-.04h1.02s.07,.01,.09,.04c.03,.03,.04,.06,.04,.09v7.49s-.01,.07-.04,.09-.06,.04-.09,.04h-1.02s-.07-.01-.09-.04-.04-.06-.04-.09v-.33s0-.04-.02-.04c-.02,0-.03,0-.04,.02-.33,.38-.75,.58-1.27,.58s-.97-.14-1.33-.41c-.36-.27-.62-.65-.79-1.14-.13-.41-.2-.88-.2-1.38s.06-.98,.19-1.35c.16-.49,.42-.87,.79-1.14,.36-.27,.82-.41,1.36-.41,.51,0,.93,.18,1.25,.55,.01,.02,.03,.02,.04,.02,.01,0,.02-.02,.02-.04v-2.4s.01-.07,.04-.09Zm-.05,4.88c0-.58-.09-1.02-.28-1.32-.2-.32-.48-.49-.84-.49s-.67,.15-.89,.46c-.22,.33-.33,.78-.33,1.35,0,.52,.09,.94,.27,1.27,.21,.35,.52,.53,.94,.53,.38,0,.67-.18,.88-.53,.17-.3,.25-.73,.25-1.29Z" fill="#002346"></path>
      <path d="M312.9,309.56s.06-.04,.09-.04h1.01s.07,.01,.09,.04,.04,.06,.04,.09v5.39s-.01,.07-.04,.09-.06,.04-.09,.04h-1.01s-.07-.01-.09-.04-.04-.06-.04-.09v-.35s0-.04-.02-.04-.03,0-.04,.02c-.3,.39-.76,.59-1.36,.59-.56,0-1.03-.16-1.41-.49-.38-.33-.57-.79-.57-1.38v-3.73s.01-.07,.04-.09,.06-.04,.09-.04h1.02s.07,.01,.09,.04c.03,.03,.04,.06,.04,.09v3.37c0,.35,.09,.62,.27,.83,.18,.21,.43,.31,.76,.31s.6-.1,.8-.31c.2-.21,.3-.48,.3-.83v-3.37s.01-.07,.04-.09Z" fill="#002346"></path>
      <path d="M318.9,309.68c.35,.16,.63,.39,.82,.67s.29,.61,.29,.97v3.73s-.01,.07-.04,.09c-.03,.03-.06,.04-.09,.04h-1.02s-.07-.01-.09-.04-.04-.06-.04-.09v-.35s0-.04-.02-.04c-.01,0-.03,0-.04,.02-.36,.4-.89,.6-1.57,.6-.55,0-1.01-.14-1.37-.42-.36-.28-.54-.7-.54-1.25s.2-1.02,.6-1.35,.97-.48,1.7-.48h1.19s.06-.02,.06-.06v-.27c0-.29-.08-.51-.25-.67-.17-.16-.42-.24-.76-.24-.28,0-.51,.05-.68,.15s-.28,.24-.33,.42c-.02,.09-.07,.13-.16,.11l-1.07-.13s-.07-.02-.09-.04-.04-.04-.03-.07c.06-.45,.3-.82,.73-1.11s.96-.43,1.6-.43c.47,0,.88,.08,1.23,.24Zm-.56,4.29c.26-.19,.39-.44,.39-.73v-.52s-.02-.06-.06-.06h-.93c-.39,0-.7,.07-.92,.22-.23,.15-.34,.36-.34,.63,0,.24,.09,.42,.26,.55,.17,.13,.4,.19,.67,.19,.36,0,.67-.1,.93-.29Z" fill="#002346"></path>
      <path d="M324.55,309.6c.06,.03,.08,.08,.07,.17l-.19,1c0,.09-.06,.11-.16,.08-.11-.04-.24-.06-.39-.06-.1,0-.17,0-.22,.01-.31,.02-.57,.12-.78,.33s-.31,.47-.31,.79v3.13s-.01,.07-.04,.09c-.03,.03-.06,.04-.09,.04h-1.02s-.07-.01-.09-.04-.04-.06-.04-.09v-5.39s.01-.07,.04-.09,.06-.04,.09-.04h1.02s.07,.01,.09,.04c.03,.03,.04,.06,.04,.09v.5s0,.05,.02,.05,.02,0,.04-.03c.31-.48,.74-.72,1.3-.72,.24,0,.44,.05,.62,.14Z" fill="#002346"></path>
      <path d="M328.9,307.47s.06-.04,.09-.04h1.02s.07,.01,.09,.04c.03,.03,.04,.06,.04,.09v7.49s-.01,.07-.04,.09-.06,.04-.09,.04h-1.02s-.07-.01-.09-.04-.04-.06-.04-.09v-.33s0-.04-.02-.04c-.02,0-.03,0-.04,.02-.33,.38-.75,.58-1.27,.58s-.97-.14-1.33-.41c-.36-.27-.62-.65-.79-1.14-.13-.41-.2-.88-.2-1.38s.06-.98,.19-1.35c.16-.49,.42-.87,.79-1.14,.36-.27,.82-.41,1.36-.41,.51,0,.93,.18,1.25,.55,.01,.02,.03,.02,.04,.02,.01,0,.02-.02,.02-.04v-2.4s.01-.07,.04-.09Zm-.05,4.88c0-.58-.09-1.02-.28-1.32-.2-.32-.48-.49-.84-.49s-.67,.15-.89,.46c-.22,.33-.33,.78-.33,1.35,0,.52,.09,.94,.27,1.27,.21,.35,.52,.53,.94,.53,.38,0,.67-.18,.88-.53,.17-.3,.25-.73,.25-1.29Z" fill="#002346"></path>
      <path d="M332.44,314.83c-.42-.3-.71-.71-.88-1.23-.13-.4-.19-.82-.19-1.26,0-.47,.06-.89,.18-1.26,.17-.52,.47-.92,.89-1.21s.93-.43,1.52-.43,1.05,.14,1.46,.43c.41,.29,.7,.69,.87,1.2,.13,.35,.2,.78,.2,1.26s-.06,.89-.19,1.26c-.17,.52-.46,.94-.88,1.24-.41,.3-.9,.45-1.47,.45s-1.08-.15-1.5-.44Zm2.2-.9c.2-.16,.34-.37,.43-.65,.07-.24,.11-.55,.11-.93,0-.4-.04-.71-.11-.93-.08-.28-.22-.5-.42-.65-.2-.15-.44-.23-.73-.23s-.51,.08-.71,.23-.34,.37-.43,.65c-.07,.26-.11,.57-.11,.93s.04,.67,.11,.93c.08,.28,.22,.5,.43,.65,.2,.15,.45,.23,.74,.23s.51-.08,.7-.23Z" fill="#002346"></path>
      <path d="M340.74,314.97c-.41-.2-.72-.49-.94-.86-.22-.37-.33-.8-.33-1.28v-.74s.01-.07,.04-.09,.06-.04,.09-.04h1.02s.07,.01,.09,.04,.04,.06,.04,.09v.74c0,.4,.13,.72,.38,.97,.25,.25,.6,.37,1.02,.37s.75-.12,1.02-.37c.27-.25,.4-.57,.4-.97v-5.26s.01-.07,.04-.09c.03-.03,.06-.04,.09-.04h1.01s.07,.01,.09,.04c.03,.03,.04,.06,.04,.09v5.26c0,.49-.11,.92-.34,1.28-.23,.37-.54,.66-.95,.86-.41,.2-.88,.3-1.4,.3s-1.01-.1-1.42-.3Z" fill="#002346"></path>
      <path d="M347.25,314.83c-.42-.3-.71-.71-.88-1.23-.13-.4-.19-.82-.19-1.26,0-.47,.06-.89,.18-1.26,.17-.52,.47-.92,.89-1.21s.93-.43,1.52-.43,1.05,.14,1.46,.43c.41,.29,.7,.69,.87,1.2,.13,.35,.2,.78,.2,1.26s-.06,.89-.19,1.26c-.17,.52-.46,.94-.88,1.24-.41,.3-.9,.45-1.47,.45s-1.08-.15-1.5-.44Zm2.2-.9c.2-.16,.34-.37,.43-.65,.07-.24,.11-.55,.11-.93,0-.4-.04-.71-.11-.93-.08-.28-.22-.5-.42-.65-.2-.15-.44-.23-.73-.23s-.51,.08-.71,.23-.34,.37-.43,.65c-.07,.26-.11,.57-.11,.93s.04,.67,.11,.93c.08,.28,.22,.5,.43,.65,.2,.15,.45,.23,.74,.23s.51-.08,.7-.23Z" fill="#002346"></path>
      <path d="M353.39,315.05c-.35-.14-.62-.32-.81-.56-.19-.24-.29-.51-.29-.8v-.1s.01-.07,.04-.09,.06-.04,.09-.04h.97s.07,.01,.09,.04,.04,.06,.04,.09v.02c0,.18,.1,.35,.3,.48s.46,.2,.77,.2,.54-.06,.72-.18c.18-.12,.28-.27,.28-.46,0-.17-.08-.3-.23-.38s-.4-.18-.74-.27l-.42-.13c-.38-.11-.69-.23-.95-.35s-.48-.3-.65-.52-.27-.5-.27-.84c0-.52,.2-.93,.61-1.23,.41-.31,.94-.46,1.61-.46,.45,0,.85,.07,1.19,.22,.34,.14,.6,.34,.79,.6s.28,.54,.28,.87c0,.04-.01,.07-.04,.09s-.06,.04-.09,.04h-.94s-.07-.01-.09-.04-.04-.06-.04-.09c0-.19-.09-.35-.28-.48-.19-.13-.44-.19-.77-.19-.29,0-.52,.05-.7,.16s-.27,.26-.27,.45c0,.18,.09,.31,.26,.4,.17,.09,.46,.19,.87,.3l.24,.07c.39,.12,.72,.24,.99,.36,.27,.12,.49,.29,.68,.51,.18,.22,.28,.5,.28,.85,0,.52-.21,.94-.62,1.23-.41,.3-.96,.45-1.65,.45-.47,0-.87-.07-1.22-.21Z" fill="#002346"></path>
      <path d="M362.79,312.34v.34c-.01,.09-.06,.13-.14,.13h-3.47s-.06,.02-.06,.06c.02,.24,.06,.41,.1,.5,.18,.53,.61,.8,1.3,.81,.5,0,.9-.21,1.2-.62,.03-.04,.07-.07,.11-.07,.03,0,.06,.01,.08,.03l.69,.56c.07,.05,.08,.11,.03,.18-.23,.33-.53,.58-.91,.75s-.8,.27-1.27,.27c-.58,0-1.06-.13-1.47-.39-.4-.26-.7-.62-.88-1.09-.17-.4-.25-.95-.25-1.66,0-.43,.04-.78,.13-1.04,.15-.52,.43-.93,.84-1.22,.41-.3,.9-.45,1.48-.45,1.45,0,2.27,.76,2.46,2.28,.03,.19,.04,.39,.04,.62Zm-3.18-1.59c-.18,.14-.31,.33-.38,.57-.04,.13-.07,.29-.09,.49-.02,.04,0,.06,.04,.06h2.25s.06-.02,.06-.06c-.02-.18-.04-.32-.07-.42-.07-.27-.2-.47-.39-.62-.2-.15-.44-.22-.74-.22-.27,0-.5,.07-.68,.2Zm.04-1.98s-.01-.07,.01-.11l.61-1.14c.03-.06,.08-.09,.17-.09h.88c.05,0,.09,.02,.1,.05s.01,.07-.02,.12l-.76,1.13c-.04,.06-.09,.09-.16,.09h-.73c-.05,0-.08-.01-.1-.04Z" fill="#002346"></path>
    </g>
    <g>
      <path d="M468.46,313.02c0,.44-.1,.85-.29,1.21-.19,.35-.47,.62-.84,.82s-.81,.3-1.31,.3-.93-.1-1.32-.29c-.38-.2-.67-.48-.86-.86-.19-.35-.29-.74-.29-1.19,0-.4,.08-.78,.25-1.13,.15-.3,.36-.53,.63-.69,.04-.02,.04-.05,.01-.08-.19-.13-.35-.32-.5-.55-.19-.31-.29-.65-.29-1.03,0-.46,.14-.88,.41-1.25,.2-.29,.47-.51,.81-.67,.34-.16,.72-.24,1.14-.24s.82,.08,1.15,.24c.33,.16,.59,.38,.79,.67,.26,.38,.39,.79,.39,1.25,0,.41-.1,.76-.3,1.06-.14,.21-.3,.38-.49,.51-.03,.03-.03,.06,0,.08,.28,.16,.5,.4,.65,.72,.16,.33,.24,.7,.24,1.12Zm-1.3-.11c0-.34-.06-.61-.18-.8-.18-.34-.51-.51-.97-.51-.44,0-.75,.16-.95,.49-.12,.2-.19,.48-.19,.83s.07,.62,.2,.83c.2,.32,.52,.49,.95,.49s.72-.15,.91-.45c.16-.21,.23-.51,.23-.88Zm-2.23-3.36c0,.25,.06,.48,.19,.68,.18,.3,.47,.45,.89,.45s.7-.16,.91-.47c.11-.16,.17-.39,.17-.68,0-.16-.04-.33-.12-.51-.1-.17-.22-.3-.39-.4-.16-.1-.35-.15-.58-.15-.21,0-.39,.05-.55,.15-.16,.1-.29,.24-.38,.42-.09,.19-.13,.36-.13,.51Z" fill="#002346"></path>
      <path d="M469.27,315.22s-.03-.06-.01-.12l2.71-7.49c.02-.07,.07-.11,.14-.11h1.01s.08,.01,.1,.04c.02,.03,.03,.06,.01,.12l-2.71,7.49c-.02,.07-.07,.11-.14,.11h-1.01s-.08-.01-.1-.04Z" fill="#002346"></path>
      <path d="M476.17,314.13s.02,.02,.04,.02h3.16s.07,.01,.09,.04c.03,.03,.04,.06,.04,.09v.84s-.01,.07-.04,.09c-.03,.03-.06,.04-.09,.04h-4.76s-.07-.01-.09-.04c-.03-.03-.04-.06-.04-.09v-.8c0-.07,.02-.12,.07-.17,.56-.6,1.21-1.33,1.95-2.2l.52-.61c.68-.79,1.02-1.39,1.02-1.79,0-.3-.11-.55-.32-.74s-.49-.29-.83-.29-.61,.1-.83,.29c-.21,.19-.32,.45-.32,.76v.29s-.01,.07-.04,.09c-.03,.03-.06,.04-.09,.04h-1.03s-.07-.01-.09-.04c-.03-.03-.04-.06-.04-.09v-.48c.01-.4,.13-.75,.34-1.04,.21-.3,.5-.52,.87-.69,.37-.16,.77-.24,1.22-.24,.5,0,.93,.09,1.3,.28s.65,.44,.85,.76,.3,.68,.3,1.08c0,.61-.32,1.3-.96,2.09-.35,.44-.94,1.11-1.75,1.99l-.42,.46s-.02,.03-.02,.04Z" fill="#002346"></path>
      <path d="M485.9,312.11s.04,.06,.04,.09v.89s-.01,.07-.04,.09-.06,.04-.09,.04h-.46s-.06,.02-.06,.06v1.85s-.01,.07-.04,.09c-.03,.03-.06,.04-.09,.04h-1.02s-.07-.01-.09-.04c-.03-.03-.04-.06-.04-.09v-1.85s-.02-.06-.05-.06h-3.37s-.07-.01-.09-.04c-.03-.03-.04-.06-.04-.09v-.71s.01-.1,.03-.17l2.09-4.61c.03-.07,.08-.1,.16-.1h1.09c.05,0,.09,.01,.1,.04,.02,.03,.02,.06,0,.12l-1.97,4.34s0,.03,0,.04c0,.02,.02,.02,.03,.02h1.97s.05-.02,.05-.06v-1.51s.01-.07,.04-.09c.03-.03,.06-.04,.09-.04h1.02s.07,.01,.09,.04c.03,.03,.04,.06,.04,.09v1.51s.02,.06,.06,.06h.46s.07,.01,.09,.04Z" fill="#002346"></path>
    </g>
    <g>
      <path d="M298.5,300.68c-.32-.17-.57-.4-.75-.71-.18-.31-.27-.66-.27-1.05v-2.27c0-.4,.09-.74,.27-1.04,.18-.3,.43-.53,.75-.7,.32-.17,.7-.25,1.11-.25s.79,.08,1.11,.24c.32,.16,.57,.39,.75,.68,.18,.29,.27,.63,.27,1.01h0s0,.06-.03,.08c-.02,.02-.04,.03-.06,.03l-.66,.04c-.06,0-.09-.03-.09-.08v-.03c0-.37-.12-.67-.35-.9-.23-.23-.55-.34-.94-.34s-.7,.11-.94,.34-.35,.53-.35,.9v2.33c0,.37,.12,.67,.35,.9,.24,.23,.55,.34,.94,.34s.7-.11,.94-.34c.23-.23,.35-.53,.35-.9v-.02c0-.05,.03-.08,.09-.08l.66,.03c.06,0,.09,.03,.09,.09,0,.38-.09,.72-.27,1.02s-.43,.52-.75,.69c-.32,.16-.69,.24-1.11,.24s-.79-.08-1.11-.25Z" fill="#002346"></path>
      <path d="M305.36,296.52c.27,.13,.47,.3,.61,.52,.14,.22,.21,.48,.21,.77v2.96c0,.06-.03,.09-.09,.09h-.66c-.06,0-.09-.03-.09-.09v-.31s-.01-.03-.04-.02c-.15,.16-.34,.28-.56,.36-.22,.08-.46,.13-.73,.13-.43,0-.79-.11-1.07-.33-.28-.22-.42-.55-.42-.99s.16-.81,.48-1.07c.32-.26,.76-.39,1.33-.39h.98s.03-.01,.03-.04v-.24c0-.26-.07-.46-.22-.6-.15-.14-.38-.21-.68-.21-.25,0-.44,.05-.6,.14-.15,.1-.25,.23-.28,.39-.02,.06-.05,.08-.1,.08l-.71-.1c-.06-.01-.08-.04-.08-.07,.05-.34,.23-.63,.55-.84,.32-.22,.72-.33,1.21-.33,.36,0,.67,.06,.93,.19Zm-.35,3.45c.23-.16,.34-.37,.34-.62v-.52s-.01-.04-.03-.04h-.82c-.34,0-.62,.07-.82,.2-.2,.13-.31,.32-.31,.56,0,.22,.08,.38,.23,.49,.15,.11,.36,.17,.61,.17,.31,0,.58-.08,.8-.25Z" fill="#002346"></path>
      <path d="M309.78,296.47s.06,.05,.04,.1l-.14,.66c0,.05-.04,.07-.1,.05-.1-.04-.22-.06-.35-.06h-.12c-.27,.02-.5,.12-.68,.29-.18,.18-.27,.41-.27,.7v2.55c0,.06-.03,.09-.09,.09h-.66c-.06,0-.09-.03-.09-.09v-4.28c0-.06,.03-.09,.09-.09h.66c.06,0,.09,.03,.09,.09v.46s0,.03,.01,.03,.02,0,.02-.01c.26-.41,.62-.61,1.08-.61,.19,0,.36,.04,.51,.11Z" fill="#002346"></path>
      <path d="M313.34,294.73h.66c.06,0,.09,.03,.09,.09v5.95c0,.06-.03,.09-.09,.09h-.66c-.06,0-.09-.03-.09-.09v-.29s0-.02-.01-.03-.02,0-.03,0c-.13,.15-.28,.26-.46,.34-.17,.08-.36,.12-.57,.12-.42,0-.77-.1-1.04-.31-.28-.21-.48-.5-.61-.88-.11-.31-.17-.68-.17-1.12,0-.41,.05-.76,.14-1.06,.12-.38,.32-.69,.6-.9,.28-.22,.64-.32,1.08-.32,.2,0,.39,.04,.56,.12,.18,.08,.33,.19,.46,.34,.01,.01,.02,.01,.03,0s.01-.01,.01-.03v-1.95c0-.06,.03-.09,.09-.09Zm-.1,3.89c0-.49-.07-.86-.22-1.12-.17-.3-.42-.45-.74-.45-.35,0-.61,.14-.78,.42-.19,.29-.28,.68-.28,1.15,0,.45,.07,.81,.22,1.08,.17,.32,.45,.48,.83,.48,.34,0,.59-.16,.77-.47,.13-.25,.2-.61,.2-1.1Z" fill="#002346"></path>
      <path d="M320.2,296.76c.28,.28,.42,.65,.42,1.12v2.89c0,.06-.03,.09-.09,.09h-.66c-.06,0-.09-.03-.09-.09v-2.72c0-.29-.08-.53-.25-.71-.17-.18-.39-.27-.67-.27s-.5,.09-.67,.27c-.17,.18-.26,.41-.26,.7v2.73c0,.06-.03,.09-.09,.09h-.66c-.06,0-.09-.03-.09-.09v-4.28c0-.06,.03-.09,.09-.09h.66c.06,0,.09,.03,.09,.09v.31s0,.02,.01,.03,.02,0,.02,0c.25-.32,.62-.48,1.11-.48s.86,.14,1.14,.42Z" fill="#002346"></path>
      <path d="M324.38,296.52c.27,.13,.47,.3,.61,.52,.14,.22,.21,.48,.21,.77v2.96c0,.06-.03,.09-.09,.09h-.66c-.06,0-.09-.03-.09-.09v-.31s-.01-.03-.04-.02c-.15,.16-.34,.28-.56,.36-.22,.08-.46,.13-.73,.13-.43,0-.79-.11-1.07-.33-.28-.22-.42-.55-.42-.99s.16-.81,.48-1.07c.32-.26,.76-.39,1.33-.39h.98s.03-.01,.03-.04v-.24c0-.26-.07-.46-.22-.6-.15-.14-.38-.21-.68-.21-.25,0-.44,.05-.6,.14-.15,.1-.25,.23-.28,.39-.02,.06-.05,.08-.1,.08l-.71-.1c-.06-.01-.08-.04-.08-.07,.05-.34,.23-.63,.55-.84,.32-.22,.72-.33,1.21-.33,.36,0,.67,.06,.93,.19Zm-.35,3.45c.23-.16,.34-.37,.34-.62v-.52s-.01-.04-.03-.04h-.82c-.34,0-.62,.07-.82,.2-.2,.13-.31,.32-.31,.56,0,.22,.08,.38,.23,.49,.15,.11,.36,.17,.61,.17,.31,0,.58-.08,.8-.25Z" fill="#002346"></path>
      <path d="M332.02,296.74c.26,.27,.38,.63,.38,1.11v2.92c0,.06-.03,.09-.09,.09h-.66c-.06,0-.09-.03-.09-.09v-2.75c0-.29-.08-.52-.24-.7-.16-.17-.37-.26-.64-.26s-.49,.08-.66,.25-.25,.4-.25,.68v2.76c0,.06-.03,.09-.09,.09h-.66c-.06,0-.09-.03-.09-.09v-2.75c0-.29-.08-.52-.24-.7-.16-.17-.37-.26-.64-.26s-.48,.08-.64,.25c-.16,.17-.24,.4-.24,.68v2.76c0,.06-.03,.09-.09,.09h-.66c-.06,0-.09-.03-.09-.09v-4.28c0-.06,.03-.09,.09-.09h.66c.06,0,.09,.03,.09,.09v.3s0,.02,.01,.03,.02,0,.03,0c.26-.31,.63-.46,1.12-.46,.3,0,.55,.06,.76,.17s.37,.28,.49,.5c.02,.02,.04,.02,.05,0,.14-.23,.32-.4,.56-.51,.23-.11,.49-.17,.77-.17,.44,0,.79,.13,1.05,.4Z" fill="#002346"></path>
      <path d="M337.14,298.88c0,.06-.03,.09-.09,.09h-2.79s-.04,.01-.04,.04c0,.2,.02,.35,.05,.45,.06,.23,.19,.42,.39,.55,.2,.13,.44,.2,.74,.2,.43,0,.76-.18,1-.53,.03-.06,.07-.07,.11-.03l.5,.33s.05,.07,.03,.11c-.16,.26-.4,.47-.7,.62-.3,.15-.64,.23-1.02,.23-.43,0-.78-.09-1.08-.28s-.51-.45-.66-.8c-.14-.34-.21-.76-.21-1.25,0-.43,.03-.75,.1-.97,.1-.4,.31-.72,.63-.95,.31-.23,.7-.35,1.15-.35,.59,0,1.03,.15,1.32,.44s.47,.73,.53,1.3c.02,.24,.03,.51,.03,.8Zm-2.5-1.63c-.16,.13-.27,.29-.33,.5-.04,.13-.07,.29-.08,.49,0,.02,.01,.04,.04,.04h2s.04-.01,.04-.04c-.01-.19-.03-.33-.05-.43-.06-.23-.17-.41-.35-.55-.17-.14-.39-.21-.64-.21s-.46,.06-.62,.19Z" fill="#002346"></path>
      <path d="M338.69,297.69c-.1-.1-.16-.24-.16-.4s.05-.3,.16-.4,.24-.16,.4-.16,.3,.05,.4,.16,.16,.24,.16,.4-.05,.3-.16,.4-.24,.16-.4,.16-.3-.05-.4-.16Zm0,2.91c-.1-.1-.16-.24-.16-.4s.05-.3,.16-.4,.24-.16,.4-.16,.3,.05,.4,.16,.16,.24,.16,.4-.05,.3-.16,.4-.24,.16-.4,.16-.3-.05-.4-.16Z" fill="#002346"></path>
    </g>
    <rect x="360.2" y="372.56" width="60" height="60" rx="10.37" ry="10.37" fill="#ffffff" stroke="#002346" stroke-miterlimit="10"></rect>
    <g>
      <polyline points="373.2 391.61 379.3 391.61 382.43 411.2 400.15 411.2" fill="none" stroke="#002346" stroke-linecap="round" stroke-linejoin="round"></polyline>
      <polyline points="379.95 395.71 402.59 395.71 400.15 407.31 381.8 407.31" fill="none" stroke="#002346" stroke-linecap="round" stroke-linejoin="round"></polyline>
      <circle cx="384.73" cy="415.81" r="1.73" fill="none" stroke="#002346" stroke-linecap="round" stroke-linejoin="round"></circle>
      <circle cx="396.26" cy="415.81" r="1.73" fill="none" stroke="#002346" stroke-linecap="round" stroke-linejoin="round"></circle>
      <circle cx="401.44" cy="393.34" r="5.76" fill="#ffffff" stroke="#002346" stroke-miterlimit="10"></circle>
    </g>
    <rect x="325.2" y="520.56" width="133" height="31" rx="15.5" ry="15.5" fill="#ffffff" stroke="#002346" stroke-miterlimit="10"></rect>
    <g>
      <path d="M386.91,532.28c.37,.2,.66,.49,.87,.86,.21,.37,.31,.79,.31,1.28s-.1,.89-.31,1.26c-.21,.37-.51,.65-.89,.85s-.83,.3-1.33,.3h-1.87s-.06,.02-.06,.06v3.14s-.01,.07-.04,.1c-.03,.03-.06,.04-.1,.04h-1.07s-.07-.01-.1-.04c-.03-.03-.04-.06-.04-.1v-7.89s.01-.07,.04-.1c.03-.03,.06-.04,.1-.04h3.21c.49,0,.92,.1,1.29,.3Zm-.54,3.09c.24-.23,.36-.54,.36-.92s-.12-.7-.36-.94c-.24-.24-.56-.36-.96-.36h-1.74s-.06,.02-.06,.06v2.46s.02,.06,.06,.06h1.74c.4,0,.72-.12,.96-.35Z" fill="#002346"></path>
      <path d="M393.68,540.03l-.38-1.25s-.04-.05-.06-.05h-3.08s-.04,.02-.06,.05l-.39,1.25c-.02,.08-.07,.12-.15,.12h-1.17s-.08-.01-.1-.04c-.02-.03-.03-.07-.01-.12l2.53-7.88c.02-.08,.07-.12,.15-.12h1.46c.08,0,.13,.04,.15,.12l2.54,7.88s.01,.04,.01,.06c0,.07-.04,.1-.13,.1h-1.17c-.08,0-.13-.04-.15-.12Zm-3.17-2.36h2.37s.06-.02,.05-.07l-1.2-3.91s-.02-.05-.04-.05-.03,.02-.04,.05l-1.19,3.91s0,.07,.05,.07Z" fill="#002346"></path>
      <path d="M397.37,540.09s-.04-.06-.04-.1v-3.12s0-.05-.01-.07l-2.4-4.65s-.02-.05-.02-.07c0-.06,.04-.09,.13-.09h1.15c.08,0,.13,.04,.16,.11l1.63,3.25s.05,.03,.07,0l1.64-3.25c.04-.07,.09-.11,.16-.11h1.17c.05,0,.09,.02,.11,.05,.02,.03,.02,.07,0,.12l-2.41,4.65s-.02,.05-.02,.07v3.12s-.01,.07-.04,.1-.06,.04-.1,.04h-1.07s-.07-.01-.1-.04Z" fill="#002346"></path>
    </g>
  </g>
  <g>
    <polygon points="621.85 633.21 648.43 507.86 655.25 509.89 629.75 633.21 621.85 633.21" fill="#fff" stroke="#002346" stroke-miterlimit="10"></polygon>
    <polygon points="649.86 621.72 666.38 514.32 673.57 516.13 658.13 621.72 649.86 621.72" fill="#fff" stroke="#002346" stroke-miterlimit="10"></polygon>
    <polygon points="715.24 515.76 729.6 621.72 737.15 621.72 721.7 514.32 715.24 515.76" fill="#fff" stroke="#002346" stroke-miterlimit="10"></polygon>
    <polygon points="757.26 630.34 732.11 509.89 740.02 507.86 765.16 630.34 757.26 630.34" fill="#fff" stroke="#002346" stroke-miterlimit="10"></polygon>
    <ellipse id="b" cx="694.71" cy="491.43" rx="60.63" ry="30.08" fill="#e6e7e8" stroke="#002346" stroke-miterlimit="10"></ellipse>
    <path d="M512.36,274.84l25.78,43.71,14.75-11.73-24.02-40.13c-.46-.76-1.41-1.05-2.21-.68l-13.47,6.05c-.97,.45-1.39,1.6-.94,2.57,.03,.07,.07,.14,.11,.21Z" fill="#ffffff" stroke="#002346" stroke-miterlimit="10"></path>
    <polygon points="515.62 274.19 540.51 316.68 552.89 306.84 529.78 268.05 515.62 274.19" fill="#fff" stroke="#002346" stroke-miterlimit="10"></polygon>
    <path d="M646.29,290.34s-12.98,5.06-18.22,24.6l-11.14,28.45s-13.28,41.06-2.11,40.73c0,0,5.9,2.6,21.34-19.46l10.14-74.33Z" fill="#ffffff" stroke="#002346" stroke-miterlimit="10"></path>
    <path d="M673.28,279.37l-9.6,.37c-1.79-.35-3.62-.35-5.41,0h0c-2.67,.3-4.9,2.16-5.69,4.73-.08,.22-.11,.34-.11,.34-.71,2.57-1.95,4.96-3.64,7.02-5.53,6.94-10.64,13.06-10.64,13.06,.18-2.12,2.39-6.04,4.67-9.55h0c2.45-3.77,4.93-7.05,4.93-7.05,4.74-5.83-4.17-14.04-4.43-14.24,8-2.36,13.5-11.72,14.58-23.61l1.57-2.53c11.07,28.38,13.77,31.48,13.77,31.48Z" fill="#f1b2c0" stroke="#002346" stroke-miterlimit="10"></path>
    <path d="M663.21,386.23c3.73,4.93,5.77,10.94,5.79,17.12,0,0,.66,13.93,2.66,17.91l-69.91-7.86s-38.44-8.27-44.55,15.8l-56.44,137.57s17.96,11.13,44.54,8.61c0,0,19.05,1.8,25.51,7.19l20.47-98.18s9.58,7.66,64.41,8.38c0,0,88.23,14.73,96.85-22.99,0,0,13.28-37.72-18.67-74.71,0,0-16.34-16.52-22.72-29.1,.06,0-30.46,27.75-47.93,20.24Z" fill="#ffffff" stroke="#002346" stroke-miterlimit="10"></path>
    <path d="M582.77,368.24l-36.12-40.51s-27.34-16.53-26.99-25.64v-7.05s-1.42-5.02,2.36-3.41c0,0,6.46,9.16,11.85,10.24,4.66,.93,8.07,5.05,10.76,8.31,.65,.78,1.82,.89,2.6,.24,.01,0,.02-.02,.03-.03l3.83-3.32s1.6-1.27-.79-4.62c4.44,4.39,6.87,10.42,6.71,16.66-.02,1.58,.77,3.07,2.1,3.93l36.92,24.25-5.33,8.53,5.33,5.87-6.94-2.4-6.32,8.95Z" fill="#f1b2c0" stroke="#002346" stroke-miterlimit="10"></path>
    <path d="M538.14,282.19v-1.43c0-.94,.75-1.71,1.7-1.71,.11,0,.22,0,.33,.03h0c.84,.16,1.43,.93,1.38,1.78l-.38,6.39-3.03-5.06Z" fill="#f1b2c0" stroke="#002346" stroke-miterlimit="10"></path>
    <path d="M542.85,290.06v-3.04c0-1.03,.84-1.87,1.87-1.87h0c1.04,0,1.88,.84,1.88,1.88,0,.02,0,.04,0,.06l-.29,8.75-3.46-5.78Z" fill="#f1b2c0" stroke="#002346" stroke-miterlimit="10"></path>
    <path d="M547.03,297.06v-2.21c0-.76,.62-1.37,1.37-1.37h0c.74-.02,1.37,.55,1.42,1.29v6.84s-2.79-4.55-2.79-4.55Z" fill="#f1b2c0" stroke="#002346" stroke-miterlimit="10"></path>
    <path d="M581.36,323.2l11.22,21.85,3.44,2.21s6.97,15.49,19.31-2.42l-22.44-30.44-17.22-29.82c-.55-.97-1.3-1.81-2.21-2.45l-14.39-9.86c-.78-.53-1.83-.39-2.45,.32h0c-.67,.76-.59,1.93,.18,2.59,0,0,0,0,.01,0l13.76,12.01s-15.94,7.47-10.36,17.46c0,0,.27,5.15,7.17,6.24,0,.04,6.96,8.29,13.98,12.28Z" fill="#f1b2c0" stroke="#002346" stroke-miterlimit="10"></path>
    <path d="M525.41,574.85s-12.17,16.53-33.8,15.07c0,0,8.85,20.53,27.87,8.43l31.85-15.78,3.05-5.87s-6.64-1.52-9.04-1.33c-6.63,.9-13.36,.73-19.93-.53Z" fill="#f1b2c0" stroke="#002346" stroke-miterlimit="10"></path>
    <path id="c" d="M491.61,589.92s-27.44-3.4-23.13,5.7c0,0,30.89,33.52,42.39,23.46,0,0,14.39-9.82,15.8-9.1,0,0,2.21,.95-3.67,8.13,0,0-12.37,12.69-7.34,15.08,0,0,2.15,1.93,4.06-1.91,0,0,16.77-22.5,23.71-22.99,0,0,17.71-1.35,9.44-28.69l-1.54,2.95-31.85,15.78s-16.47,13.17-27.87-8.43Z" fill="#ffffff" stroke="#002346" stroke-miterlimit="10"></path>
    <path d="M490.26,522.94s26.63-8.64,37.3-21.44l-10.68,26.06s-11.95,9.36-20.4,1.76c-1.13-1.05-2.35-2.01-3.64-2.86-1.44-.92-3.05-2.27-2.58-3.53Z" fill="#f1b2c0" stroke="#002346" stroke-miterlimit="10"></path>
    <path d="M490.26,522.94s-28.94,1.34-20.02,9.11l23.4,14.29s8.27,4.5,14.39,2.86l8.85-21.63s-11.29,9.34-20.4,1.76c-1.35-1.38-2.89-2.56-4.57-3.51,0,0-2.27-1.44-1.65-2.88Z" fill="#ffffff" stroke="#002346" stroke-miterlimit="10"></path>
    <path d="M590.74,355.79l5.33-8.53s5.07,7.75,11.73,3.2c0,0,1.57-1.2,3.92-3.53,6.12-6.04,10.9-13.28,14.2-21.22,3.25-7.82,9.52-21.46,16.98-30.44-2.28,3.51-3.16,5.57-3.33,7.7,2.83-3.23,6.66-8.65,9.72-13.05,1.23-1.76,2.35-3.6,3.28-5.53,4.73-9.91,13.6-7.67,13.6-7.67,3.99,.8,7.63,2.79,10.64,5.53,2.84,2.6,7.09,6.94,11.53,13.11,8.1,11.41,13.52,24.5,15.86,38.29,1.77,10.48,4.85,27.02,6.98,32.34,0,0-30.39,27.67-47.99,20.25l-11.47-14.13s-9.33-1.33-15.59-7.47c0,0-18.39,15.25-28.97,19.26-2.71,1.01-5.74,.59-8.08-1.11l-17.71-12.59,9.35-14.4Z" fill="#ffffff" stroke="#002346" stroke-miterlimit="10"></path>
    <path d="M584.13,321.08s-10.09-4.52-13.02-12.75c0,0-4.07-4.79-7.28-6.28-1.24-.51-1.84-1.93-1.33-3.18,0,0,0-.01,0-.02,.56-1.16,2.09-1.89,5.94-.14l15.67,7.49" fill="#f1b2c0" stroke="#002346" stroke-linecap="round" stroke-linejoin="round"></path>
    <rect x="614.22" y="206.16" width="43.78" height="69.02" rx="21.89" ry="21.89" transform="translate(1313.35 303.12) rotate(164.54)" fill="#f1b2c0" stroke="#002346" stroke-miterlimit="10"></rect>
    <g>
      <ellipse cx="668.24" cy="193.71" rx="15.37" ry="15.12" transform="translate(457.01 856.62) rotate(-88.49)" fill="#002346" stroke="#002346" stroke-miterlimit="10"></ellipse>
      <ellipse cx="659.12" cy="202.88" rx="11.83" ry="11.63" transform="translate(438.96 856.43) rotate(-88.49)" fill="#ffffff" stroke="#002346" stroke-miterlimit="10"></ellipse>
      <path d="M622.59,221.78c3.19,2.71,10.07,6.9,23.12,8.27,0,0-.86,8.37,9.23,16.02,2.93,2.22,5.03,5.43,5.75,9.07,1.14,5.79,.86,14.62-6.85,23.98,0,0,6.67,.44,15.95-2.44,0,0,5.61,6.01,15.15,5.79,3.93-.09,7.57-2.42,9.19-6.05,2.16-4.85,3.24-13.59-2.11-28.78,0,0-12.4-53.35-43.04-54.15,0,0-14.06-2.61-26.28,3.62-12.32,6.28-14.75,29.2-10.32,38.84l2.16-4.53c1.75-3.67,2.08-4.4,3.09-8.02,.1-.36,.26-.71,.48-1.01h0c1.07-1.49,3.09-1.78,4.48-.59Z" fill="#002346" stroke="#002346" stroke-miterlimit="10"></path>
    </g>
    <ellipse cx="661.09" cy="238.6" rx="4.85" ry="8.36" transform="translate(-39.95 188.53) rotate(-15.76)" fill="#f1b2c0" stroke="#002346" stroke-miterlimit="10"></ellipse>
    <line x1="636.15" y1="364.63" x2="659.5" y2="348.35" fill="none" stroke="#002346" stroke-linecap="round" stroke-linejoin="round"></line>
    <path d="M522.82,301.31s2.21,6.64,8.85,9.96" fill="none" stroke="#002346" stroke-linecap="round" stroke-linejoin="round"></path>
    <line x1="570.57" y1="287.21" x2="574.83" y2="294.67" fill="none" stroke="#002346" stroke-linecap="round" stroke-linejoin="round"></line>
    <path d="M591.27,484.4s-7.58-8.22-8.69-18.18" fill="none" stroke="#002346" stroke-linecap="round" stroke-linejoin="round"></path>
  </g>
  <g>
    <path d="M100.81,524.15c.28,3.16,.68,6.72,1.29,10.35,0,0,12.8-41.88,54.86-36.47l-8.26-18.2-6.83-6.83c-13.72,7.12-26.99,4.98-36.06,23.37-4.23,8.59-5.82,18.24-4.99,27.78Z" fill="#7cd295" stroke="#002346" stroke-miterlimit="10"></path>
    <path d="M219.4,484.06c-37.96,.04-43.64-55.9-5.28-102.46,.13-.15,.37-.05,.35,.15-1.51,15.87,45.09,72.76,14.55,98.81-2.68,2.29-6.08,3.51-9.61,3.51Z" fill="#7cd295" stroke="#002346" stroke-miterlimit="10"></path>
    <path d="M217.11,463.16c-23.95-14.22-18.54-56.83,52.42-81.98,.13-.05,.27,.07,.22,.21-.8,2.31-5.51,17.39-7.98,59.93-.66,11.34-16.86,38.34-44.66,21.83Z" fill="#7cd295" stroke="#002346" stroke-miterlimit="10"></path>
    <path d="M241.89,556.56c1.07,8.38-55.75,8.38-54.67,0-1.07-8.38,55.75-8.38,54.67,0Z" fill="#002346" stroke="#002346" stroke-miterlimit="10"></path>
    <path d="M244.13,630.8c-2.46-.37-65.03,1.07-65.18-1.16-12.33-5.85-12.86-24.94-12.86-24.94-1.86-25.47,21.12-39.14,21.12-39.14v-9.01c-1.07,8.38,55.75,8.38,54.67,0v9.63c30.09,19.75,23.99,62.61,2.24,64.61Z" fill="#ffffff" stroke="#002346" stroke-miterlimit="10"></path>
    <path d="M243.75,577.37c.07,4.84-7.53,4.84-7.46,0-.07-4.84,7.53-4.84,7.46,0Z" fill="#fff"></path>
    <path d="M254.94,588.56c.07,4.84-7.53,4.84-7.46,0-.07-4.84,7.53-4.84,7.46,0Z" fill="#fff"></path>
    <path d="M256.8,606.57c.07,4.84-7.53,4.84-7.46,0-.07-4.84,7.53-4.84,7.46,0Z" fill="#fff"></path>
    <path d="M246.86,620.24c.07,4.84-7.53,4.84-7.46,0-.07-4.84,7.53-4.84,7.46,0Z" fill="#fff"></path>
    <path d="M216.42,623.97c.07,4.84-7.53,4.84-7.46,0-.07-4.84,7.53-4.84,7.46,0Z" fill="#fff"></path>
    <path d="M192.81,620.24c.07,4.84-7.53,4.84-7.46,0-.07-4.84,7.53-4.84,7.46,0Z" fill="#fff"></path>
    <path d="M179.76,609.68c.07,4.84-7.53,4.84-7.46,0-.07-4.84,7.53-4.84,7.46,0Z" fill="#fff"></path>
    <path d="M181.62,588.56c.07,4.84-7.53,4.84-7.46,0-.07-4.84,7.53-4.84,7.46,0Z" fill="#fff"></path>
    <path d="M195.29,576.13c.07,4.84-7.53,4.84-7.46,0-.07-4.84,7.53-4.84,7.46,0Z" fill="#fff"></path>
    <path d="M207.72,587.31c.07,4.84-7.53,4.84-7.46,0-.07-4.84,7.53-4.84,7.46,0Z" fill="#fff"></path>
    <path d="M193.43,597.25c.07,4.84-7.53,4.84-7.46,0-.07-4.84,7.53-4.84,7.46,0Z" fill="#fff"></path>
    <path d="M205.85,609.68c.07,4.84-7.53,4.84-7.46,0-.07-4.84,7.53-4.84,7.46,0Z" fill="#fff"></path>
    <path d="M219.52,599.12c.07,4.84-7.53,4.84-7.46,0-.07-4.84,7.53-4.84,7.46,0Z" fill="#fff"></path>
    <path d="M222.01,578c.07,4.84-7.53,4.84-7.46,0-.07-4.84,7.53-4.84,7.46,0Z" fill="#fff"></path>
    <path d="M233.19,591.04c.07,4.84-7.53,4.84-7.46,0-.07-4.84,7.53-4.84,7.46,0Z" fill="#fff"></path>
    <path d="M241.89,599.74c.07,4.84-7.53,4.84-7.46,0-.07-4.84,7.53-4.84,7.46,0Z" fill="#fff"></path>
    <path d="M229.46,612.17c.07,4.84-7.53,4.84-7.46,0-.07-4.84,7.53-4.84,7.46,0Z" fill="#fff"></path>
    <path d="M275.44,514.63c-20.49-16.69-49.62,6.22-20.5,34.79,0,0,14.91,13.67,21.12,27.96,0,0,28.58-20.5,29.2-48.46,0,0,0-28.58-29.82-14.29Z" fill="#7cd295" stroke="#002346" stroke-miterlimit="10"></path>
    <path d="M101.51,511.17c32.19-56.75,45.94,1.61,94.4-6.48,.73-65.25-93.69-62.5-94.4,6.48Z" fill="#7cd295" stroke="#002346" stroke-miterlimit="10"></path>
    <path d="M187.22,565.57s22.94,11.78,54.67,.62" fill="none" stroke="#002346" stroke-linecap="round" stroke-linejoin="round"></path>
    <path d="M220.3,535.46s13.5-56.7,47.86-29.2c4.83,3.87,7.86,9.56,9.33,15.57,2.28,9.31,5.17,26.27,1.53,42.65" fill="none" stroke="#002346" stroke-linecap="round" stroke-linejoin="round"></path>
    <path d="M264.18,386.3s-63.45,45.9-41.85,170.09" fill="none" stroke="#002346" stroke-linecap="round" stroke-linejoin="round"></path>
    <path d="M126.49,474.04s83.69-1.35,86.39,80.99" fill="none" stroke="#002346" stroke-linecap="round" stroke-linejoin="round"></path>
  </g>
  <g>
    <circle cx="505.81" cy="113.56" r="1.5" fill="#fff" stroke="#002346" stroke-miterlimit="10"></circle>
    <circle cx="505.81" cy="118.31" r="1.5" fill="#fff" stroke="#002346" stroke-miterlimit="10"></circle>
    <circle cx="505.81" cy="123.06" r="1.5" fill="#fff" stroke="#002346" stroke-miterlimit="10"></circle>
  </g>
</svg>
